{
.appVersion = "3151";
.formatVersion = 3;
axes = (
{
name = Weight;
tag = wght;
}
);
classes = (
{
automatic = 1;
code = "A Aacute Abreve Abreveacute Abrevedotbelow Abrevegrave Abrevehookabove Abrevetilde Acaron Acircumflex Acircumflexacute Acircumflexdotbelow Acircumflexgrave Acircumflexhookabove Acircumflextilde Adieresis Adotbelow Agrave Ahookabove Amacron Aogonek Aring Atilde AE AEacute B C Cacute Ccaron Ccedilla Ccircumflex Cdotaccent D Eth Dcaron Dcroat Dmacronbelow E Eacute Ebreve Ecaron Ecircumflex Ecircumflexacute Ecircumflexdotbelow Ecircumflexgrave Ecircumflexhookabove Ecircumflextilde Edieresis Edotaccent Edotbelow Egrave Ehookabove Emacron Eogonek Etilde Schwa F G Gbreve Gcaron Gcircumflex Gcommaaccent Gdotaccent Gmacron H Hbar Hcircumflex I IJ Iacute Ibreve Icircumflex Idieresis Idotaccent Idotbelow Igrave Ihookabove Imacron Iogonek Itilde J Jacute Jcircumflex K Kcommaaccent L Lacute Lcaron Lcommaaccent Ldot Lmacronbelow Lslash M N Nacute Ncaron Ncommaaccent Nhookleft Nmacronbelow Ntilde Eng O Oacute Obreve Ocircumflex Ocircumflexacute Ocircumflexdotbelow Ocircumflexgrave Ocircumflexhookabove Ocircumflextilde Odieresis Odotbelow Ograve Ohookabove Ohorn Ohornacute Ohorndotbelow Ohorngrave Ohornhookabove Ohorntilde Ohungarumlaut Omacron Oogonek Oslash Oslashacute Otilde OE P Thorn Q R Racute Rcaron Rcommaaccent Rmacronbelow S Sacute Saltillo Scaron Scedilla Scircumflex Scommaaccent Germandbls T Tbar Tcaron Tcedilla Tcommaaccent Tmacronbelow U Uacute Ubreve Ucircumflex Udieresis Udotbelow Ugrave Uhookabove Uhorn Uhornacute Uhorndotbelow Uhorngrave Uhornhookabove Uhorntilde Uhungarumlaut Umacron Uogonek Uring Utilde V W Wacute Wcircumflex Wdieresis Wgrave X Y Yacute Ycircumflex Ydieresis Ydotbelow Ygrave Yhookabove Ymacron Ytilde Z Zacute Zcaron Zdotaccent";
name = Uppercase;
}
);
customParameters = (
{
name = fsType;
value = (
);
},
{
name = "Use Typo Metrics";
value = 1;
},
{
name = "EditView Line Height";
value = 1300;
}
);

glyphs = (
{
color = 4;
glyphname = A;
kernLeft = KO_A;
kernRight = KO_A;
lastChange = "2024-02-04 05:23:04 +0000";
layers = (
{
anchors = (
{
name = bottom;
pos = (355,0);
},
{
name = ogonek;
pos = (604,0);
},
{
name = top;
pos = (344,690);
}
);
guides = (
{
pos = (258,75);
}
);
layerId = m01;
shapes = (
{
closed = 1;
nodes = (
(246,0,l),
(246,16,l),
(116,97,l),
(129,13,l),
(348,639,l),
(306,639,l),
(568,13,l),
(576,96,l),
(446,16,l),
(446,0,l),
(707,0,l),
(707,16,l),
(621,94,l),
(668,13,l),
(384,690,l),
(326,690,l),
(42,13,l),
(88,93,l),
(2,16,l),
(2,0,l)
);
},
{
closed = 1;
nodes = (
(518,214,l),
(518,264,l),
(172,264,l),
(172,214,l)
);
},
{
closed = 1;
nodes = (
(343,690,l),
(238,690,l),
(238,674,l),
(307,609,l)
);
}
);
width = 709;
},
{
associatedMasterId = m01;
guides = (
{
pos = (666,73);
}
);
layerId = "59A8539E-3A79-4BB1-9B25-6CE7873D2D08";
name = "24 Aug 23 at 13:37";
shapes = (
{
closed = 1;
nodes = (
(245,0,l),
(245,16,l),
(115,93,l),
(128,13,l),
(352,640,l),
(314,640,l),
(567,13,l),
(577,93,l),
(447,16,l),
(447,0,l),
(708,0,l),
(708,16,l),
(622,92,l),
(669,13,l),
(385,690,l),
(326,690,l),
(42,13,l),
(88,91,l),
(2,16,l),
(2,0,l)
);
},
{
closed = 1;
nodes = (
(518,214,l),
(518,264,l),
(172,264,l),
(172,214,l)
);
},
{
closed = 1;
nodes = (
(343,690,l),
(224,690,l),
(224,674,l),
(307,606,l)
);
}
);
width = 710;
},
{
associatedMasterId = m002;
guides = (
{
pos = (76,88);
}
);
layerId = "EF51FF38-A04C-4C32-A50C-35061E68E57D";
name = "21 Sep 23 at 16:01";
shapes = (
{
closed = 1;
nodes = (
(255,0,l),
(255,24,l),
(178,111,l),
(178,13,l),
(323,542,l),
(310,542,l),
(553,13,l),
(539,105,l),
(442,24,l),
(442,0,l),
(777,0,l),
(777,24,l),
(699,112,l),
(755,13,l),
(442,690,l),
(337,690,l),
(24,13,l),
(80,112,l),
(2,24,l),
(2,0,l)
);
},
{
closed = 1;
nodes = (
(582,189,l),
(582,249,l),
(192,249,l),
(192,189,l)
);
},
{
closed = 1;
nodes = (
(358,690,l),
(225,690,l),
(225,666,l),
(308,575,l)
);
}
);
width = 779;
},
{
anchors = (
{
name = bottom;
pos = (390,0);
},
{
name = ogonek;
pos = (640,0);
},
{
name = top;
pos = (367,690);
}
);
guides = (
{
pos = (58,88);
}
);
layerId = m002;
name = Black;
shapes = (
{
closed = 1;
nodes = (
(266,0,l),
(266,24,l),
(174,105,l),
(174,13,l),
(327,592,l),
(293,592,l),
(553,13,l),
(540,106,l),
(448,24,l),
(448,0,l),
(778,0,l),
(778,24,l),
(704,110,l),
(757,13,l),
(453,690,l),
(327,690,l),
(23,13,l),
(76,111,l),
(2,24,l),
(2,0,l)
);
},
{
closed = 1;
nodes = (
(564,197,l),
(564,257,l),
(174,257,l),
(174,197,l)
);
},
{
closed = 1;
nodes = (
(354,690,l),
(223,690,l),
(223,666,l),
(304,575,l)
);
}
);
width = 780;
},
{
associatedMasterId = m002;
guides = (
{
pos = (43,88);
}
);
layerId = "93DAD2B4-EC99-494F-A670-0D67B122EF2B";
name = "7 Oct 23 at 08:29";
shapes = (
{
closed = 1;
nodes = (
(276,0,l),
(276,24,l),
(179,102,l),
(179,13,l),
(324,639,l),
(258,639,l),
(520,13,l),
(506,102,l),
(409,24,l),
(409,0,l),
(738,0,l),
(738,24,l),
(659,112,l),
(712,13,l),
(428,690,l),
(312,690,l),
(28,13,l),
(81,112,l),
(2,24,l),
(2,0,l)
);
},
{
closed = 1;
nodes = (
(549,189,l),
(549,249,l),
(159,249,l),
(159,189,l)
);
},
{
closed = 1;
nodes = (
(339,690,l),
(198,690,l),
(198,666,l),
(289,575,l)
);
}
);
width = 740;
},
{
associatedMasterId = m002;
guides = (
{
pos = (43,88);
}
);
layerId = "D953B5A1-1B83-4A13-BA53-FDD192E3D8F2";
name = "9 Oct 23 at 18:36";
shapes = (
{
closed = 1;
nodes = (
(276,0,l),
(276,24,l),
(179,102,l),
(179,13,l),
(324,639,l),
(258,639,l),
(520,13,l),
(506,102,l),
(409,24,l),
(409,0,l),
(748,0,l),
(748,24,l),
(669,112,l),
(722,13,l),
(438,690,l),
(312,690,l),
(28,13,l),
(81,112,l),
(2,24,l),
(2,0,l)
);
},
{
closed = 1;
nodes = (
(549,189,l),
(549,249,l),
(159,249,l),
(159,189,l)
);
},
{
closed = 1;
nodes = (
(339,690,l),
(198,690,l),
(198,666,l),
(289,575,l)
);
}
);
width = 750;
}
);
metricLeft = V;
metricRight = V;
unicode = 65;
userData = {
KernOnName = A;
};
},
{
color = 4;
glyphname = AE;
kernLeft = KO_AE;
kernRight = KO_AE;
lastChange = "2024-01-09 04:09:45 +0000";
layers = (
{
anchors = (
{
name = bottom;
pos = (442,0);
},
{
name = top;
pos = (442,690);
}
);
background = {
shapes = (
{
closed = 1;
nodes = (
(815,0,l),
(815,59,l),
(474,43,l),
(474,0,l)
);
},
{
closed = 1;
nodes = (
(855,0,l),
(861,167,l),
(845,167,l),
(720,41,l),
(720,0,l)
);
},
{
closed = 1;
nodes = (
(730,388,l),
(465,377,l),
(465,334,l),
(730,324,l)
);
},
{
closed = 1;
nodes = (
(762,261,l),
(762,451,l),
(746,451,l),
(666,375,l),
(666,337,l),
(746,261,l)
);
},
{
closed = 1;
nodes = (
(815,690,l),
(474,690,l),
(474,647,l),
(815,631,l)
);
},
{
closed = 1;
nodes = (
(849,546,l),
(843,698,l),
(832,698,l),
(719,690,l),
(719,646,l),
(833,546,l)
);
}
);
};
guides = (
{
pos = (228,75);
}
);
layerId = m01;
shapes = (
{
closed = 1;
nodes = (
(231,0,l),
(231,17,l),
(104,102,l),
(117,13,l),
(408,639,l),
(380,639,l),
(502,13,l),
(525,96,l),
(395,16,l),
(395,0,l),
(599,0,l),
(465,690,l),
(390,690,l),
(26,13,l),
(74,90,l),
(2,16,l),
(2,0,l)
);
},
{
closed = 1;
nodes = (
(506,217,l),
(506,267,l),
(192,267,l),
(192,217,l)
);
},
{
closed = 1;
nodes = (
(832,0,l),
(832,59,l),
(550,41,l),
(550,0,l)
);
},
{
closed = 1;
nodes = (
(872,0,l),
(878,167,l),
(862,167,l),
(737,41,l),
(737,0,l)
);
},
{
closed = 1;
nodes = (
(750,390,l),
(489,379,l),
(489,336,l),
(750,326,l)
);
},
{
closed = 1;
nodes = (
(407,690,l),
(279,690,l),
(279,674,l),
(371,609,l)
);
},
{
closed = 1;
nodes = (
(782,263,l),
(782,453,l),
(766,453,l),
(686,377,l),
(686,339,l),
(766,263,l)
);
},
{
closed = 1;
nodes = (
(817,690,l),
(407,690,l),
(407,645,l),
(817,631,l)
);
},
{
closed = 1;
nodes = (
(851,546,l),
(845,698,l),
(834,698,l),
(721,690,l),
(721,646,l),
(835,546,l)
);
}
);
width = 923;
},
{
anchors = (
{
name = bottom;
pos = (504,0);
},
{
name = top;
pos = (504,690);
}
);
guides = (
{
pos = (108,87);
}
);
layerId = m002;
shapes = (
{
closed = 1;
nodes = (
(285,0,l),
(285,24,l),
(193,102,l),
(179,13,l),
(424,592,l),
(416,592,l),
(516,13,l),
(524,106,l),
(432,24,l),
(432,0,l),
(708,0,l),
(589,690,l),
(426,690,l),
(12,13,l),
(77,110,l),
(2,24,l),
(2,0,l)
);
},
{
closed = 1;
nodes = (
(527,207,l),
(527,267,l),
(207,267,l),
(207,207,l)
);
},
{
closed = 1;
nodes = (
(952,0,l),
(952,75,l),
(653,43,l),
(653,0,l)
);
},
{
closed = 1;
nodes = (
(985,0,l),
(991,188,l),
(964,188,l),
(803,47,l),
(803,0,l)
);
},
{
closed = 1;
nodes = (
(861,400,l),
(591,383,l),
(591,336,l),
(861,320,l)
);
},
{
closed = 1;
nodes = (
(453,690,l),
(296,690,l),
(296,666,l),
(400,568,l)
);
},
{
closed = 1;
nodes = (
(889,248,l),
(889,472,l),
(862,472,l),
(764,381,l),
(764,339,l),
(862,248,l)
);
},
{
closed = 1;
nodes = (
(932,690,l),
(511,690,l),
(511,640,l),
(932,615,l)
);
},
{
closed = 1;
nodes = (
(951,518,l),
(951,706,l),
(931,706,l),
(774,690,l),
(774,643,l),
(924,518,l)
);
}
);
width = 1023;
},
{
anchors = (
{
name = bottom;
pos = (472,0);
},
{
name = top;
pos = (472,690);
}
);
associatedMasterId = m01;
background = {
shapes = (
{
closed = 1;
nodes = (
(845,0,l),
(845,59,l),
(504,43,l),
(504,0,l)
);
},
{
closed = 1;
nodes = (
(885,0,l),
(891,167,l),
(875,167,l),
(750,41,l),
(750,0,l)
);
},
{
closed = 1;
nodes = (
(760,388,l),
(495,377,l),
(495,334,l),
(760,324,l)
);
},
{
closed = 1;
nodes = (
(792,261,l),
(792,451,l),
(776,451,l),
(696,375,l),
(696,337,l),
(776,261,l)
);
},
{
closed = 1;
nodes = (
(845,690,l),
(504,690,l),
(504,647,l),
(845,631,l)
);
},
{
closed = 1;
nodes = (
(879,546,l),
(873,698,l),
(862,698,l),
(749,690,l),
(749,646,l),
(863,546,l)
);
}
);
};
layerId = "E7B1B7AB-9375-4AFF-A5ED-FD76B2F94673";
name = "23 Nov 23 at 09:27";
shapes = (
{
closed = 1;
nodes = (
(250,0,l),
(250,16,l),
(120,97,l),
(127,13,l),
(400,639,l),
(370,639,l),
(532,13,l),
(550,96,l),
(420,16,l),
(420,0,l),
(635,0,l),
(457,690,l),
(380,690,l),
(36,13,l),
(88,93,l),
(2,16,l),
(2,0,l)
);
},
{
closed = 1;
nodes = (
(542,228,l),
(542,278,l),
(196,278,l),
(196,228,l)
);
},
{
closed = 1;
nodes = (
(852,0,l),
(852,59,l),
(580,41,l),
(580,0,l)
);
},
{
closed = 1;
nodes = (
(397,690,l),
(262,690,l),
(262,674,l),
(361,609,l)
);
},
{
closed = 1;
nodes = (
(892,0,l),
(898,167,l),
(882,167,l),
(757,41,l),
(757,0,l)
);
},
{
closed = 1;
nodes = (
(777,390,l),
(519,379,l),
(519,336,l),
(777,326,l)
);
},
{
closed = 1;
nodes = (
(809,263,l),
(809,453,l),
(793,453,l),
(713,377,l),
(713,339,l),
(793,263,l)
);
},
{
closed = 1;
nodes = (
(832,690,l),
(437,690,l),
(437,645,l),
(832,631,l)
);
},
{
closed = 1;
nodes = (
(866,546,l),
(860,698,l),
(849,698,l),
(736,690,l),
(736,646,l),
(850,546,l)
);
}
);
width = 943;
},
{
anchors = (
{
name = bottom;
pos = (525,0);
},
{
name = top;
pos = (525,690);
}
);
associatedMasterId = m002;
layerId = "D2847CDB-FEB5-4796-9C37-8F36B0CE7994";
name = "23 Nov 23 at 09:27";
shapes = (
{
closed = 1;
nodes = (
(271,0,l),
(271,24,l),
(179,105,l),
(168,13,l),
(405,592,l),
(397,592,l),
(537,13,l),
(540,106,l),
(448,24,l),
(448,0,l),
(732,0,l),
(565,690,l),
(407,690,l),
(13,13,l),
(76,111,l),
(2,24,l),
(2,0,l)
);
},
{
closed = 1;
nodes = (
(548,207,l),
(548,267,l),
(228,267,l),
(228,207,l)
);
},
{
closed = 1;
nodes = (
(978,0,l),
(978,75,l),
(674,43,l),
(674,0,l)
);
},
{
closed = 1;
nodes = (
(434,690,l),
(284,690,l),
(284,666,l),
(381,568,l)
);
},
{
closed = 1;
nodes = (
(1011,0,l),
(1017,188,l),
(990,188,l),
(829,47,l),
(829,0,l)
);
},
{
closed = 1;
nodes = (
(887,400,l),
(612,383,l),
(612,336,l),
(887,320,l)
);
},
{
closed = 1;
nodes = (
(915,248,l),
(915,472,l),
(888,472,l),
(790,381,l),
(790,339,l),
(888,248,l)
);
},
{
closed = 1;
nodes = (
(958,690,l),
(532,690,l),
(532,640,l),
(958,615,l)
);
},
{
closed = 1;
nodes = (
(977,518,l),
(977,706,l),
(957,706,l),
(800,690,l),
(800,643,l),
(950,518,l)
);
}
);
width = 1049;
}
);
metricLeft = "=A";
metricRight = "=E";
unicode = 198;
},
{
color = 4;
glyphname = B;
kernLeft = KO_H;
kernRight = KO_B;
lastChange = "2024-02-04 05:23:04 +0000";
layers = (
{
layerId = m01;
shapes = (
{
closed = 1;
nodes = (
(332,0,ls),
(498,0,o),
(602,85,o),
(602,220,cs),
(602,324,o),
(506,390,o),
(352,390,cs),
(187,390,l),
(187,340,l),
(342,340,ls),
(441,340,o),
(497,288,o),
(497,194,cs),
(497,106,o),
(433,50,o),
(332,50,cs),
(187,50,l),
(187,0,l)
);
},
{
closed = 1;
nodes = (
(205,0,l),
(205,690,l),
(30,690,l),
(30,674,l),
(109,615,l),
(109,75,l),
(30,16,l),
(30,0,l)
);
},
{
closed = 1;
nodes = (
(458,367,l),
(458,395,l),
(412,395,l),
(412,367,l)
);
},
{
closed = 1;
nodes = (
(337,364,ls),
(483,364,o),
(565,426,o),
(565,536,cs),
(565,635,o),
(476,690,o),
(317,690,cs),
(152,690,l),
(152,640,l),
(307,640,ls),
(411,640,o),
(462,597,o),
(462,510,cs),
(462,433,o),
(417,390,o),
(337,390,c),
(220,390,l),
(220,364,l)
);
}
);
width = 647;
},
{
layerId = m002;
shapes = (
{
closed = 1;
nodes = (
(326,0,ls),
(573,0,o),
(695,70,o),
(695,211,cs),
(695,329,o),
(604,387,o),
(419,387,cs),
(213,387,l),
(213,337,l),
(351,337,ls),
(434,337,o),
(481,289,o),
(481,203,cs),
(481,107,o),
(428,60,o),
(322,60,cs),
(185,60,l),
(185,0,l)
);
},
{
closed = 1;
nodes = (
(291,0,l),
(291,690,l),
(26,690,l),
(26,666,l),
(95,597,l),
(95,93,l),
(26,24,l),
(26,0,l)
);
},
{
closed = 1;
nodes = (
(497,373,l),
(497,411,l),
(461,411,l),
(461,373,l)
);
},
{
closed = 1;
nodes = (
(357,376,ls),
(563,376,o),
(653,424,o),
(653,535,cs),
(653,643,o),
(564,690,o),
(361,690,cs),
(203,690,l),
(203,630,l),
(340,630,ls),
(419,630,o),
(458,591,o),
(458,513,cs),
(458,449,o),
(427,409,o),
(371,402,cs),
(201,382,l),
(201,376,l)
);
}
);
width = 727;
},
{
associatedMasterId = m002;
layerId = "8C32BF93-8A24-4AE5-A938-9894639337BC";
name = "29 Oct 23 at 22:56";
shapes = (
{
closed = 1;
nodes = (
(326,0,ls),
(563,0,o),
(695,76,o),
(695,211,cs),
(695,329,o),
(604,387,o),
(419,387,cs),
(213,387,l),
(213,337,l),
(351,337,ls),
(434,337,o),
(481,289,o),
(481,203,cs),
(481,107,o),
(428,60,o),
(322,60,cs),
(185,60,l),
(185,0,l)
);
},
{
closed = 1;
nodes = (
(291,0,l),
(291,690,l),
(26,690,l),
(26,666,l),
(95,597,l),
(95,93,l),
(26,24,l),
(26,0,l)
);
},
{
closed = 1;
nodes = (
(465,373,l),
(465,411,l),
(429,411,l),
(429,373,l)
);
},
{
closed = 1;
nodes = (
(285,376,ls),
(516,376,o),
(645,438,o),
(645,548,cs),
(645,643,o),
(548,690,o),
(353,690,cs),
(195,690,l),
(195,630,l),
(332,630,ls),
(411,630,o),
(450,591,o),
(450,513,cs),
(450,446,o),
(423,409,o),
(368,402,cs),
(193,379,l),
(193,376,l)
);
}
);
width = 731;
},
{
associatedMasterId = m002;
layerId = "65EC8FCD-7400-4E0E-893F-AE80A0B46AD1";
name = "10 Nov 23 at 21:11";
shapes = (
{
closed = 1;
nodes = (
(326,0,ls),
(563,0,o),
(695,76,o),
(695,211,cs),
(695,329,o),
(604,387,o),
(419,387,cs),
(213,387,l),
(213,337,l),
(351,337,ls),
(434,337,o),
(481,289,o),
(481,203,cs),
(481,107,o),
(428,60,o),
(322,60,cs),
(185,60,l),
(185,0,l)
);
},
{
closed = 1;
nodes = (
(291,0,l),
(291,690,l),
(26,690,l),
(26,666,l),
(95,597,l),
(95,93,l),
(26,24,l),
(26,0,l)
);
},
{
closed = 1;
nodes = (
(476,373,l),
(476,411,l),
(440,411,l),
(440,373,l)
);
},
{
closed = 1;
nodes = (
(322,376,ls),
(543,376,o),
(653,433,o),
(653,548,cs),
(653,643,o),
(556,690,o),
(361,690,cs),
(203,690,l),
(203,630,l),
(340,630,ls),
(419,630,o),
(458,591,o),
(458,513,cs),
(458,446,o),
(433,410,o),
(382,403,cs),
(201,382,l),
(201,376,l)
);
}
);
width = 731;
}
);
metricLeft = "=H";
metricRight = "=O";
unicode = 66;
userData = {
KernOnName = B;
};
},
{
color = 4;
glyphname = C;
kernLeft = KO_C;
kernRight = KO_C;
lastChange = "2024-02-04 05:23:03 +0000";
layers = (
{
anchors = (
{
name = bottom;
pos = (394,0);
},
{
name = top;
pos = (398,690);
}
);
background = {
shapes = (
{
closed = 1;
nodes = (
(584,-16,o),
(728,136,o),
(728,352,cs),
(728,563,o),
(590,706,o),
(393,706,cs),
(189,706,o),
(45,554,o),
(45,338,cs),
(45,127,o),
(183,-16,o),
(380,-16,cs)
);
},
{
closed = 1;
nodes = (
(246,41,o),
(150,164,o),
(150,359,cs),
(150,537,o),
(237,649,o),
(375,649,cs),
(527,649,o),
(623,526,o),
(623,331,cs),
(623,153,o),
(536,41,o),
(398,41,cs)
);
}
);
};
layerId = m01;
shapes = (
{
closed = 1;
nodes = (
(502,-16,o),
(593,41,o),
(649,143,c),
(614,163,l),
(554,80,o),
(488,43,o),
(398,43,cs),
(252,43,o),
(150,171,o),
(150,354,cs),
(150,527,o),
(248,649,o),
(388,649,cs),
(460,649,o),
(510,625,o),
(540,577,c),
(540,672,l),
(448,672,l),
(553,524,l),
(569,524,l),
(639,636,l),
(584,677,o),
(483,706,o),
(396,706,cs),
(199,706,o),
(45,542,o),
(45,333,cs),
(45,119,o),
(180,-16,o),
(394,-16,cs)
);
}
);
width = 694;
},
{
associatedMasterId = m01;
layerId = "FF84DA91-87F1-4B12-A336-B0BA15A5C589";
name = "22 Aug 23 at 19:00";
shapes = (
{
closed = 1;
nodes = (
(507,-16,o),
(605,42,o),
(656,147,c),
(625,164,l),
(568,81,o),
(500,45,o),
(401,45,cs),
(239,45,o),
(138,170,o),
(138,369,cs),
(138,542,o),
(231,650,o),
(378,650,cs),
(454,650,o),
(506,631,o),
(548,589,c),
(548,659,l),
(470,659,l),
(561,512,l),
(577,512,l),
(636,642,l),
(581,683,o),
(495,706,o),
(396,706,cs),
(188,706,o),
(42,552,o),
(42,333,cs),
(42,128,o),
(183,-16,o),
(383,-16,cs)
);
}
);
width = 698;
},
{
associatedMasterId = m01;
layerId = "DCA530CF-AEC9-40EC-B436-3B882F2ED0AF";
name = "24 Aug 23 at 13:47";
shapes = (
{
closed = 1;
nodes = (
(514,-16,o),
(599,34,o),
(669,147,c),
(630,168,l),
(572,87,o),
(498,47,o),
(406,47,cs),
(252,47,o),
(155,171,o),
(155,369,cs),
(155,541,o),
(243,649,o),
(383,649,cs),
(452,649,o),
(499,635,o),
(539,602,c),
(539,672,l),
(473,672,l),
(579,517,l),
(595,517,l),
(646,644,l),
(581,685,o),
(500,706,o),
(401,706,cs),
(204,706,o),
(50,542,o),
(50,333,cs),
(50,138,o),
(199,-16,o),
(388,-16,cs)
);
}
);
width = 719;
},
{
associatedMasterId = m002;
layerId = "FD08D04A-80CC-40C7-806D-5A4BAF50979B";
name = "7 Oct 23 at 10:49";
shapes = (
{
closed = 1;
nodes = (
(524,-16,o),
(635,48,o),
(683,150,c),
(644,171,l),
(593,109,o),
(529,79,o),
(452,79,cs),
(322,79,o),
(241,191,o),
(241,369,cs),
(241,525,o),
(324,634,o),
(442,634,cs),
(479,634,o),
(515,622,o),
(551,597,c),
(551,663,l),
(418,663,l),
(574,470,l),
(598,470,l),
(679,619,l),
(606,677,o),
(517,706,o),
(409,706,cs),
(200,706,o),
(36,537,o),
(36,323,cs),
(36,124,o),
(185,-16,o),
(396,-16,cs)
);
}
);
width = 719;
},
{
associatedMasterId = m002;
guides = (
{
angle = 90;
pos = (673,156);
}
);
layerId = "A7AB8324-320B-404C-8365-58E769A2FB41";
name = "10 Oct 23 at 17:07";
shapes = (
{
closed = 1;
nodes = (
(519,-16,o),
(632,55,o),
(673,156,c),
(634,177,l),
(591,120,o),
(528,91,o),
(444,91,cs),
(316,91,o),
(245,184,o),
(245,350,cs),
(245,517,o),
(326,634,o),
(441,634,cs),
(478,634,o),
(514,622,o),
(550,597,c),
(550,663,l),
(417,663,l),
(568,473,l),
(595,473,l),
(673,614,l),
(601,676,o),
(516,706,o),
(418,706,cs),
(193,706,o),
(34,548,o),
(34,323,cs),
(34,124,o),
(185,-16,o),
(399,-16,cs)
);
}
);
width = 707;
},
{
associatedMasterId = m002;
guides = (
{
angle = 90;
pos = (673,156);
}
);
layerId = "4B744737-7E10-4739-B3D0-654F257092DE";
name = "11 Oct 23 at 11:49";
shapes = (
{
closed = 1;
nodes = (
(519,-16,o),
(632,55,o),
(673,156,c),
(634,177,l),
(591,120,o),
(528,91,o),
(444,91,cs),
(316,91,o),
(245,184,o),
(245,350,cs),
(245,517,o),
(326,634,o),
(441,634,cs),
(478,634,o),
(514,622,o),
(550,597,c),
(550,663,l),
(417,663,l),
(568,473,l),
(595,473,l),
(673,614,l),
(601,676,o),
(516,706,o),
(418,706,cs),
(193,706,o),
(34,548,o),
(34,323,cs),
(34,124,o),
(185,-16,o),
(399,-16,cs)
);
}
);
width = 707;
},
{
associatedMasterId = m002;
guides = (
{
angle = 90;
pos = (671,156);
}
);
layerId = "C85D32B9-4516-4B6D-BAD2-682BB10AC02A";
name = "15 Oct 23 at 14:50";
shapes = (
{
closed = 1;
nodes = (
(519,-16,o),
(630,55,o),
(671,156,c),
(632,177,l),
(594,130,o),
(538,104,o),
(476,104,cs),
(337,104,o),
(249,204,o),
(249,364,cs),
(249,515,o),
(333,634,o),
(439,634,cs),
(476,634,o),
(512,622,o),
(548,597,c),
(548,663,l),
(415,663,l),
(566,473,l),
(593,473,l),
(671,614,l),
(600,676,o),
(517,706,o),
(422,706,cs),
(185,706,o),
(36,561,o),
(36,330,cs),
(36,127,o),
(188,-16,o),
(403,-16,cs)
);
}
);
width = 707;
},
{
associatedMasterId = m002;
guides = (
{
angle = 90;
pos = (671,156);
}
);
layerId = "876F2014-B0F4-47BD-BD04-16CED044A4A9";
name = "27 Oct 23 at 19:13";
shapes = (
{
closed = 1;
nodes = (
(517,-16,o),
(628,50,o),
(671,156,c),
(632,177,l),
(594,130,o),
(538,104,o),
(476,104,cs),
(337,104,o),
(249,204,o),
(249,364,cs),
(249,515,o),
(333,634,o),
(439,634,cs),
(476,634,o),
(512,622,o),
(548,597,c),
(548,663,l),
(415,663,l),
(566,473,l),
(593,473,l),
(671,614,l),
(600,676,o),
(517,706,o),
(422,706,cs),
(185,706,o),
(36,561,o),
(36,330,cs),
(36,127,o),
(179,-16,o),
(383,-16,cs)
);
}
);
width = 707;
},
{
associatedMasterId = m01;
layerId = "E31D7688-E2B2-491C-A922-3EAD9624CB81";
name = "10 Nov 23 at 22:29";
shapes = (
{
closed = 1;
nodes = (
(503,-16,o),
(598,41,o),
(654,143,c),
(619,163,l),
(559,80,o),
(493,43,o),
(403,43,cs),
(251,43,o),
(155,169,o),
(155,369,cs),
(155,533,o),
(249,649,o),
(383,649,cs),
(458,649,o),
(501,632,o),
(539,586,c),
(539,672,l),
(446,672,l),
(579,517,l),
(595,517,l),
(646,626,l),
(586,677,o),
(498,706,o),
(401,706,cs),
(204,706,o),
(50,542,o),
(50,333,cs),
(50,119,o),
(181,-16,o),
(389,-16,cs)
);
}
);
width = 704;
},
{
associatedMasterId = m002;
guides = (
{
angle = 90;
pos = (667,156);
}
);
layerId = "257C914B-DFBA-4479-9EA1-21609B1E07ED";
name = "11 Nov 23 at 08:29";
shapes = (
{
closed = 1;
nodes = (
(522,-16,o),
(633,52,o),
(674,160,c),
(635,181,l),
(600,134,o),
(541,104,o),
(479,104,cs),
(335,104,o),
(245,204,o),
(245,364,cs),
(245,515,o),
(329,634,o),
(435,634,cs),
(482,634,o),
(521,609,o),
(544,565,c),
(544,663,l),
(411,663,l),
(562,473,l),
(589,473,l),
(667,614,l),
(596,676,o),
(513,706,o),
(418,706,cs),
(181,706,o),
(32,561,o),
(32,330,cs),
(32,117,o),
(169,-16,o),
(386,-16,cs)
);
}
);
width = 706;
},
{
anchors = (
{
name = bottom;
pos = (351,0);
},
{
name = top;
pos = (418,690);
}
);
guides = (
{
angle = 90;
pos = (669,156);
}
);
layerId = m002;
name = "Extra Bold";
shapes = (
{
closed = 1;
nodes = (
(519,-16,o),
(626,50,o),
(669,156,c),
(630,177,l),
(592,130,o),
(536,104,o),
(474,104,cs),
(333,104,o),
(245,204,o),
(245,364,cs),
(245,515,o),
(329,634,o),
(437,634,cs),
(484,634,o),
(523,609,o),
(546,565,c),
(546,663,l),
(413,663,l),
(564,480,l),
(591,480,l),
(669,632,l),
(592,679,o),
(503,706,o),
(420,706,cs),
(182,706,o),
(32,561,o),
(32,330,cs),
(32,117,o),
(170,-16,o),
(391,-16,cs)
);
}
);
width = 701;
},
{
associatedMasterId = m01;
background = {
anchors = (
{
name = bottom;
pos = (419,0);
},
{
name = center;
pos = (387,345);
},
{
name = ogonek;
pos = (700,10);
},
{
name = qtail;
pos = (451,0);
},
{
name = top;
pos = (387,690);
},
{
name = topleft;
pos = (15,690);
},
{
name = topright;
pos = (758,690);
}
);
shapes = (
{
closed = 1;
nodes = (
(584,-16,o),
(728,136,o),
(728,352,cs),
(728,563,o),
(590,706,o),
(393,706,cs),
(189,706,o),
(45,554,o),
(45,338,cs),
(45,127,o),
(183,-16,o),
(380,-16,cs)
);
},
{
closed = 1;
nodes = (
(246,41,o),
(150,164,o),
(150,359,cs),
(150,537,o),
(237,649,o),
(375,649,cs),
(527,649,o),
(623,526,o),
(623,331,cs),
(623,153,o),
(536,41,o),
(398,41,cs)
);
}
);
};
layerId = "17D751EA-3F18-495B-A2B0-140FE7CB2137";
name = "14 Nov 23 at 14:04";
shapes = (
{
closed = 1;
nodes = (
(498,-16,o),
(593,41,o),
(649,143,c),
(614,163,l),
(554,80,o),
(488,43,o),
(398,43,cs),
(252,43,o),
(150,171,o),
(150,354,cs),
(150,527,o),
(248,649,o),
(388,649,cs),
(453,649,o),
(498,630,o),
(534,586,c),
(534,672,l),
(441,672,l),
(574,517,l),
(590,517,l),
(641,626,l),
(581,677,o),
(493,706,o),
(396,706,cs),
(199,706,o),
(45,542,o),
(45,333,cs),
(45,119,o),
(176,-16,o),
(384,-16,cs)
);
}
);
width = 694;
},
{
associatedMasterId = m01;
background = {
anchors = (
{
name = bottom;
pos = (419,0);
},
{
name = center;
pos = (387,345);
},
{
name = ogonek;
pos = (700,10);
},
{
name = qtail;
pos = (451,0);
},
{
name = top;
pos = (387,690);
},
{
name = topleft;
pos = (15,690);
},
{
name = topright;
pos = (758,690);
}
);
shapes = (
{
closed = 1;
nodes = (
(611,-16,o),
(767,136,o),
(767,352,cs),
(767,550,o),
(606,706,o),
(402,706,cs),
(198,706,o),
(54,554,o),
(54,338,cs),
(54,127,o),
(192,-16,o),
(389,-16,cs)
);
},
{
closed = 1;
nodes = (
(255,41,o),
(159,164,o),
(159,359,cs),
(159,537,o),
(246,649,o),
(384,649,cs),
(547,649,o),
(662,518,o),
(662,331,cs),
(662,161,o),
(557,41,o),
(407,41,cs)
);
}
);
};
layerId = "8BF1723F-E548-46D7-A45C-F693D7606CD5";
name = "14 Nov 23 at 14:15";
shapes = (
{
closed = 1;
nodes = (
(502,-16,o),
(593,41,o),
(649,143,c),
(614,163,l),
(554,80,o),
(488,43,o),
(398,43,cs),
(252,43,o),
(150,171,o),
(150,354,cs),
(150,527,o),
(248,649,o),
(388,649,cs),
(453,649,o),
(498,630,o),
(534,586,c),
(534,655,l),
(456,655,l),
(557,517,l),
(573,517,l),
(640,623,l),
(570,678,o),
(489,706,o),
(396,706,cs),
(199,706,o),
(45,542,o),
(45,333,cs),
(45,119,o),
(180,-16,o),
(394,-16,cs)
);
}
);
width = 694;
},
{
associatedMasterId = m002;
guides = (
{
angle = 90;
pos = (667,156);
}
);
layerId = "B608DC97-0A90-4FB4-991B-441D80F7EBAD";
name = "14 Nov 23 at 16:58";
shapes = (
{
closed = 1;
nodes = (
(513,-16,o),
(624,50,o),
(667,156,c),
(628,177,l),
(590,130,o),
(534,104,o),
(472,104,cs),
(333,104,o),
(245,204,o),
(245,364,cs),
(245,515,o),
(329,634,o),
(435,634,cs),
(482,634,o),
(521,609,o),
(544,565,c),
(544,663,l),
(411,663,l),
(562,473,l),
(589,473,l),
(667,614,l),
(596,676,o),
(513,706,o),
(418,706,cs),
(181,706,o),
(32,561,o),
(32,330,cs),
(32,117,o),
(166,-16,o),
(379,-16,cs)
);
}
);
width = 699;
}
);
metricLeft = "=O";
metricRight = "=O";
unicode = 67;
userData = {
KernOnName = C;
};
},
{
color = 4;
glyphname = D;
kernLeft = KO_H;
kernRight = KO_D;
lastChange = "2024-02-04 05:23:03 +0000";
layers = (
{
anchors = (
{
name = bottom;
pos = (334,0);
},
{
name = center;
pos = (198,354);
},
{
name = top;
pos = (342,690);
}
);
guides = (
{
pos = (325,345);
},
{
angle = 90;
pos = (30,434);
}
);
layerId = m01;
shapes = (
{
closed = 1;
nodes = (
(322,0,ls),
(538,0,o),
(690,147,o),
(690,357,cs),
(690,553,o),
(546,690,o),
(342,690,cs),
(177,690,l),
(177,640,l),
(332,640,ls),
(487,640,o),
(585,521,o),
(585,331,cs),
(585,151,o),
(491,50,o),
(322,50,cs),
(177,50,l),
(177,0,l)
);
},
{
closed = 1;
nodes = (
(205,0,l),
(205,690,l),
(30,690,l),
(30,674,l),
(109,615,l),
(109,75,l),
(30,16,l),
(30,0,l)
);
}
);
width = 735;
},
{
associatedMasterId = m01;
layerId = "FA5023BE-B049-482D-861D-576E181B670A";
name = "22 Aug 23 at 12:10";
shapes = (
{
closed = 1;
nodes = (
(301,0,ls),
(540,0,o),
(708,147,o),
(708,357,cs),
(708,562,o),
(556,690,o),
(313,690,cs),
(193,690,l),
(193,639,l),
(287,639,ls),
(504,639,o),
(612,535,o),
(612,325,cs),
(612,150,o),
(502,52,o),
(305,52,cs),
(193,52,l),
(193,0,l)
);
},
{
closed = 1;
nodes = (
(217,0,l),
(217,690,l),
(46,690,l),
(46,674,l),
(125,617,l),
(125,73,l),
(46,16,l),
(46,0,l)
);
}
);
width = 750;
},
{
anchors = (
{
name = bottom;
pos = (378,0);
},
{
name = center;
pos = (225,352);
},
{
name = top;
pos = (373,690);
}
);
guides = (
{
angle = 90;
pos = (318,345);
},
{
pos = (318,345);
},
{
angle = 90;
pos = (26,436);
}
);
layerId = m002;
shapes = (
{
closed = 1;
nodes = (
(356,0,ls),
(602,0,o),
(775,146,o),
(775,353,cs),
(775,560,o),
(620,690,o),
(373,690,cs),
(215,690,l),
(215,630,l),
(352,630,ls),
(480,630,o),
(561,520,o),
(561,345,cs),
(561,170,o),
(480,60,o),
(352,60,cs),
(215,60,l),
(215,0,l)
);
},
{
closed = 1;
nodes = (
(291,0,l),
(291,690,l),
(26,690,l),
(26,666,l),
(95,597,l),
(95,93,l),
(26,24,l),
(26,0,l)
);
}
);
width = 807;
},
{
associatedMasterId = m002;
layerId = "8299D61C-C4DB-448F-85E1-F5454371D085";
name = "7 Oct 23 at 08:22";
shapes = (
{
closed = 1;
nodes = (
(328,0,ls),
(565,0,o),
(752,161,o),
(752,367,cs),
(752,565,o),
(595,690,o),
(345,690,cs),
(207,690,l),
(207,630,l),
(320,630,ls),
(466,630,o),
(547,519,o),
(547,321,cs),
(547,161,o),
(457,60,o),
(314,60,cs),
(207,60,l),
(207,0,l)
);
},
{
closed = 1;
nodes = (
(287,0,l),
(287,690,l),
(22,690,l),
(22,666,l),
(91,597,l),
(91,93,l),
(22,24,l),
(22,0,l)
);
}
);
width = 788;
},
{
associatedMasterId = m002;
guides = (
{
angle = 90;
pos = (316,345);
},
{
pos = (316,345);
}
);
layerId = "52B66C4D-9C34-44AE-824D-ED2AF1D7F876";
name = "7 Oct 23 at 18:34";
shapes = (
{
closed = 1;
nodes = (
(330,0,ls),
(574,0,o),
(766,158,o),
(766,359,cs),
(766,562,o),
(604,690,o),
(347,690,cs),
(209,690,l),
(209,630,l),
(322,630,ls),
(466,630,o),
(556,520,o),
(556,345,cs),
(556,162,o),
(470,60,o),
(316,60,cs),
(209,60,l),
(209,0,l)
);
},
{
closed = 1;
nodes = (
(289,0,l),
(289,690,l),
(24,690,l),
(24,666,l),
(93,597,l),
(93,93,l),
(24,24,l),
(24,0,l)
);
}
);
width = 800;
},
{
associatedMasterId = m002;
guides = (
{
angle = 90;
pos = (316,345);
},
{
pos = (316,345);
}
);
layerId = "BA4A45DE-3B7F-4C3C-86D0-8374433645CB";
name = "10 Oct 23 at 17:07";
shapes = (
{
closed = 1;
nodes = (
(330,0,ls),
(575,0,o),
(767,158,o),
(767,359,cs),
(767,562,o),
(605,690,o),
(347,690,cs),
(209,690,l),
(209,630,l),
(322,630,ls),
(465,630,o),
(555,520,o),
(555,345,cs),
(555,162,o),
(469,60,o),
(316,60,cs),
(209,60,l),
(209,0,l)
);
},
{
closed = 1;
nodes = (
(289,0,l),
(289,690,l),
(24,690,l),
(24,666,l),
(93,597,l),
(93,93,l),
(24,24,l),
(24,0,l)
);
}
);
width = 801;
},
{
associatedMasterId = m002;
guides = (
{
angle = 90;
pos = (316,345);
},
{
pos = (316,345);
}
);
layerId = "A00FC461-3F32-490D-8514-95A716E84736";
name = "11 Oct 23 at 11:44";
shapes = (
{
closed = 1;
nodes = (
(359,0,ls),
(602,0,o),
(773,151,o),
(773,365,cs),
(773,565,o),
(620,690,o),
(376,690,cs),
(213,690,l),
(213,630,l),
(351,630,ls),
(479,630,o),
(559,520,o),
(559,345,cs),
(559,162,o),
(482,60,o),
(345,60,cs),
(213,60,l),
(213,0,l)
);
},
{
closed = 1;
nodes = (
(289,0,l),
(289,690,l),
(24,690,l),
(24,666,l),
(93,597,l),
(93,93,l),
(24,24,l),
(24,0,l)
);
}
);
width = 807;
},
{
associatedMasterId = m002;
guides = (
{
angle = 90;
pos = (318,345);
},
{
pos = (318,345);
}
);
layerId = "249883B7-DB7C-4C96-AE87-CE9ED6137E8D";
name = "20 Oct 23 at 17:01";
shapes = (
{
closed = 1;
nodes = (
(356,0,ls),
(602,0,o),
(775,147,o),
(775,355,cs),
(775,561,o),
(620,690,o),
(373,690,cs),
(215,690,l),
(215,630,l),
(348,630,ls),
(479,630,o),
(561,520,o),
(561,345,cs),
(561,162,o),
(482,60,o),
(342,60,cs),
(215,60,l),
(215,0,l)
);
},
{
closed = 1;
nodes = (
(291,0,l),
(291,690,l),
(26,690,l),
(26,666,l),
(95,597,l),
(95,93,l),
(26,24,l),
(26,0,l)
);
}
);
width = 811;
},
{
associatedMasterId = m002;
guides = (
{
angle = 90;
pos = (318,345);
},
{
pos = (318,345);
}
);
layerId = "4850712F-A543-4827-B36B-B0CF78DC8FF3";
name = "27 Oct 23 at 19:18";
shapes = (
{
closed = 1;
nodes = (
(356,0,ls),
(602,0,o),
(775,144,o),
(775,350,cs),
(775,559,o),
(620,690,o),
(373,690,cs),
(215,690,l),
(215,630,l),
(352,630,ls),
(480,630,o),
(561,518,o),
(561,340,cs),
(561,160,o),
(482,60,o),
(342,60,cs),
(215,60,l),
(215,0,l)
);
},
{
closed = 1;
nodes = (
(291,0,l),
(291,690,l),
(26,690,l),
(26,666,l),
(95,597,l),
(95,93,l),
(26,24,l),
(26,0,l)
);
}
);
width = 811;
}
);
metricLeft = "=H";
metricRight = "=O";
unicode = 68;
userData = {
KernOnName = D;
};
},
{
color = 4;
glyphname = E;
kernLeft = KO_H;
kernRight = KO_E;
lastChange = "2024-02-04 05:23:03 +0000";
layers = (
{
anchors = (
{
name = bottom;
pos = (310,0);
},
{
name = ogonek;
pos = (455,0);
},
{
name = top;
pos = (310,690);
},
{
name = topleft;
pos = (20,690);
}
);
layerId = m01;
shapes = (
{
closed = 1;
nodes = (
(205,0,l),
(205,690,l),
(30,690,l),
(30,674,l),
(109,615,l),
(109,75,l),
(30,16,l),
(30,0,l)
);
},
{
closed = 1;
nodes = (
(528,0,l),
(528,59,l),
(187,43,l),
(187,0,l)
);
},
{
closed = 1;
nodes = (
(568,0,l),
(574,167,l),
(558,167,l),
(433,41,l),
(433,0,l)
);
},
{
closed = 1;
nodes = (
(443,388,l),
(178,377,l),
(178,334,l),
(443,324,l)
);
},
{
closed = 1;
nodes = (
(475,261,l),
(475,451,l),
(459,451,l),
(379,375,l),
(379,337,l),
(459,261,l)
);
},
{
closed = 1;
nodes = (
(528,690,l),
(187,690,l),
(187,647,l),
(528,631,l)
);
},
{
closed = 1;
nodes = (
(562,546,l),
(556,698,l),
(545,698,l),
(432,690,l),
(432,646,l),
(546,546,l)
);
}
);
width = 619;
},
{
associatedMasterId = m01;
layerId = "46645CCB-1EDC-43F2-B982-546AB978FA13";
name = "22 Aug 23 at 18:35";
shapes = (
{
closed = 1;
nodes = (
(217,0,l),
(217,690,l),
(46,690,l),
(46,674,l),
(125,617,l),
(125,73,l),
(46,16,l),
(46,0,l)
);
},
{
closed = 1;
nodes = (
(540,0,l),
(540,56,l),
(199,40,l),
(199,0,l)
);
},
{
closed = 1;
nodes = (
(580,0,l),
(591,165,l),
(575,165,l),
(463,41,l),
(463,0,l)
);
},
{
closed = 1;
nodes = (
(455,386,l),
(190,375,l),
(190,336,l),
(455,326,l)
);
},
{
closed = 1;
nodes = (
(540,690,l),
(199,690,l),
(199,650,l),
(540,634,l)
);
},
{
closed = 1;
nodes = (
(477,257,l),
(487,451,l),
(471,451,l),
(396,375,l),
(396,336,l),
(461,257,l)
);
},
{
closed = 1;
nodes = (
(572,546,l),
(568,696,l),
(557,696,l),
(459,690,l),
(459,646,l),
(556,546,l)
);
}
);
width = 660;
},
{
anchors = (
{
name = bottom;
pos = (320,0);
},
{
name = ogonek;
pos = (464,0);
},
{
name = top;
pos = (320,690);
},
{
name = topleft;
pos = (20,690);
}
);
guides = (
{
angle = 270;
pos = (223,669);
}
);
layerId = m002;
shapes = (
{
closed = 1;
nodes = (
(291,0,l),
(291,690,l),
(26,690,l),
(26,666,l),
(95,597,l),
(95,93,l),
(26,24,l),
(26,0,l)
);
},
{
closed = 1;
nodes = (
(569,0,l),
(569,75,l),
(233,48,l),
(233,0,l)
);
},
{
closed = 1;
nodes = (
(602,0,l),
(608,188,l),
(581,188,l),
(420,47,l),
(420,0,l)
);
},
{
closed = 1;
nodes = (
(484,396,l),
(233,378,l),
(233,333,l),
(484,316,l)
);
},
{
closed = 1;
nodes = (
(512,244,l),
(512,468,l),
(485,468,l),
(387,377,l),
(387,335,l),
(485,244,l)
);
},
{
closed = 1;
nodes = (
(569,690,l),
(233,690,l),
(233,642,l),
(569,615,l)
);
},
{
closed = 1;
nodes = (
(588,518,l),
(588,706,l),
(568,706,l),
(411,690,l),
(411,643,l),
(561,518,l)
);
}
);
width = 640;
},
{
associatedMasterId = m01;
layerId = "12FCFE73-9792-4E08-BBA0-751DB871D85E";
name = "15 Nov 23 at 14:09";
shapes = (
{
closed = 1;
nodes = (
(205,0,l),
(205,690,l),
(30,690,l),
(30,674,l),
(109,615,l),
(109,75,l),
(30,16,l),
(30,0,l)
);
},
{
closed = 1;
nodes = (
(528,0,l),
(528,59,l),
(187,43,l),
(187,0,l)
);
},
{
closed = 1;
nodes = (
(568,0,l),
(574,167,l),
(558,167,l),
(443,41,l),
(443,0,l)
);
},
{
closed = 1;
nodes = (
(443,388,l),
(178,377,l),
(178,334,l),
(443,324,l)
);
},
{
closed = 1;
nodes = (
(475,261,l),
(475,451,l),
(459,451,l),
(384,375,l),
(384,337,l),
(459,261,l)
);
},
{
closed = 1;
nodes = (
(528,690,l),
(187,690,l),
(187,647,l),
(528,631,l)
);
},
{
closed = 1;
nodes = (
(562,546,l),
(556,698,l),
(545,698,l),
(442,690,l),
(442,646,l),
(546,546,l)
);
}
);
width = 619;
},
{
associatedMasterId = m002;
guides = (
{
angle = 270;
pos = (223,669);
}
);
layerId = "70B5B155-7DA6-4AB9-9377-8E2D98DD58CB";
name = "15 Nov 23 at 14:14";
shapes = (
{
closed = 1;
nodes = (
(291,0,l),
(291,690,l),
(26,690,l),
(26,666,l),
(95,597,l),
(95,93,l),
(26,24,l),
(26,0,l)
);
},
{
closed = 1;
nodes = (
(569,0,l),
(569,75,l),
(233,48,l),
(233,0,l)
);
},
{
closed = 1;
nodes = (
(602,0,l),
(608,183,l),
(581,183,l),
(435,47,l),
(435,0,l)
);
},
{
closed = 1;
nodes = (
(484,396,l),
(233,378,l),
(233,333,l),
(484,316,l)
);
},
{
closed = 1;
nodes = (
(516,249,l),
(516,463,l),
(489,463,l),
(401,377,l),
(401,335,l),
(489,249,l)
);
},
{
closed = 1;
nodes = (
(569,690,l),
(233,690,l),
(233,642,l),
(569,615,l)
);
},
{
closed = 1;
nodes = (
(588,523,l),
(588,706,l),
(568,706,l),
(426,690,l),
(426,643,l),
(561,523,l)
);
}
);
width = 640;
}
);
metricLeft = "=H";
metricRight = "=O";
unicode = 69;
userData = {
KernOnName = E;
};
},
{
color = 4;
glyphname = Schwa;
kernRight = KO_O;
lastChange = "2024-01-09 04:09:41 +0000";
layers = (
{
background = {
shapes = (
{
closed = 1;
nodes = (
(206,705,o),
(106,656,o),
(44,570,c),
(76,536,l),
(129,586,o),
(197,611,o),
(282,611,cs),
(441,611,o),
(529,510,o),
(529,330,cs),
(529,173,o),
(450,62,o),
(337,62,cs),
(241,62,o),
(182,129,o),
(182,237,c),
(578,266,l),
(578,325,l),
(30,325,l),
(30,116,o),
(137,-16,o),
(307,-16,cs),
(515,-16,o),
(663,142,o),
(663,371,cs),
(663,565,o),
(525,705,o),
(326,705,cs)
);
}
);
};
layerId = m01;
shapes = (
{
closed = 1;
nodes = (
(513,-16,o),
(659,148,o),
(659,357,cs),
(659,571,o),
(528,706,o),
(320,706,cs),
(222,706,o),
(113,677,o),
(57,636,c),
(125,524,l),
(141,524,l),
(246,672,l),
(156,672,l),
(132,589,l),
(182,627,o),
(248,649,o),
(316,649,cs),
(463,649,o),
(555,528,o),
(555,336,cs),
(555,163,o),
(465,41,o),
(336,41,cs),
(234,41,o),
(154,141,o),
(154,269,c),
(573,282,l),
(573,325,l),
(45,325,l),
(45,116,o),
(154,-16,o),
(328,-16,cs)
);
}
);
width = 704;
},
{
layerId = m002;
shapes = (
{
closed = 1;
nodes = (
(572,-16,o),
(710,129,o),
(710,360,cs),
(710,563,o),
(558,706,o),
(343,706,cs),
(233,706,o),
(136,681,o),
(51,632,c),
(137,480,l),
(164,480,l),
(307,663,l),
(174,663,l),
(140,565,l),
(186,603,o),
(245,624,o),
(307,624,cs),
(424,624,o),
(497,509,o),
(497,326,cs),
(497,160,o),
(448,56,o),
(369,56,cs),
(303,56,o),
(256,132,o),
(256,241,c),
(552,288,l),
(552,336,l),
(32,336,l),
(32,110,o),
(147,-16,o),
(352,-16,cs)
);
}
);
width = 742;
},
{
associatedMasterId = m01;
background = {
shapes = (
{
closed = 1;
nodes = (
(206,705,o),
(106,656,o),
(44,570,c),
(76,536,l),
(129,586,o),
(197,611,o),
(282,611,cs),
(441,611,o),
(529,510,o),
(529,330,cs),
(529,173,o),
(450,62,o),
(337,62,cs),
(241,62,o),
(182,129,o),
(182,237,c),
(578,266,l),
(578,325,l),
(30,325,l),
(30,116,o),
(137,-16,o),
(307,-16,cs),
(515,-16,o),
(663,142,o),
(663,371,cs),
(663,565,o),
(525,705,o),
(326,705,cs)
);
}
);
};
layerId = "B22082BC-8FBA-4895-ACAA-AF02797CCF17";
name = "24 Nov 23 at 22:15";
shapes = (
{
closed = 1;
nodes = (
(45,116,o),
(154,-16,o),
(328,-16,cs),
(513,-16,o),
(659,148,o),
(659,357,cs),
(659,571,o),
(528,706,o),
(320,706,cs),
(211,706,o),
(109,645,o),
(55,547,c),
(90,527,l),
(146,604,o),
(227,647,o),
(316,647,cs),
(463,647,o),
(555,527,o),
(555,336,cs),
(555,163,o),
(465,41,o),
(336,41,cs),
(234,41,o),
(154,141,o),
(154,269,c),
(573,282,l),
(573,325,l),
(45,325,l)
);
}
);
width = 704;
},
{
associatedMasterId = m01;
background = {
shapes = (
{
closed = 1;
nodes = (
(206,705,o),
(106,656,o),
(44,570,c),
(76,536,l),
(129,586,o),
(197,611,o),
(282,611,cs),
(441,611,o),
(529,510,o),
(529,330,cs),
(529,173,o),
(450,62,o),
(337,62,cs),
(241,62,o),
(182,129,o),
(182,237,c),
(578,266,l),
(578,325,l),
(30,325,l),
(30,116,o),
(137,-16,o),
(307,-16,cs),
(515,-16,o),
(663,142,o),
(663,371,cs),
(663,565,o),
(525,705,o),
(326,705,cs)
);
}
);
};
layerId = "71D40913-55EA-4099-9AD8-4E00CA578CCA";
name = "29 Nov 23 at 11:16";
shapes = (
{
closed = 1;
nodes = (
(513,-16,o),
(659,148,o),
(659,357,cs),
(659,571,o),
(528,706,o),
(320,706,cs),
(222,706,o),
(113,677,o),
(57,636,c),
(125,524,l),
(141,524,l),
(246,672,l),
(156,672,l),
(132,589,l),
(182,627,o),
(248,649,o),
(316,649,cs),
(463,649,o),
(555,528,o),
(555,336,cs),
(555,163,o),
(465,41,o),
(336,41,cs),
(234,41,o),
(154,141,o),
(154,269,c),
(573,282,l),
(573,325,l),
(45,325,l),
(45,116,o),
(154,-16,o),
(328,-16,cs)
);
}
);
width = 704;
}
);
metricLeft = "=O";
metricRight = "=O";
unicode = 399;
},
{
color = 4;
glyphname = F;
kernLeft = KO_H;
kernRight = KO_F;
lastChange = "2024-02-04 05:23:04 +0000";
layers = (
{
layerId = m01;
shapes = (
{
closed = 1;
nodes = (
(314,0,l),
(314,16,l),
(205,75,l),
(205,690,l),
(30,690,l),
(30,674,l),
(109,615,l),
(109,75,l),
(30,16,l),
(30,0,l)
);
},
{
closed = 1;
nodes = (
(447,376,l),
(182,365,l),
(182,322,l),
(447,312,l)
);
},
{
closed = 1;
nodes = (
(469,249,l),
(469,439,l),
(453,439,l),
(373,363,l),
(373,325,l),
(453,249,l)
);
},
{
closed = 1;
nodes = (
(518,690,l),
(187,690,l),
(187,647,l),
(518,631,l)
);
},
{
closed = 1;
nodes = (
(547,546,l),
(541,698,l),
(530,698,l),
(417,690,l),
(417,646,l),
(531,546,l)
);
}
);
width = 592;
},
{
layerId = m002;
shapes = (
{
closed = 1;
nodes = (
(381,0,l),
(381,24,l),
(291,93,l),
(291,690,l),
(26,690,l),
(26,666,l),
(95,597,l),
(95,93,l),
(26,24,l),
(26,0,l)
);
},
{
closed = 1;
nodes = (
(474,384,l),
(233,366,l),
(233,321,l),
(474,304,l)
);
},
{
closed = 1;
nodes = (
(502,232,l),
(502,456,l),
(475,456,l),
(377,365,l),
(377,323,l),
(475,232,l)
);
},
{
closed = 1;
nodes = (
(559,690,l),
(233,690,l),
(233,642,l),
(559,615,l)
);
},
{
closed = 1;
nodes = (
(578,518,l),
(578,706,l),
(558,706,l),
(401,690,l),
(401,643,l),
(551,518,l)
);
}
);
width = 610;
},
{
associatedMasterId = m002;
layerId = "1F43119E-2001-48F7-A78F-6BD52A03ED8D";
name = "7 Oct 23 at 10:43";
shapes = (
{
closed = 1;
nodes = (
(374,0,l),
(374,24,l),
(289,93,l),
(289,690,l),
(24,690,l),
(24,666,l),
(93,597,l),
(93,93,l),
(24,24,l),
(24,0,l)
);
},
{
closed = 1;
nodes = (
(472,384,l),
(231,366,l),
(231,321,l),
(472,304,l)
);
},
{
closed = 1;
nodes = (
(504,237,l),
(504,451,l),
(480,451,l),
(384,365,l),
(384,323,l),
(480,237,l)
);
},
{
closed = 1;
nodes = (
(557,690,l),
(231,690,l),
(231,642,l),
(557,615,l)
);
},
{
closed = 1;
nodes = (
(576,523,l),
(576,706,l),
(556,706,l),
(414,690,l),
(414,643,l),
(552,523,l)
);
}
);
width = 593;
},
{
associatedMasterId = m01;
layerId = "18B6E08A-EF58-45E9-8FCE-5284AA18DFFF";
name = "15 Nov 23 at 14:09";
shapes = (
{
closed = 1;
nodes = (
(314,0,l),
(314,16,l),
(205,75,l),
(205,690,l),
(30,690,l),
(30,674,l),
(109,615,l),
(109,75,l),
(30,16,l),
(30,0,l)
);
},
{
closed = 1;
nodes = (
(447,376,l),
(182,365,l),
(182,322,l),
(447,312,l)
);
},
{
closed = 1;
nodes = (
(469,249,l),
(469,439,l),
(453,439,l),
(378,363,l),
(378,325,l),
(453,249,l)
);
},
{
closed = 1;
nodes = (
(518,690,l),
(187,690,l),
(187,647,l),
(518,631,l)
);
},
{
closed = 1;
nodes = (
(547,546,l),
(541,698,l),
(530,698,l),
(427,690,l),
(427,646,l),
(531,546,l)
);
}
);
width = 592;
},
{
associatedMasterId = m01;
layerId = "A53ACAF7-4044-4049-9A18-ACC3E049D19D";
name = "15 Nov 23 at 14:09";
shapes = (
{
closed = 1;
nodes = (
(314,0,l),
(314,16,l),
(205,75,l),
(205,690,l),
(30,690,l),
(30,674,l),
(109,615,l),
(109,75,l),
(30,16,l),
(30,0,l)
);
},
{
closed = 1;
nodes = (
(447,376,l),
(182,365,l),
(182,322,l),
(447,312,l)
);
},
{
closed = 1;
nodes = (
(469,249,l),
(469,439,l),
(453,439,l),
(378,363,l),
(378,325,l),
(453,249,l)
);
},
{
closed = 1;
nodes = (
(518,690,l),
(187,690,l),
(187,647,l),
(518,631,l)
);
},
{
closed = 1;
nodes = (
(547,546,l),
(541,698,l),
(530,698,l),
(427,690,l),
(427,646,l),
(531,546,l)
);
}
);
width = 592;
},
{
associatedMasterId = m002;
layerId = "52DBC5B9-2B94-4D86-B954-9C0751C7DBE0";
name = "15 Nov 23 at 14:14";
shapes = (
{
closed = 1;
nodes = (
(376,0,l),
(376,24,l),
(291,93,l),
(291,690,l),
(26,690,l),
(26,666,l),
(95,597,l),
(95,93,l),
(26,24,l),
(26,0,l)
);
},
{
closed = 1;
nodes = (
(474,384,l),
(233,366,l),
(233,321,l),
(474,304,l)
);
},
{
closed = 1;
nodes = (
(506,237,l),
(506,451,l),
(479,451,l),
(391,365,l),
(391,323,l),
(479,237,l)
);
},
{
closed = 1;
nodes = (
(559,690,l),
(233,690,l),
(233,642,l),
(559,615,l)
);
},
{
closed = 1;
nodes = (
(578,523,l),
(578,706,l),
(558,706,l),
(416,690,l),
(416,643,l),
(551,523,l)
);
}
);
width = 610;
}
);
metricLeft = "=H";
metricRight = "=O";
unicode = 70;
userData = {
KernOnName = F;
};
},
{
color = 4;
glyphname = G;
kernLeft = KO_C;
kernRight = KO_G;
lastChange = "2024-02-04 05:23:04 +0000";
layers = (
{
anchors = (
{
name = bottom;
pos = (396,0);
},
{
name = top;
pos = (420,690);
}
);
layerId = m002;
shapes = (
{
closed = 1;
nodes = (
(517,-16,o),
(617,50,o),
(649,156,c),
(610,174,l),
(573,113,o),
(532,86,o),
(474,86,cs),
(333,86,o),
(245,193,o),
(245,364,cs),
(245,515,o),
(329,634,o),
(437,634,cs),
(490,634,o),
(533,609,o),
(556,565,c),
(556,663,l),
(422,663,l),
(584,479,l),
(611,479,l),
(689,632,l),
(618,677,o),
(515,706,o),
(420,706,cs),
(182,706,o),
(32,561,o),
(32,330,cs),
(32,117,o),
(170,-16,o),
(391,-16,cs)
);
},
{
closed = 1;
nodes = (
(717,-16,l),
(717,256,l),
(766,317,l),
(766,341,l),
(442,341,l),
(442,317,l),
(521,248,l),
(521,85,l),
(691,-16,l)
);
}
);
width = 792;
},
{
associatedMasterId = m01;
layerId = "144E9ED1-EA0E-43A9-9CC8-9AE9BB7D5CF8";
name = "10 Nov 23 at 22:30";
shapes = (
{
closed = 1;
nodes = (
(511,-16,o),
(589,53,o),
(608,177,c),
(573,197,l),
(573,102,o),
(507,43,o),
(403,43,cs),
(251,43,o),
(155,169,o),
(155,369,cs),
(155,533,o),
(249,649,o),
(383,649,cs),
(457,649,o),
(496,637,o),
(539,602,c),
(539,672,l),
(446,672,l),
(595,530,l),
(611,530,l),
(662,639,l),
(599,682,o),
(505,706,o),
(401,706,cs),
(204,706,o),
(50,542,o),
(50,333,cs),
(50,119,o),
(181,-16,o),
(389,-16,cs)
);
},
{
closed = 1;
nodes = (
(646,-16,l),
(646,261,l),
(715,320,l),
(715,336,l),
(461,336,l),
(461,320,l),
(550,256,l),
(550,59,l),
(636,-16,l)
);
}
);
width = 743;
},
{
associatedMasterId = m002;
layerId = "98541C00-59DE-4408-95C0-E7AB5D705A59";
name = "10 Nov 23 at 22:39";
shapes = (
{
closed = 1;
nodes = (
(498,-16,o),
(571,37,o),
(604,145,c),
(590,151,l),
(572,121,o),
(531,104,o),
(476,104,cs),
(337,104,o),
(249,204,o),
(249,364,cs),
(249,515,o),
(333,634,o),
(439,634,cs),
(505,634,o),
(555,599,o),
(588,528,c),
(588,663,l),
(415,663,l),
(596,473,l),
(623,473,l),
(699,628,l),
(634,680,o),
(542,706,o),
(422,706,cs),
(185,706,o),
(36,561,o),
(36,330,cs),
(36,117,o),
(170,-16,o),
(383,-16,cs)
);
},
{
closed = 1;
nodes = (
(709,-16,l),
(709,261,l),
(758,322,l),
(758,346,l),
(434,346,l),
(434,322,l),
(513,253,l),
(513,85,l),
(683,-16,l)
);
}
);
width = 784;
},
{
associatedMasterId = m01;
layerId = "13862934-0E8A-4FE6-B706-34BB3C3B7853";
name = "14 Nov 23 at 13:40";
shapes = (
{
closed = 1;
nodes = (
(518,-16,o),
(604,53,o),
(623,177,c),
(588,197,l),
(588,102,o),
(515,43,o),
(398,43,cs),
(252,43,o),
(150,171,o),
(150,354,cs),
(150,527,o),
(248,649,o),
(388,649,cs),
(453,649,o),
(494,634,o),
(534,595,c),
(534,672,l),
(445,672,l),
(590,522,l),
(606,522,l),
(657,639,l),
(589,680,o),
(489,706,o),
(396,706,cs),
(199,706,o),
(45,542,o),
(45,333,cs),
(45,119,o),
(176,-16,o),
(384,-16,cs)
);
},
{
closed = 1;
nodes = (
(661,-16,l),
(661,261,l),
(730,320,l),
(730,336,l),
(476,336,l),
(476,320,l),
(565,256,l),
(565,59,l),
(651,-16,l)
);
}
);
width = 760;
},
{
anchors = (
{
name = bottom;
pos = (378,0);
},
{
name = top;
pos = (394,690);
}
);
guides = (
{
pos = (237,345);
}
);
layerId = m01;
name = Light;
shapes = (
{
closed = 1;
nodes = (
(528,-16,o),
(604,45,o),
(623,167,c),
(588,187,l),
(588,95,o),
(520,43,o),
(398,43,cs),
(252,43,o),
(150,171,o),
(150,354,cs),
(150,527,o),
(248,649,o),
(388,649,cs),
(462,649,o),
(513,630,o),
(555,588,c),
(550,675,l),
(455,675,l),
(567,526,l),
(583,526,l),
(654,639,l),
(599,678,o),
(492,706,o),
(396,706,cs),
(199,706,o),
(45,542,o),
(45,333,cs),
(45,119,o),
(180,-16,o),
(394,-16,cs)
);
},
{
closed = 1;
nodes = (
(657,-16,l),
(657,257,l),
(726,316,l),
(726,332,l),
(472,332,l),
(472,316,l),
(561,252,l),
(561,59,l),
(647,-16,l)
);
}
);
width = 756;
},
{
associatedMasterId = m002;
layerId = "63EB0D9C-1579-4BE6-8956-A1F237B7A338";
name = "14 Nov 23 at 17:07";
shapes = (
{
closed = 1;
nodes = (
(493,-16,o),
(561,18,o),
(624,107,c),
(590,137,l),
(559,103,o),
(523,88,o),
(472,88,cs),
(333,88,o),
(245,194,o),
(245,364,cs),
(245,515,o),
(329,634,o),
(435,634,cs),
(501,634,o),
(551,599,o),
(584,528,c),
(584,663,l),
(411,663,l),
(592,473,l),
(619,473,l),
(695,628,l),
(630,680,o),
(538,706,o),
(418,706,cs),
(181,706,o),
(32,561,o),
(32,330,cs),
(32,117,o),
(166,-16,o),
(379,-16,cs)
);
},
{
closed = 1;
nodes = (
(715,-16,l),
(715,261,l),
(764,322,l),
(764,346,l),
(440,346,l),
(440,322,l),
(519,253,l),
(519,85,l),
(689,-16,l)
);
}
);
width = 790;
},
{
associatedMasterId = m01;
layerId = "DC0F49F3-3169-4D34-AF6D-7F1273A05980";
name = "14 Nov 23 at 17:07";
shapes = (
{
closed = 1;
nodes = (
(518,-16,o),
(604,53,o),
(623,177,c),
(588,197,l),
(588,102,o),
(515,43,o),
(398,43,cs),
(252,43,o),
(150,171,o),
(150,354,cs),
(150,527,o),
(248,649,o),
(388,649,cs),
(453,649,o),
(494,634,o),
(534,595,c),
(534,672,l),
(445,672,l),
(590,522,l),
(606,522,l),
(657,639,l),
(597,680,o),
(496,706,o),
(396,706,cs),
(199,706,o),
(45,542,o),
(45,333,cs),
(45,119,o),
(176,-16,o),
(384,-16,cs)
);
},
{
closed = 1;
nodes = (
(661,-16,l),
(661,261,l),
(730,320,l),
(730,336,l),
(476,336,l),
(476,320,l),
(565,256,l),
(565,59,l),
(651,-16,l)
);
}
);
width = 760;
}
);
metricLeft = "=O";
metricRight = "=H";
unicode = 71;
userData = {
KernOnName = G;
};
},
{
color = 4;
glyphname = H;
kernLeft = KO_H;
kernRight = KO_H;
lastChange = "2024-02-04 05:23:03 +0000";
layers = (
{
anchors = (
{
name = bottom;
pos = (378,0);
},
{
name = center;
pos = (378,509);
},
{
name = top;
pos = (378,690);
},
{
name = topleft;
pos = (20,690);
}
);
layerId = m01;
shapes = (
{
closed = 1;
nodes = (
(726,0,l),
(726,16,l),
(647,75,l),
(647,615,l),
(726,674,l),
(726,690,l),
(472,690,l),
(472,674,l),
(551,615,l),
(551,75,l),
(472,16,l),
(472,0,l)
);
},
{
closed = 1;
nodes = (
(284,0,l),
(284,16,l),
(205,75,l),
(205,615,l),
(284,674,l),
(284,690,l),
(30,690,l),
(30,674,l),
(109,615,l),
(109,75,l),
(30,16,l),
(30,0,l)
);
},
{
closed = 1;
nodes = (
(582,331,l),
(582,386,l),
(174,386,l),
(174,331,l)
);
}
);
width = 756;
},
{
associatedMasterId = m01;
layerId = "EF4CC439-7004-4BD6-B653-68A6C12CD5CB";
name = "22 Aug 23 at 12:07";
shapes = (
{
closed = 1;
nodes = (
(752,0,l),
(752,16,l),
(673,73,l),
(673,617,l),
(752,674,l),
(752,690,l),
(502,690,l),
(502,674,l),
(581,617,l),
(581,73,l),
(502,16,l),
(502,0,l)
);
},
{
closed = 1;
nodes = (
(295,0,l),
(295,16,l),
(217,73,l),
(217,617,l),
(295,674,l),
(295,690,l),
(46,690,l),
(46,674,l),
(125,617,l),
(125,73,l),
(46,16,l),
(46,0,l)
);
},
{
closed = 1;
nodes = (
(608,334,l),
(608,386,l),
(190,386,l),
(190,334,l)
);
}
);
width = 798;
},
{
anchors = (
{
name = bottom;
pos = (416,0);
},
{
name = center;
pos = (416,508);
},
{
name = top;
pos = (416,690);
},
{
name = topleft;
pos = (20,690);
}
);
layerId = m002;
shapes = (
{
closed = 1;
nodes = (
(806,0,l),
(806,24,l),
(737,93,l),
(737,597,l),
(806,666,l),
(806,690,l),
(480,690,l),
(480,666,l),
(541,597,l),
(541,93,l),
(480,24,l),
(480,0,l)
);
},
{
closed = 1;
nodes = (
(352,0,l),
(352,24,l),
(291,93,l),
(291,597,l),
(352,666,l),
(352,690,l),
(26,690,l),
(26,666,l),
(95,597,l),
(95,93,l),
(26,24,l),
(26,0,l)
);
},
{
closed = 1;
nodes = (
(628,321,l),
(628,386,l),
(210,386,l),
(210,321,l)
);
}
);
width = 832;
},
{
associatedMasterId = m002;
layerId = "AB507E1B-90A9-4F25-99F4-C72F7BAA0184";
name = "7 Oct 23 at 08:20";
shapes = (
{
closed = 1;
nodes = (
(802,0,l),
(802,24,l),
(733,93,l),
(733,597,l),
(802,666,l),
(802,690,l),
(473,690,l),
(473,666,l),
(537,597,l),
(537,93,l),
(473,24,l),
(473,0,l)
);
},
{
closed = 1;
nodes = (
(351,0,l),
(351,24,l),
(287,93,l),
(287,597,l),
(351,666,l),
(351,690,l),
(22,690,l),
(22,666,l),
(91,597,l),
(91,93,l),
(22,24,l),
(22,0,l)
);
},
{
closed = 1;
nodes = (
(634,321,l),
(634,386,l),
(206,386,l),
(206,321,l)
);
}
);
width = 824;
}
);
metricRight = "=|";
unicode = 72;
userData = {
KernOnName = H;
};
},
{
color = 4;
glyphname = I;
kernLeft = KO_H;
kernRight = KO_H;
lastChange = "2024-02-04 05:23:04 +0000";
layers = (
{
anchors = (
{
name = bottom;
pos = (157,0);
},
{
name = ogonek;
pos = (179,0);
},
{
name = top;
pos = (157,690);
},
{
name = topleft;
pos = (20,690);
}
);
guides = (
{
angle = 90;
pos = (284,8);
}
);
layerId = m01;
shapes = (
{
closed = 1;
nodes = (
(284,0,l),
(284,16,l),
(205,75,l),
(205,615,l),
(284,674,l),
(284,690,l),
(30,690,l),
(30,674,l),
(109,615,l),
(109,75,l),
(30,16,l),
(30,0,l)
);
}
);
width = 314;
},
{
anchors = (
{
name = bottom;
pos = (193,0);
},
{
name = ogonek;
pos = (220,0);
},
{
name = top;
pos = (193,690);
},
{
name = topleft;
pos = (20,690);
}
);
guides = (
{
angle = 270;
pos = (26,12);
},
{
angle = 90;
pos = (360,12);
}
);
layerId = m002;
shapes = (
{
closed = 1;
nodes = (
(360,0,l),
(360,24,l),
(291,93,l),
(291,597,l),
(360,666,l),
(360,690,l),
(26,690,l),
(26,666,l),
(95,597,l),
(95,93,l),
(26,24,l),
(26,0,l)
);
}
);
width = 386;
}
);
metricLeft = "=H";
metricRight = "=H";
unicode = 73;
userData = {
KernOnName = I;
};
},
{
color = 4;
glyphname = J;
kernLeft = KO_J;
kernRight = KO_J;
lastChange = "2024-02-04 05:23:04 +0000";
layers = (
{
associatedMasterId = m01;
layerId = "7CABEDAC-4FCA-4D7B-A9A4-53D6BDA63A1B";
name = "29 Oct 23 at 23:00";
shapes = (
{
closed = 1;
nodes = (
(133,128,l),
(-10,112,l),
(-10,99,l),
(32,-12,l),
(46,-12,l),
(142,25,o),
(203,116,o),
(203,223,cs),
(203,615,l),
(282,674,l),
(282,690,l),
(28,690,l),
(28,674,l),
(107,615,l),
(107,58,l)
);
}
);
width = 280;
},
{
associatedMasterId = m002;
layerId = "32E03186-91A0-4488-A0BE-941E10D05A77";
name = "29 Oct 23 at 23:00";
shapes = (
{
closed = 1;
nodes = (
(132,82,l),
(-23,156,l),
(-37,147,l),
(-37,-16,l),
(-23,-16,l),
(153,-16,o),
(291,96,o),
(291,239,cs),
(291,597,l),
(360,666,l),
(360,690,l),
(26,690,l),
(26,666,l),
(95,597,l),
(95,66,l)
);
}
);
width = 353;
},
{
associatedMasterId = m01;
layerId = "4CE2DC5E-4CF9-4565-891E-AE3030C1C56E";
name = "3 Nov 23 at 09:08";
shapes = (
{
closed = 1;
nodes = (
(165,72,l),
(11,89,l),
(2,79,l),
(2,-12,l),
(16,-12,l),
(139,-12,o),
(235,78,o),
(235,193,cs),
(235,615,l),
(314,674,l),
(314,690,l),
(60,690,l),
(60,674,l),
(139,615,l),
(139,58,l)
);
}
);
width = 312;
},
{
anchors = (
{
name = bottom;
pos = (299,0);
},
{
name = top;
pos = (442,690);
}
);
background = {
shapes = (
{
closed = 0;
nodes = (
(248,41,ls),
(190,41,o),
(151,63,o),
(120,113,c),
(120,18,l),
(210,18,l),
(105,166,l),
(89,166,l),
(21,54,l),
(74,15,o),
(173,-16,o),
(248,-16,cs)
);
}
);
};
layerId = m01;
name = Light;
shapes = (
{
closed = 1;
nodes = (
(395,-16,o),
(488,66,o),
(488,197,cs),
(488,615,l),
(567,674,l),
(567,690,l),
(313,690,l),
(313,674,l),
(392,615,l),
(392,193,ls),
(392,98,o),
(340,38,o),
(258,38,cs),
(192,38,o),
(153,64,o),
(102,143,c),
(102,41,l),
(183,41,l),
(108,197,l),
(92,197,l),
(24,79,l),
(77,23,o),
(168,-16,o),
(246,-16,cs)
);
}
);
width = 597;
},
{
associatedMasterId = m002;
layerId = "4C4C320E-A86E-4717-8A8C-2B407E85013C";
name = "3 Nov 23 at 09:08";
shapes = (
{
closed = 1;
nodes = (
(194,70,l),
(16,186,l),
(2,177,l),
(2,-16,l),
(16,-16,l),
(205,-16,o),
(353,96,o),
(353,239,cs),
(353,597,l),
(422,666,l),
(422,690,l),
(88,690,l),
(88,666,l),
(157,597,l),
(157,66,l)
);
}
);
width = 414;
},
{
associatedMasterId = m01;
layerId = "B5D12403-2EEF-4A9A-B5D4-D977C06098D3";
name = "5 Nov 23 at 16:51";
shapes = (
{
closed = 1;
nodes = (
(151,-71,l),
(8,-88,l),
(8,-101,l),
(40,-195,l),
(54,-195,l),
(152,-157,o),
(221,-60,o),
(221,40,cs),
(221,615,l),
(300,674,l),
(300,690,l),
(46,690,l),
(46,674,l),
(125,615,l),
(125,-125,l)
);
}
);
width = 320;
},
{
associatedMasterId = m002;
layerId = "2F812EF9-9FD7-42A6-BC3B-93BC001A5B55";
name = "5 Nov 23 at 17:02";
shapes = (
{
closed = 1;
nodes = (
(132,-123,l),
(-66,-21,l),
(-80,-30,l),
(-80,-205,l),
(-46,-205,l),
(143,-205,o),
(291,-78,o),
(291,84,cs),
(291,597,l),
(360,666,l),
(360,690,l),
(26,690,l),
(26,666,l),
(95,597,l),
(95,-148,l)
);
}
);
width = 380;
},
{
associatedMasterId = m002;
layerId = "3B81A102-C5F8-4C90-BBC5-9C027C10CF2E";
name = "5 Nov 23 at 17:10";
shapes = (
{
closed = 1;
nodes = (
(373,-16,o),
(473,81,o),
(473,255,cs),
(473,597,l),
(542,666,l),
(542,690,l),
(208,690,l),
(208,666,l),
(277,597,l),
(277,155,ls),
(277,99,o),
(241,59,o),
(189,59,cs),
(117,59,o),
(85,91,o),
(85,165,c),
(85,33,l),
(204,33,l),
(101,221,l),
(74,221,l),
(16,89,l),
(49,27,o),
(123,-16,o),
(194,-16,cs)
);
}
);
width = 562;
},
{
anchors = (
{
name = bottom;
pos = (330,0);
},
{
name = top;
pos = (463,690);
}
);
layerId = m002;
name = "Extra Bold";
shapes = (
{
closed = 1;
nodes = (
(463,-16,o),
(564,77,o),
(564,243,cs),
(564,597,l),
(633,666,l),
(633,690,l),
(299,690,l),
(299,666,l),
(368,597,l),
(368,207,ls),
(368,116,o),
(337,65,o),
(282,65,c),
(210,65,o),
(167,108,o),
(141,207,c),
(141,39,l),
(260,39,l),
(137,245,l),
(110,245,l),
(21,102,l),
(83,33,o),
(192,-16,o),
(284,-16,cs)
);
}
);
width = 659;
},
{
associatedMasterId = m002;
layerId = "2D03E7D7-951B-466F-ACF1-C2FF629FD7B7";
name = "9 Nov 23 at 21:18";
shapes = (
{
closed = 1;
nodes = (
(330,-16,o),
(419,76,o),
(419,223,cs),
(419,597,l),
(488,666,l),
(488,690,l),
(154,690,l),
(154,666,l),
(223,597,l),
(223,155,ls),
(223,88,o),
(205,59,o),
(165,59,c),
(116,59,o),
(85,84,o),
(85,125,c),
(85,30,l),
(201,30,l),
(83,203,l),
(56,203,l),
(2,49,l),
(49,6,o),
(111,-16,o),
(189,-16,cs)
);
}
);
width = 508;
},
{
associatedMasterId = m01;
layerId = "978862C7-46D7-4677-8F6C-0E755A31F504";
name = "9 Nov 23 at 21:19";
shapes = (
{
closed = 1;
nodes = (
(241,-16,o),
(290,62,o),
(290,220,cs),
(290,615,l),
(369,674,l),
(369,690,l),
(115,690,l),
(115,674,l),
(194,615,l),
(194,120,ls),
(194,67,o),
(174,37,o),
(137,37,cs),
(98,37,o),
(76,64,o),
(76,113,c),
(76,20,l),
(147,20,l),
(76,143,l),
(60,143,l),
(2,40,l),
(42,3,o),
(88,-16,o),
(141,-16,cs)
);
}
);
width = 389;
},
{
associatedMasterId = m01;
layerId = "035DB8FB-6472-42D7-B22A-8F2817C7B800";
name = "9 Nov 23 at 21:29";
shapes = (
{
closed = 1;
nodes = (
(286,-16,o),
(350,79,o),
(350,250,cs),
(350,615,l),
(429,674,l),
(429,690,l),
(175,690,l),
(175,674,l),
(254,615,l),
(254,184,ls),
(254,93,o),
(224,42,o),
(171,42,cs),
(135,42,o),
(101,66,o),
(89,101,c),
(89,22,l),
(155,22,l),
(72,156,l),
(56,156,l),
(2,46,l),
(45,6,o),
(106,-16,o),
(171,-16,cs)
);
}
);
width = 439;
},
{
associatedMasterId = m002;
layerId = "69384037-AA7B-47ED-8DB6-0CA4E00B5EF6";
name = "9 Nov 23 at 21:29";
shapes = (
{
closed = 1;
nodes = (
(380,-16,o),
(488,92,o),
(488,263,cs),
(488,597,l),
(557,666,l),
(557,690,l),
(223,690,l),
(223,666,l),
(292,597,l),
(292,228,ls),
(292,124,o),
(257,59,o),
(202,59,c),
(151,59,o),
(106,98,o),
(85,159,c),
(85,39,l),
(201,39,l),
(96,212,l),
(69,212,l),
(2,58,l),
(54,11,o),
(129,-16,o),
(209,-16,cs)
);
}
);
width = 567;
},
{
associatedMasterId = m002;
layerId = "64496E29-EE67-4314-9D49-F19747A3053E";
name = "9 Nov 23 at 21:32";
shapes = (
{
closed = 1;
nodes = (
(380,-16,o),
(488,92,o),
(488,263,cs),
(488,597,l),
(557,666,l),
(557,690,l),
(223,690,l),
(223,666,l),
(292,597,l),
(292,228,ls),
(292,124,o),
(257,59,o),
(202,59,c),
(151,59,o),
(106,98,o),
(85,159,c),
(85,39,l),
(201,39,l),
(96,212,l),
(69,212,l),
(2,58,l),
(54,11,o),
(129,-16,o),
(209,-16,cs)
);
}
);
width = 567;
},
{
associatedMasterId = m01;
layerId = "D2D19152-C0F2-4347-9A80-9B0C04B5B56B";
name = "13 Nov 23 at 14:04";
shapes = (
{
closed = 1;
nodes = (
(315,-16,o),
(390,83,o),
(390,261,cs),
(390,615,l),
(469,674,l),
(469,690,l),
(215,690,l),
(215,674,l),
(294,615,l),
(294,214,ls),
(294,108,o),
(250,42,o),
(181,42,cs),
(136,42,o),
(113,58,o),
(89,107,c),
(109,22,l),
(158,28,l),
(72,162,l),
(56,162,l),
(2,52,l),
(51,7,o),
(110,-16,o),
(181,-16,cs)
);
}
);
width = 471;
},
{
associatedMasterId = m002;
layerId = "5150498B-B981-4F15-8AC1-DF43633762F7";
name = "13 Nov 23 at 14:04";
shapes = (
{
closed = 1;
nodes = (
(410,-16,o),
(518,107,o),
(518,303,cs),
(518,597,l),
(587,666,l),
(587,690,l),
(253,690,l),
(253,666,l),
(322,597,l),
(322,268,ls),
(322,140,o),
(286,69,o),
(222,69,c),
(160,69,o),
(115,101,o),
(95,159,c),
(105,39,l),
(237,39,l),
(116,212,l),
(89,212,l),
(2,68,l),
(55,14,o),
(140,-16,o),
(239,-16,cs)
);
}
);
width = 589;
},
{
associatedMasterId = m01;
layerId = "F81A4823-9932-4C02-8EE5-F7071F6E92B8";
name = "13 Nov 23 at 14:07";
shapes = (
{
closed = 1;
nodes = (
(345,-16,o),
(413,59,o),
(413,231,cs),
(413,615,l),
(492,674,l),
(492,690,l),
(238,690,l),
(238,674,l),
(317,615,l),
(317,184,ls),
(317,89,o),
(275,42,o),
(191,42,cs),
(140,42,o),
(112,60,o),
(89,107,c),
(89,24,l),
(154,24,l),
(76,162,l),
(60,162,l),
(2,52,l),
(49,8,o),
(117,-16,o),
(191,-16,cs)
);
}
);
width = 494;
},
{
associatedMasterId = m01;
layerId = "27D52EF1-AE7E-4373-AB6C-5A5C45534003";
name = "15 Nov 23 at 14:24";
shapes = (
{
closed = 1;
nodes = (
(365,-16,o),
(431,59,o),
(431,231,cs),
(431,615,l),
(510,674,l),
(510,690,l),
(256,690,l),
(256,674,l),
(335,615,l),
(335,204,ls),
(335,93,o),
(299,44,o),
(218,44,cs),
(144,44,o),
(99,72,o),
(70,136,c),
(70,22,l),
(166,22,l),
(79,182,l),
(63,182,l),
(2,72,l),
(56,13,o),
(126,-16,o),
(213,-16,cs)
);
}
);
width = 512;
},
{
associatedMasterId = m002;
layerId = "12135E42-34F1-419C-8D5C-FC5EDB2C800D";
name = "15 Nov 23 at 14:31";
shapes = (
{
closed = 1;
nodes = (
(452,-16,o),
(545,70,o),
(545,243,cs),
(545,597,l),
(614,666,l),
(614,690,l),
(280,690,l),
(280,666,l),
(349,597,l),
(349,225,ls),
(349,121,o),
(317,69,o),
(253,69,c),
(187,69,o),
(147,111,o),
(122,207,c),
(122,39,l),
(239,39,l),
(116,245,l),
(89,245,l),
(2,102,l),
(52,30,o),
(153,-16,o),
(265,-16,cs)
);
}
);
width = 616;
},
{
anchors = (
{
name = bottom;
pos = (299,0);
},
{
name = top;
pos = (439,690);
}
);
associatedMasterId = m01;
background = {
shapes = (
{
closed = 0;
nodes = (
(248,41,ls),
(190,41,o),
(151,63,o),
(120,113,c),
(120,18,l),
(210,18,l),
(105,166,l),
(89,166,l),
(21,54,l),
(74,15,o),
(173,-16,o),
(248,-16,cs)
);
}
);
};
layerId = "CE69A4F6-CA08-4B41-91D3-E72D9018B150";
name = "18 Nov 23 at 13:55";
shapes = (
{
closed = 1;
nodes = (
(395,-16,o),
(488,66,o),
(488,197,cs),
(488,615,l),
(567,674,l),
(567,690,l),
(313,690,l),
(313,674,l),
(392,615,l),
(392,193,ls),
(392,98,o),
(340,38,o),
(258,38,cs),
(192,38,o),
(153,64,o),
(102,143,c),
(102,48,l),
(178,48,l),
(101,197,l),
(85,197,l),
(24,79,l),
(77,23,o),
(168,-16,o),
(246,-16,cs)
);
}
);
width = 597;
},
{
associatedMasterId = m002;
layerId = "A3409B12-BD7A-41EA-8B49-4C64796C4B43";
name = "18 Nov 23 at 13:55";
shapes = (
{
closed = 1;
nodes = (
(463,-16,o),
(564,77,o),
(564,243,cs),
(564,597,l),
(633,666,l),
(633,690,l),
(299,690,l),
(299,666,l),
(368,597,l),
(368,207,ls),
(368,116,o),
(337,65,o),
(282,65,c),
(210,65,o),
(167,108,o),
(141,207,c),
(141,39,l),
(253,39,l),
(132,245,l),
(105,245,l),
(21,102,l),
(83,33,o),
(192,-16,o),
(284,-16,cs)
);
}
);
width = 659;
}
);
metricLeft = "=H*0.8";
metricRight = "=H";
unicode = 74;
userData = {
KernOnName = J;
};
},
{
color = 4;
glyphname = K;
kernLeft = KO_H;
kernRight = KO_K;
lastChange = "2024-02-04 05:23:04 +0000";
layers = (
{
anchors = (
{
name = bottom;
pos = (352,0);
},
{
name = top;
pos = (352,690);
}
);
guides = (
{
pos = (157,615);
}
);
layerId = m01;
shapes = (
{
closed = 1;
nodes = (
(601,644,l),
(534,594,l),
(672,674,l),
(672,690,l),
(407,690,l),
(407,674,l),
(488,589,l),
(510,677,l),
(167,292,l),
(167,241,l)
);
},
{
closed = 1;
nodes = (
(284,0,l),
(284,16,l),
(205,75,l),
(205,615,l),
(284,674,l),
(284,690,l),
(30,690,l),
(30,674,l),
(109,615,l),
(109,75,l),
(30,16,l),
(30,0,l)
);
},
{
closed = 1;
nodes = (
(702,0,l),
(702,16,l),
(582,112,l),
(669,13,l),
(368,445,l),
(300,382,l),
(555,16,l),
(537,91,l),
(455,16,l),
(455,0,l)
);
}
);
width = 704;
},
{
anchors = (
{
name = bottom;
pos = (409,0);
},
{
name = top;
pos = (409,690);
}
);
guides = (
{
pos = (582,533);
},
{
pos = (389,93);
}
);
layerId = m002;
shapes = (
{
closed = 1;
nodes = (
(782,677,l),
(630,567,l),
(798,666,l),
(798,690,l),
(462,690,l),
(462,666,l),
(572,544,l),
(575,677,l),
(219,286,l),
(212,227,l)
);
},
{
closed = 1;
nodes = (
(360,0,l),
(360,24,l),
(291,93,l),
(291,597,l),
(360,666,l),
(360,690,l),
(26,690,l),
(26,666,l),
(95,597,l),
(95,93,l),
(26,24,l),
(26,0,l)
);
},
{
closed = 1;
nodes = (
(816,0,l),
(816,24,l),
(689,145,l),
(798,13,l),
(482,474,l),
(329,365,l),
(571,13,l),
(552,129,l),
(481,24,l),
(481,0,l)
);
}
);
width = 818;
},
{
associatedMasterId = m01;
guides = (
{
pos = (155,615);
}
);
layerId = "AAB62C9B-3B54-4455-9AD6-6A5B7FA54BD1";
name = "9 Nov 23 at 21:37";
shapes = (
{
closed = 1;
nodes = (
(587,644,l),
(520,595,l),
(659,674,l),
(659,690,l),
(405,690,l),
(405,674,l),
(492,597,l),
(510,677,l),
(176,295,l),
(181,241,l)
);
},
{
closed = 1;
nodes = (
(282,0,l),
(282,16,l),
(203,75,l),
(203,615,l),
(282,674,l),
(282,690,l),
(28,690,l),
(28,674,l),
(107,615,l),
(107,75,l),
(28,16,l),
(28,0,l)
);
},
{
closed = 1;
nodes = (
(694,0,l),
(694,16,l),
(576,108,l),
(664,13,l),
(349,427,l),
(289,364,l),
(554,16,l),
(538,103,l),
(460,16,l),
(460,0,l)
);
}
);
width = 708;
},
{
associatedMasterId = m002;
layerId = "D3B90596-8813-418C-8347-21268481278F";
name = "9 Nov 23 at 21:37";
shapes = (
{
closed = 1;
nodes = (
(755,677,l),
(619,563,l),
(776,666,l),
(776,690,l),
(462,690,l),
(462,666,l),
(564,560,l),
(564,677,l),
(230,251,l),
(223,184,l)
);
},
{
closed = 1;
nodes = (
(360,0,l),
(360,24,l),
(291,93,l),
(291,597,l),
(360,666,l),
(360,690,l),
(26,690,l),
(26,666,l),
(95,597,l),
(95,93,l),
(26,24,l),
(26,0,l)
);
},
{
closed = 1;
nodes = (
(800,0,l),
(800,24,l),
(678,137,l),
(785,13,l),
(474,456,l),
(323,347,l),
(558,13,l),
(547,128,l),
(484,24,l),
(484,0,l)
);
}
);
width = 813;
},
{
associatedMasterId = m01;
guides = (
{
pos = (157,615);
}
);
layerId = "2B4F0295-1A1F-48B4-B287-3CAF0EC541AC";
name = "13 Nov 23 at 16:48";
shapes = (
{
closed = 1;
nodes = (
(617,644,l),
(550,593,l),
(689,674,l),
(689,690,l),
(434,690,l),
(434,674,l),
(511,597,l),
(539,677,l),
(178,295,l),
(183,241,l)
);
},
{
closed = 1;
nodes = (
(284,0,l),
(284,16,l),
(205,75,l),
(205,615,l),
(284,674,l),
(284,690,l),
(30,690,l),
(30,674,l),
(109,615,l),
(109,75,l),
(30,16,l),
(30,0,l)
);
},
{
closed = 1;
nodes = (
(716,0,l),
(716,16,l),
(598,111,l),
(686,13,l),
(374,445,l),
(313,382,l),
(578,16,l),
(560,100,l),
(482,16,l),
(482,0,l)
);
}
);
width = 718;
},
{
associatedMasterId = m002;
layerId = "D27BF691-809B-42F7-B7AE-7C0C77B2897E";
name = "13 Nov 23 at 16:50";
shapes = (
{
closed = 1;
nodes = (
(788,677,l),
(636,563,l),
(809,666,l),
(809,690,l),
(485,690,l),
(485,666,l),
(597,560,l),
(597,677,l),
(230,267,l),
(223,200,l)
);
},
{
closed = 1;
nodes = (
(360,0,l),
(360,24,l),
(291,93,l),
(291,597,l),
(360,666,l),
(360,690,l),
(26,690,l),
(26,666,l),
(95,597,l),
(95,93,l),
(26,24,l),
(26,0,l)
);
},
{
closed = 1;
nodes = (
(828,0,l),
(828,24,l),
(698,143,l),
(805,13,l),
(504,476,l),
(353,367,l),
(583,13,l),
(563,125,l),
(489,24,l),
(489,0,l)
);
}
);
width = 830;
},
{
associatedMasterId = m01;
guides = (
{
pos = (157,615);
}
);
layerId = "137DC1CB-8F85-4317-A8A4-B67B3AF70F97";
name = "14 Nov 23 at 10:55";
shapes = (
{
closed = 1;
nodes = (
(601,644,l),
(534,594,l),
(672,674,l),
(672,690,l),
(413,690,l),
(413,674,l),
(491,589,l),
(513,677,l),
(167,292,l),
(167,241,l)
);
},
{
closed = 1;
nodes = (
(284,0,l),
(284,16,l),
(205,75,l),
(205,615,l),
(284,674,l),
(284,690,l),
(30,690,l),
(30,674,l),
(109,615,l),
(109,75,l),
(30,16,l),
(30,0,l)
);
},
{
closed = 1;
nodes = (
(702,0,l),
(702,16,l),
(582,111,l),
(670,13,l),
(358,445,l),
(297,382,l),
(562,16,l),
(544,91,l),
(462,16,l),
(462,0,l)
);
}
);
width = 704;
},
{
associatedMasterId = m01;
guides = (
{
pos = (157,615);
}
);
layerId = "EA4876B1-F679-4F2F-9A0C-9A5C58282565";
name = "14 Nov 23 at 10:58";
shapes = (
{
closed = 1;
nodes = (
(601,644,l),
(534,594,l),
(672,674,l),
(672,690,l),
(413,690,l),
(413,674,l),
(491,589,l),
(513,677,l),
(167,292,l),
(167,241,l)
);
},
{
closed = 1;
nodes = (
(284,0,l),
(284,16,l),
(205,75,l),
(205,615,l),
(284,674,l),
(284,690,l),
(30,690,l),
(30,674,l),
(109,615,l),
(109,75,l),
(30,16,l),
(30,0,l)
);
},
{
closed = 1;
nodes = (
(702,0,l),
(702,16,l),
(582,111,l),
(670,13,l),
(358,445,l),
(292,382,l),
(557,16,l),
(539,91,l),
(457,16,l),
(457,0,l)
);
}
);
width = 704;
}
);
metricLeft = "=H";
metricRight = "=V";
unicode = 75;
userData = {
KernOnName = K;
};
},
{
color = 4;
glyphname = L;
kernLeft = KO_H;
kernRight = KO_L;
lastChange = "2024-02-04 05:23:03 +0000";
layers = (
{
anchors = (
{
name = bottom;
pos = (299,0);
},
{
name = center;
pos = (157,335);
},
{
name = top;
pos = (159,690);
},
{
name = topright;
pos = (324,690);
}
);
layerId = m01;
shapes = (
{
closed = 1;
nodes = (
(205,0,l),
(205,615,l),
(294,674,l),
(294,690,l),
(30,690,l),
(30,674,l),
(109,615,l),
(109,75,l),
(30,16,l),
(30,0,l)
);
},
{
closed = 1;
nodes = (
(538,0,l),
(538,59,l),
(187,43,l),
(187,0,l)
);
},
{
closed = 1;
nodes = (
(548,0,l),
(553,184,l),
(537,184,l),
(413,41,l),
(413,0,l)
);
}
);
width = 598;
},
{
anchors = (
{
name = bottom;
pos = (310,0);
},
{
name = center;
pos = (193,336);
},
{
name = top;
pos = (189,690);
},
{
name = topright;
pos = (393,690);
}
);
layerId = m002;
shapes = (
{
closed = 1;
nodes = (
(291,0,l),
(291,597,l),
(360,666,l),
(360,690,l),
(26,690,l),
(26,666,l),
(95,597,l),
(95,93,l),
(26,24,l),
(26,0,l)
);
},
{
closed = 1;
nodes = (
(559,0,l),
(559,75,l),
(233,48,l),
(233,0,l)
);
},
{
closed = 1;
nodes = (
(588,0,l),
(588,220,l),
(561,220,l),
(403,47,l),
(403,0,l)
);
}
);
width = 620;
},
{
associatedMasterId = m002;
layerId = "B407A751-511D-4A1B-B995-AEAEBE363F1F";
name = "7 Oct 23 at 10:43";
shapes = (
{
closed = 1;
nodes = (
(289,0,l),
(289,597,l),
(358,666,l),
(358,690,l),
(24,690,l),
(24,666,l),
(93,597,l),
(93,93,l),
(24,24,l),
(24,0,l)
);
},
{
closed = 1;
nodes = (
(557,0,l),
(557,75,l),
(231,48,l),
(231,0,l)
);
},
{
closed = 1;
nodes = (
(586,0,l),
(586,210,l),
(562,210,l),
(416,47,l),
(416,0,l)
);
}
);
width = 610;
},
{
associatedMasterId = m01;
layerId = "FA5F01A1-AAEA-4980-95F4-30149947AB57";
name = "15 Nov 23 at 14:11";
shapes = (
{
closed = 1;
nodes = (
(205,0,l),
(205,615,l),
(294,674,l),
(294,690,l),
(30,690,l),
(30,674,l),
(109,615,l),
(109,75,l),
(30,16,l),
(30,0,l)
);
},
{
closed = 1;
nodes = (
(538,0,l),
(538,59,l),
(187,43,l),
(187,0,l)
);
},
{
closed = 1;
nodes = (
(548,0,l),
(553,183,l),
(537,183,l),
(415,41,l),
(415,0,l)
);
}
);
width = 598;
},
{
associatedMasterId = m002;
layerId = "A0EA7F1D-50A2-440A-8B7F-DF0EB84C0D8E";
name = "15 Nov 23 at 14:14";
shapes = (
{
closed = 1;
nodes = (
(291,0,l),
(291,597,l),
(360,666,l),
(360,690,l),
(26,690,l),
(26,666,l),
(95,597,l),
(95,93,l),
(26,24,l),
(26,0,l)
);
},
{
closed = 1;
nodes = (
(559,0,l),
(559,75,l),
(233,48,l),
(233,0,l)
);
},
{
closed = 1;
nodes = (
(588,0,l),
(588,215,l),
(561,215,l),
(418,47,l),
(418,0,l)
);
}
);
width = 620;
}
);
metricLeft = "=H";
metricRight = "=O";
unicode = 76;
userData = {
KernOnName = L;
};
},
{
glyphname = Ldot;
kernLeft = KO_H;
lastChange = "2023-12-15 06:12:05 +0000";
layers = (
{
layerId = m01;
shapes = (
{
ref = L;
},
{
closed = 1;
nodes = (
(500,273,o),
(531,303,o),
(531,345,cs),
(531,387,o),
(500,417,o),
(455,417,cs),
(410,417,o),
(379,387,o),
(379,345,cs),
(379,303,o),
(410,273,o),
(455,273,cs)
);
}
);
width = 598;
},
{
layerId = m002;
shapes = (
{
ref = L;
},
{
closed = 1;
nodes = (
(561,244,o),
(612,288,o),
(612,345,cs),
(612,402,o),
(561,446,o),
(497,446,cs),
(433,446,o),
(382,402,o),
(382,345,cs),
(382,288,o),
(433,244,o),
(497,244,cs)
);
}
);
width = 620;
}
);
metricLeft = "=L";
unicode = 319;
},
{
color = 4;
glyphname = M;
kernLeft = KO_M;
kernRight = KO_M;
lastChange = "2024-02-04 05:23:04 +0000";
layers = (
{
background = {
shapes = (
{
closed = 1;
nodes = (
(48,690,l),
(48,674,l),
(127,615,l),
(101,75,l),
(22,16,l),
(22,0,l),
(272,0,l),
(272,16,l),
(193,75,l),
(223,690,l)
);
}
);
};
guides = (
{
pos = (496,589);
},
{
pos = (804,615);
}
);
layerId = m01;
shapes = (
{
closed = 1;
nodes = (
(463,0,l),
(754,690,l),
(673,690,l),
(455,82,l),
(493,82,l),
(236,690,l),
(136,690,l),
(428,0,l)
);
},
{
closed = 1;
nodes = (
(230,0,l),
(230,16,l),
(151,75,l),
(184,690,l),
(56,690,l),
(56,674,l),
(141,608,l),
(133,627,l),
(81,75,l),
(2,16,l),
(2,0,l)
);
},
{
closed = 1;
nodes = (
(927,0,l),
(927,16,l),
(848,75,l),
(802,615,l),
(881,674,l),
(881,690,l),
(703,690,l),
(756,75,l),
(677,16,l),
(677,0,l)
);
}
);
width = 929;
},
{
guides = (
{
pos = (514,538);
}
);
layerId = m002;
shapes = (
{
closed = 1;
nodes = (
(517,0,l),
(775,690,l),
(658,690,l),
(526,147,l),
(551,147,l),
(320,690,l),
(118,690,l),
(411,0,l)
);
},
{
closed = 1;
nodes = (
(250,0,l),
(250,24,l),
(181,93,l),
(192,690,l),
(62,690,l),
(62,666,l),
(148,594,l),
(147,630,l),
(71,93,l),
(2,24,l),
(2,0,l)
);
},
{
closed = 1;
nodes = (
(1015,0,l),
(1015,24,l),
(946,93,l),
(896,597,l),
(965,666,l),
(965,690,l),
(693,690,l),
(752,93,l),
(683,24,l),
(683,0,l)
);
}
);
width = 1017;
},
{
associatedMasterId = m01;
background = {
shapes = (
{
closed = 1;
nodes = (
(64,690,l),
(64,674,l),
(143,615,l),
(117,75,l),
(38,16,l),
(38,0,l),
(288,0,l),
(288,16,l),
(209,75,l),
(239,690,l)
);
}
);
};
guides = (
{
pos = (526,607);
}
);
layerId = "A35FF27A-F6CF-421F-968E-A83003DF6D8E";
name = "29 Oct 23 at 19:15";
shapes = (
{
closed = 1;
nodes = (
(446,-5,l),
(479,-5,l),
(772,690,l),
(676,690,l),
(473,82,l),
(509,82,l),
(252,690,l),
(152,690,l)
);
},
{
closed = 1;
nodes = (
(763,75,l),
(684,16,l),
(684,0,l),
(934,0,l),
(934,16,l),
(855,75,l),
(829,615,l),
(908,674,l),
(908,690,l),
(733,690,l)
);
},
{
closed = 1;
nodes = (
(62,690,l),
(62,674,l),
(147,604,l),
(139,627,l),
(107,75,l),
(28,16,l),
(28,0,l),
(264,0,l),
(264,16,l),
(185,75,l),
(188,690,l)
);
}
);
width = 962;
},
{
associatedMasterId = m002;
guides = (
{
pos = (521,538);
}
);
layerId = "D0EDFFC6-C820-4774-A152-49158C1AF072";
name = "10 Nov 23 at 21:39";
shapes = (
{
closed = 1;
nodes = (
(501,0,l),
(782,690,l),
(665,690,l),
(510,147,l),
(546,147,l),
(326,690,l),
(125,690,l),
(405,0,l)
);
},
{
closed = 1;
nodes = (
(263,0,l),
(263,24,l),
(194,93,l),
(184,690,l),
(52,690,l),
(52,666,l),
(138,594,l),
(132,630,l),
(71,93,l),
(2,24,l),
(2,0,l)
);
},
{
closed = 1;
nodes = (
(1009,0,l),
(1009,24,l),
(940,93,l),
(900,597,l),
(969,666,l),
(969,690,l),
(704,690,l),
(744,93,l),
(675,24,l),
(675,0,l)
);
}
);
width = 1011;
},
{
associatedMasterId = m01;
background = {
shapes = (
{
closed = 1;
nodes = (
(48,690,l),
(48,674,l),
(127,615,l),
(101,75,l),
(22,16,l),
(22,0,l),
(272,0,l),
(272,16,l),
(193,75,l),
(223,690,l)
);
}
);
};
guides = (
{
pos = (496,589);
},
{
pos = (804,615);
}
);
layerId = "6A960BD2-4B81-4B7F-BB52-DC7D09D5A3E6";
name = "10 Nov 23 at 22:14";
shapes = (
{
closed = 1;
nodes = (
(463,-5,l),
(756,690,l),
(675,690,l),
(457,82,l),
(493,82,l),
(236,690,l),
(136,690,l),
(430,-5,l)
);
},
{
closed = 1;
nodes = (
(238,0,l),
(238,16,l),
(159,75,l),
(182,690,l),
(56,690,l),
(56,674,l),
(141,608,l),
(133,627,l),
(81,75,l),
(2,16,l),
(2,0,l)
);
},
{
closed = 1;
nodes = (
(929,0,l),
(929,16,l),
(850,75,l),
(804,615,l),
(883,674,l),
(883,690,l),
(705,690,l),
(758,75,l),
(679,16,l),
(679,0,l)
);
}
);
width = 931;
},
{
associatedMasterId = m002;
guides = (
{
pos = (531,538);
}
);
layerId = "8138F81F-07CC-4424-837C-ABD87AE3FFA1";
name = "10 Nov 23 at 22:19";
shapes = (
{
closed = 1;
nodes = (
(521,0,l),
(792,690,l),
(675,690,l),
(530,147,l),
(556,147,l),
(336,690,l),
(135,690,l),
(415,0,l)
);
},
{
closed = 1;
nodes = (
(263,0,l),
(263,24,l),
(194,93,l),
(194,690,l),
(62,690,l),
(62,666,l),
(148,594,l),
(142,630,l),
(71,93,l),
(2,24,l),
(2,0,l)
);
},
{
closed = 1;
nodes = (
(1029,0,l),
(1029,24,l),
(960,93,l),
(910,597,l),
(979,666,l),
(979,690,l),
(707,690,l),
(766,93,l),
(697,24,l),
(697,0,l)
);
}
);
width = 1031;
},
{
associatedMasterId = m01;
background = {
shapes = (
{
closed = 1;
nodes = (
(48,690,l),
(48,674,l),
(127,615,l),
(101,75,l),
(22,16,l),
(22,0,l),
(272,0,l),
(272,16,l),
(193,75,l),
(223,690,l)
);
}
);
};
guides = (
{
pos = (496,589);
},
{
pos = (804,615);
}
);
layerId = "EB9ABAD3-2FEE-40B2-A52B-613F01931D1A";
name = "13 Nov 23 at 16:36";
shapes = (
{
closed = 1;
nodes = (
(463,0,l),
(754,690,l),
(673,690,l),
(455,82,l),
(493,82,l),
(236,690,l),
(136,690,l),
(428,0,l)
);
},
{
closed = 1;
nodes = (
(230,0,l),
(230,16,l),
(151,75,l),
(184,690,l),
(56,690,l),
(56,674,l),
(141,608,l),
(133,627,l),
(81,75,l),
(2,16,l),
(2,0,l)
);
},
{
closed = 1;
nodes = (
(927,0,l),
(927,16,l),
(848,75,l),
(802,615,l),
(881,674,l),
(881,690,l),
(703,690,l),
(756,75,l),
(677,16,l),
(677,0,l)
);
}
);
width = 929;
},
{
associatedMasterId = m002;
guides = (
{
pos = (521,538);
}
);
layerId = "C9FD38CF-7D32-49B2-8106-DAB9C7D93A95";
name = "13 Nov 23 at 16:36";
shapes = (
{
closed = 1;
nodes = (
(524,0,l),
(782,690,l),
(665,690,l),
(533,147,l),
(558,147,l),
(327,690,l),
(125,690,l),
(418,0,l)
);
},
{
closed = 1;
nodes = (
(240,0,l),
(240,24,l),
(171,93,l),
(212,690,l),
(62,690,l),
(62,666,l),
(148,594,l),
(142,630,l),
(71,93,l),
(2,24,l),
(2,0,l)
);
},
{
closed = 1;
nodes = (
(1019,0,l),
(1019,24,l),
(950,93,l),
(900,597,l),
(969,666,l),
(969,690,l),
(697,690,l),
(756,93,l),
(687,24,l),
(687,0,l)
);
}
);
width = 1021;
}
);
metricLeft = "=V";
metricRight = "=V";
unicode = 77;
userData = {
KernOnName = M;
};
},
{
color = 4;
glyphname = N;
kernLeft = KO_N;
kernRight = KO_N;
lastChange = "2024-02-04 05:23:04 +0000";
layers = (
{
associatedMasterId = m002;
layerId = "C9785D2C-8C7B-4B77-A376-E6F4F89E83C4";
name = "2 Nov 23 at 15:38";
shapes = (
{
closed = 1;
nodes = (
(725,0,l),
(764,597,l),
(833,666,l),
(833,690,l),
(565,690,l),
(565,666,l),
(634,597,l),
(680,93,l),
(670,205,l),
(256,690,l),
(135,690,l),
(135,545,l),
(601,0,l)
);
},
{
closed = 1;
nodes = (
(283,0,l),
(283,24,l),
(214,93,l),
(155,690,l),
(29,690,l),
(29,666,l),
(112,587,l),
(85,93,l),
(16,24,l),
(16,0,l)
);
}
);
width = 819;
},
{
associatedMasterId = m002;
layerId = "A22307AB-9EF1-4FE6-9EB7-844E9B216E9F";
name = "2 Nov 23 at 15:38";
shapes = (
{
closed = 1;
nodes = (
(725,0,l),
(764,597,l),
(833,666,l),
(833,690,l),
(565,690,l),
(565,666,l),
(634,597,l),
(680,93,l),
(670,205,l),
(256,690,l),
(135,690,l),
(135,545,l),
(601,0,l)
);
},
{
closed = 1;
nodes = (
(283,0,l),
(283,24,l),
(214,93,l),
(156,690,l),
(29,690,l),
(29,666,l),
(111,587,l),
(85,93,l),
(16,24,l),
(16,0,l)
);
}
);
width = 819;
},
{
anchors = (
{
name = bottom;
pos = (383,0);
},
{
name = top;
pos = (383,690);
}
);
guides = (
{
angle = 90;
pos = (201,86);
},
{
angle = 90;
pos = (72,45);
}
);
layerId = m002;
name = "Extra Bold";
shapes = (
{
closed = 1;
nodes = (
(674,0,l),
(674,597,l),
(743,666,l),
(743,690,l),
(495,690,l),
(495,666,l),
(564,597,l),
(632,122,l),
(664,173,l),
(252,690,l),
(135,690,l),
(135,543,l),
(568,0,l)
);
},
{
closed = 1;
nodes = (
(274,0,l),
(274,24,l),
(205,93,l),
(153,690,l),
(36,690,l),
(36,666,l),
(118,569,l),
(95,93,l),
(26,24,l),
(26,0,l)
);
}
);
width = 769;
},
{
associatedMasterId = m002;
layerId = "04F9CF93-04B6-4E7B-924E-42F68E5A8DDE";
name = "2 Nov 23 at 15:51";
shapes = (
{
closed = 1;
nodes = (
(704,0,l),
(748,597,l),
(817,666,l),
(817,690,l),
(549,690,l),
(549,666,l),
(618,597,l),
(667,93,l),
(679,153,l),
(286,690,l),
(141,690,l),
(141,573,l),
(561,0,l)
);
},
{
closed = 1;
nodes = (
(293,0,l),
(293,24,l),
(224,93,l),
(165,690,l),
(45,690,l),
(45,666,l),
(132,598,l),
(95,93,l),
(26,24,l),
(26,0,l)
);
}
);
width = 843;
},
{
associatedMasterId = m01;
guides = (
{
angle = 270;
pos = (27,8);
}
);
layerId = "2066F6C5-EBCF-4456-9ED7-322507269080";
name = "3 Nov 23 at 09:46";
shapes = (
{
closed = 1;
nodes = (
(668,-6,l),
(668,615,l),
(747,674,l),
(747,690,l),
(511,690,l),
(511,674,l),
(590,615,l),
(619,129,l),
(637,129,l),
(184,690,l),
(143,690,l),
(143,603,l),
(636,-6,l)
);
},
{
closed = 1;
nodes = (
(264,0,l),
(264,16,l),
(185,75,l),
(167,690,l),
(35,690,l),
(35,674,l),
(117,615,l),
(107,75,l),
(28,16,l),
(28,0,l)
);
}
);
width = 769;
},
{
anchors = (
{
name = bottom;
pos = (366,0);
},
{
name = top;
pos = (366,690);
}
);
guides = (
{
angle = 270;
pos = (24,8);
}
);
layerId = m01;
name = Light;
shapes = (
{
closed = 1;
nodes = (
(625,-6,l),
(625,615,l),
(704,674,l),
(704,690,l),
(464,690,l),
(464,674,l),
(543,615,l),
(581,129,l),
(603,129,l),
(166,690,l),
(134,690,l),
(134,585,l),
(593,-6,l)
);
},
{
closed = 1;
nodes = (
(270,0,l),
(270,16,l),
(191,75,l),
(158,690,l),
(52,690,l),
(52,674,l),
(121,597,l),
(109,75,l),
(30,16,l),
(30,0,l)
);
}
);
width = 734;
},
{
associatedMasterId = m002;
layerId = "599BE11E-0F37-48A7-B5E7-DA03F58A7ED8";
name = "3 Nov 23 at 09:46";
shapes = (
{
closed = 1;
nodes = (
(719,0,l),
(763,597,l),
(832,666,l),
(832,690,l),
(564,690,l),
(564,666,l),
(633,597,l),
(682,93,l),
(694,153,l),
(286,690,l),
(141,690,l),
(141,573,l),
(576,0,l)
);
},
{
closed = 1;
nodes = (
(293,0,l),
(293,24,l),
(224,93,l),
(165,690,l),
(45,690,l),
(45,666,l),
(132,598,l),
(95,93,l),
(26,24,l),
(26,0,l)
);
}
);
width = 858;
},
{
associatedMasterId = m01;
guides = (
{
angle = 270;
pos = (27,8);
}
);
layerId = "218D756E-D98D-4218-8FC4-C84E7A8D95DF";
name = "10 Nov 23 at 21:35";
shapes = (
{
closed = 1;
nodes = (
(645,-6,l),
(662,615,l),
(741,674,l),
(741,690,l),
(505,690,l),
(505,674,l),
(584,615,l),
(595,129,l),
(618,129,l),
(185,690,l),
(143,690,l),
(143,603,l),
(613,-6,l)
);
},
{
closed = 1;
nodes = (
(264,0,l),
(264,16,l),
(185,75,l),
(167,690,l),
(35,690,l),
(35,674,l),
(117,615,l),
(107,75,l),
(28,16,l),
(28,0,l)
);
}
);
width = 769;
},
{
associatedMasterId = m002;
layerId = "B99FD959-1B61-4E8C-AF22-BF5F802E8791";
name = "10 Nov 23 at 21:39";
shapes = (
{
closed = 1;
nodes = (
(719,0,l),
(757,597,l),
(826,666,l),
(826,690,l),
(558,690,l),
(558,666,l),
(627,597,l),
(680,93,l),
(694,153,l),
(286,690,l),
(141,690,l),
(141,573,l),
(576,0,l)
);
},
{
closed = 1;
nodes = (
(293,0,l),
(293,24,l),
(224,93,l),
(165,690,l),
(45,690,l),
(45,666,l),
(132,598,l),
(95,93,l),
(26,24,l),
(26,0,l)
);
}
);
width = 852;
},
{
associatedMasterId = m01;
guides = (
{
angle = 270;
pos = (27,8);
}
);
layerId = "A730C60F-98B5-4D3F-BC71-F5A83E47289F";
name = "10 Nov 23 at 22:06";
shapes = (
{
closed = 1;
nodes = (
(630,-6,l),
(647,615,l),
(726,674,l),
(726,690,l),
(490,690,l),
(490,674,l),
(569,615,l),
(580,129,l),
(612,129,l),
(193,690,l),
(143,690,l),
(143,603,l),
(598,-6,l)
);
},
{
closed = 1;
nodes = (
(264,0,l),
(264,16,l),
(185,75,l),
(167,690,l),
(35,690,l),
(35,674,l),
(117,615,l),
(107,75,l),
(28,16,l),
(28,0,l)
);
}
);
width = 754;
},
{
associatedMasterId = m002;
guides = (
{
angle = 90;
pos = (227,86);
},
{
angle = 90;
pos = (98,45);
}
);
layerId = "E585A2E5-4034-4EFF-9424-8A100E5B6C19";
name = "10 Nov 23 at 22:14";
shapes = (
{
closed = 1;
nodes = (
(678,0,l),
(729,597,l),
(798,666,l),
(798,690,l),
(530,690,l),
(530,666,l),
(599,597,l),
(639,93,l),
(672,173,l),
(270,690,l),
(136,690,l),
(136,561,l),
(572,0,l)
);
},
{
closed = 1;
nodes = (
(293,0,l),
(293,24,l),
(224,93,l),
(165,690,l),
(45,690,l),
(45,666,l),
(132,598,l),
(95,93,l),
(26,24,l),
(26,0,l)
);
}
);
width = 824;
},
{
associatedMasterId = m01;
guides = (
{
angle = 270;
pos = (17,8);
}
);
layerId = "15D7D660-810A-4A30-BE74-BB325349B147";
name = "10 Nov 23 at 22:48";
shapes = (
{
closed = 1;
nodes = (
(620,-6,l),
(620,615,l),
(699,674,l),
(699,690,l),
(478,690,l),
(478,674,l),
(557,615,l),
(557,129,l),
(602,129,l),
(183,690,l),
(133,690,l),
(133,603,l),
(588,-6,l)
);
},
{
closed = 1;
nodes = (
(249,0,l),
(249,16,l),
(170,75,l),
(170,690,l),
(28,690,l),
(28,674,l),
(107,615,l),
(107,75,l),
(28,16,l),
(28,0,l)
);
}
);
width = 727;
},
{
associatedMasterId = m002;
guides = (
{
angle = 90;
pos = (220,86);
},
{
angle = 90;
pos = (91,45);
}
);
layerId = "C5516F5E-E8B6-4233-8656-E6BC8457A146";
name = "13 Nov 23 at 16:27";
shapes = (
{
closed = 1;
nodes = (
(705,0,l),
(705,597,l),
(774,666,l),
(774,690,l),
(536,690,l),
(536,666,l),
(605,597,l),
(605,122,l),
(696,173,l),
(262,690,l),
(129,690,l),
(129,561,l),
(599,0,l)
);
},
{
closed = 1;
nodes = (
(264,0,l),
(264,24,l),
(195,93,l),
(195,690,l),
(26,690,l),
(26,666,l),
(95,597,l),
(95,93,l),
(26,24,l),
(26,0,l)
);
}
);
width = 800;
},
{
associatedMasterId = m01;
guides = (
{
angle = 270;
pos = (19,8);
}
);
layerId = "6ACE3F8D-94DE-4E51-9BC4-319113DC1769";
name = "13 Nov 23 at 16:27";
shapes = (
{
closed = 1;
nodes = (
(633,-6,l),
(633,615,l),
(712,674,l),
(712,690,l),
(491,690,l),
(491,674,l),
(570,615,l),
(570,129,l),
(614,129,l),
(184,690,l),
(135,690,l),
(135,603,l),
(601,-6,l)
);
},
{
closed = 1;
nodes = (
(251,0,l),
(251,16,l),
(172,75,l),
(172,690,l),
(30,690,l),
(30,674,l),
(109,615,l),
(109,75,l),
(30,16,l),
(30,0,l)
);
}
);
width = 742;
},
{
associatedMasterId = m002;
guides = (
{
angle = 90;
pos = (202,86);
},
{
angle = 90;
pos = (73,45);
}
);
layerId = "B116CB02-F9E0-4A8D-9FA3-47AC5AF48E37";
name = "13 Nov 23 at 17:08";
shapes = (
{
closed = 1;
nodes = (
(687,0,l),
(687,597,l),
(756,666,l),
(756,690,l),
(508,690,l),
(508,666,l),
(577,597,l),
(635,122,l),
(678,173,l),
(244,690,l),
(126,690,l),
(126,543,l),
(581,0,l)
);
},
{
closed = 1;
nodes = (
(274,0,l),
(274,24,l),
(205,93,l),
(161,690,l),
(30,690,l),
(30,666,l),
(115,594,l),
(95,93,l),
(26,24,l),
(26,0,l)
);
}
);
width = 782;
},
{
associatedMasterId = m01;
guides = (
{
angle = 270;
pos = (27,8);
}
);
layerId = "C1468CE8-6B06-4AD8-8E8A-8C9846EE1F36";
name = "13 Nov 23 at 17:09";
shapes = (
{
closed = 1;
nodes = (
(633,-6,l),
(633,615,l),
(712,674,l),
(712,690,l),
(472,690,l),
(472,674,l),
(551,615,l),
(586,129,l),
(614,129,l),
(193,690,l),
(143,690,l),
(143,603,l),
(601,-6,l)
);
},
{
closed = 1;
nodes = (
(270,0,l),
(270,16,l),
(191,75,l),
(165,690,l),
(43,690,l),
(43,674,l),
(122,615,l),
(109,75,l),
(30,16,l),
(30,0,l)
);
}
);
width = 742;
},
{
associatedMasterId = m01;
guides = (
{
angle = 270;
pos = (27,8);
}
);
layerId = "1FBC46CB-C0DB-43DE-BC11-AB85A7F6C4C2";
name = "15 Nov 23 at 14:35";
shapes = (
{
closed = 1;
nodes = (
(628,-6,l),
(628,615,l),
(707,674,l),
(707,690,l),
(467,690,l),
(467,674,l),
(546,615,l),
(581,129,l),
(610,129,l),
(193,690,l),
(143,690,l),
(143,603,l),
(596,-6,l)
);
},
{
closed = 1;
nodes = (
(270,0,l),
(270,16,l),
(191,75,l),
(165,690,l),
(43,690,l),
(43,674,l),
(122,615,l),
(109,75,l),
(30,16,l),
(30,0,l)
);
}
);
width = 737;
},
{
associatedMasterId = m002;
guides = (
{
angle = 90;
pos = (204,86);
},
{
angle = 90;
pos = (75,45);
}
);
layerId = "75B99FDB-222C-43B2-BC88-B6107019A6AF";
name = "15 Nov 23 at 14:36";
shapes = (
{
closed = 1;
nodes = (
(677,0,l),
(677,597,l),
(746,666,l),
(746,690,l),
(498,690,l),
(498,666,l),
(567,597,l),
(627,122,l),
(669,173,l),
(247,690,l),
(128,690,l),
(128,543,l),
(571,0,l)
);
},
{
closed = 1;
nodes = (
(274,0,l),
(274,24,l),
(205,93,l),
(161,690,l),
(32,690,l),
(32,666,l),
(117,594,l),
(95,93,l),
(26,24,l),
(26,0,l)
);
}
);
width = 772;
},
{
associatedMasterId = m002;
guides = (
{
angle = 90;
pos = (204,86);
},
{
angle = 90;
pos = (75,45);
}
);
layerId = "37D366DD-4016-455A-A147-2E06A91FE919";
name = "17 Nov 23 at 14:06";
shapes = (
{
closed = 1;
nodes = (
(677,0,l),
(677,597,l),
(746,666,l),
(746,690,l),
(498,690,l),
(498,666,l),
(567,597,l),
(635,122,l),
(666,173,l),
(244,690,l),
(128,690,l),
(128,543,l),
(571,0,l)
);
},
{
closed = 1;
nodes = (
(274,0,l),
(274,24,l),
(205,93,l),
(156,690,l),
(34,690,l),
(34,666,l),
(119,594,l),
(95,93,l),
(26,24,l),
(26,0,l)
);
}
);
width = 772;
},
{
associatedMasterId = m01;
guides = (
{
angle = 270;
pos = (26,8);
}
);
layerId = "FE699A44-C19B-4044-85C1-1E6185BA836E";
name = "17 Nov 23 at 14:07";
shapes = (
{
closed = 1;
nodes = (
(627,-6,l),
(627,615,l),
(706,674,l),
(706,690,l),
(466,690,l),
(466,674,l),
(545,615,l),
(584,129,l),
(607,129,l),
(190,690,l),
(142,690,l),
(142,603,l),
(595,-6,l)
);
},
{
closed = 1;
nodes = (
(270,0,l),
(270,16,l),
(191,75,l),
(161,690,l),
(44,690,l),
(44,674,l),
(123,615,l),
(109,75,l),
(30,16,l),
(30,0,l)
);
}
);
width = 736;
},
{
associatedMasterId = m01;
guides = (
{
angle = 270;
pos = (26,8);
}
);
layerId = "63F6AE1A-4288-40D4-B6BA-9866E9FFEC26";
name = "18 Nov 23 at 13:57";
shapes = (
{
closed = 1;
nodes = (
(627,-6,l),
(627,615,l),
(706,674,l),
(706,690,l),
(466,690,l),
(466,674,l),
(545,615,l),
(584,129,l),
(607,129,l),
(190,690,l),
(142,690,l),
(142,603,l),
(595,-6,l)
);
},
{
closed = 1;
nodes = (
(270,0,l),
(270,16,l),
(191,75,l),
(161,690,l),
(54,690,l),
(54,674,l),
(123,611,l),
(109,75,l),
(30,16,l),
(30,0,l)
);
}
);
width = 736;
},
{
associatedMasterId = m002;
guides = (
{
angle = 90;
pos = (204,86);
},
{
angle = 90;
pos = (75,45);
}
);
layerId = "BD00CBDC-27A5-4194-92F2-D36322418713";
name = "18 Nov 23 at 13:59";
shapes = (
{
closed = 1;
nodes = (
(677,0,l),
(677,597,l),
(746,666,l),
(746,690,l),
(498,690,l),
(498,666,l),
(567,597,l),
(635,122,l),
(666,173,l),
(244,690,l),
(128,690,l),
(128,543,l),
(571,0,l)
);
},
{
closed = 1;
nodes = (
(274,0,l),
(274,24,l),
(205,93,l),
(156,690,l),
(34,690,l),
(34,666,l),
(119,566,l),
(95,93,l),
(26,24,l),
(26,0,l)
);
}
);
width = 772;
}
);
metricLeft = "=H";
metricRight = "=H";
unicode = 78;
userData = {
KernOnName = N;
};
},
{
color = 4;
glyphname = Nhookleft;
kernRight = KO_N;
lastChange = "2024-01-09 04:09:32 +0000";
layers = (
{
anchors = (
{
name = bottom;
pos = (366,0);
},
{
name = top;
pos = (366,690);
}
);
layerId = m01;
shapes = (
{
closed = 1;
nodes = (
(625,-6,l),
(625,615,l),
(704,674,l),
(704,690,l),
(464,690,l),
(464,674,l),
(543,615,l),
(581,129,l),
(603,129,l),
(166,690,l),
(134,690,l),
(134,585,l),
(593,-6,l)
);
},
{
closed = 1;
nodes = (
(156,-251,o),
(193,-181,o),
(186,0,cs),
(160,690,l),
(52,690,l),
(52,674,l),
(121,597,l),
(109,0,ls),
(106,-151,o),
(92,-201,o),
(54,-201,cs),
(25,-201,o),
(12,-172,o),
(12,-105,c),
(-66,-105,l),
(-66,-207,o),
(-29,-251,o),
(54,-251,cs)
);
}
);
width = 734;
},
{
anchors = (
{
name = bottom;
pos = (385,0);
},
{
name = top;
pos = (385,690);
}
);
layerId = m002;
shapes = (
{
closed = 1;
nodes = (
(674,0,l),
(674,597,l),
(743,666,l),
(743,690,l),
(495,690,l),
(495,666,l),
(564,597,l),
(632,122,l),
(664,173,l),
(252,690,l),
(135,690,l),
(135,543,l),
(568,0,l)
);
},
{
closed = 1;
nodes = (
(168,-251,o),
(209,-188,o),
(198,0,cs),
(158,690,l),
(36,690,l),
(36,666,l),
(118,569,l),
(95,0,ls),
(89,-151,o),
(74,-201,o),
(37,-201,cs),
(7,-201,o),
(-4,-169,o),
(-4,-85,c),
(-117,-85,l),
(-117,-196,o),
(-67,-251,o),
(33,-251,cs)
);
}
);
width = 769;
}
);
metricRight = "=N";
unicode = 413;
},
{
color = 4;
glyphname = Eng;
kernLeft = KO_N;
kernRight = KO_N;
lastChange = "2024-01-09 04:09:29 +0000";
layers = (
{
layerId = m01;
shapes = (
{
closed = 1;
nodes = (
(537,-251,o),
(625,-163,o),
(625,-38,cs),
(625,122,l),
(538,122,l),
(538,-42,ls),
(538,-137,o),
(494,-197,o),
(425,-197,cs),
(376,-197,o),
(344,-178,o),
(299,-122,c),
(299,-204,l),
(380,-204,l),
(305,-48,l),
(289,-48,l),
(221,-166,l),
(271,-218,o),
(345,-251,o),
(413,-251,cs)
);
},
{
ref = N;
}
);
width = 734;
},
{
layerId = m002;
shapes = (
{
closed = 1;
nodes = (
(586,-251,o),
(674,-163,o),
(674,-38,cs),
(674,122,l),
(558,122,l),
(558,-22,ls),
(558,-121,o),
(521,-183,o),
(463,-183,cs),
(416,-183,o),
(381,-162,o),
(349,-115,c),
(349,-216,l),
(468,-216,l),
(335,-22,l),
(308,-22,l),
(226,-168,l),
(292,-221,o),
(376,-251,o),
(462,-251,cs)
);
},
{
ref = N;
}
);
width = 769;
},
{
associatedMasterId = m01;
layerId = "5A0A2E06-0FCE-4319-8A3E-09C603F094AA";
name = "2 Dec 23 at 07:21";
shapes = (
{
closed = 1;
nodes = (
(482,-235,l),
(585,-178,o),
(625,-114,o),
(625,-6,c),
(625,110,l),
(551,110,l),
(551,-156,l),
(573,-132,l),
(435,-108,l),
(427,-124,l),
(471,-235,l)
);
},
{
ref = N;
}
);
width = 736;
}
);
metricLeft = "=N";
metricRight = "=N";
unicode = 330;
},
{
color = 4;
glyphname = O;
kernLeft = KO_O;
kernRight = KO_O;
lastChange = "2024-02-04 05:23:03 +0000";
layers = (
{
anchors = (
{
name = bottom;
pos = (380,0);
},
{
name = center;
pos = (387,345);
},
{
name = ogonek;
pos = (488,0);
},
{
name = qtail;
pos = (451,0);
},
{
name = top;
pos = (387,690);
},
{
name = topleft;
pos = (15,690);
},
{
name = topright;
pos = (431,690);
}
);
layerId = m01;
shapes = (
{
closed = 1;
nodes = (
(584,-16,o),
(728,136,o),
(728,352,cs),
(728,563,o),
(590,706,o),
(393,706,cs),
(189,706,o),
(45,554,o),
(45,338,cs),
(45,127,o),
(183,-16,o),
(380,-16,cs)
);
},
{
closed = 1;
nodes = (
(246,41,o),
(150,164,o),
(150,359,cs),
(150,537,o),
(237,649,o),
(375,649,cs),
(527,649,o),
(623,526,o),
(623,331,cs),
(623,153,o),
(536,41,o),
(398,41,cs)
);
}
);
width = 773;
},
{
associatedMasterId = m01;
layerId = "4B5359D8-5C3C-4EAD-988D-C5E79A7FA3B5";
name = "22 Aug 23 at 12:03";
shapes = (
{
closed = 1;
nodes = (
(591,-16,o),
(737,138,o),
(737,357,cs),
(737,552,o),
(587,706,o),
(396,706,cs),
(188,706,o),
(42,552,o),
(42,333,cs),
(42,138,o),
(192,-16,o),
(383,-16,cs)
);
},
{
closed = 1;
nodes = (
(239,40,o),
(138,167,o),
(138,369,cs),
(138,542,o),
(231,650,o),
(378,650,cs),
(540,650,o),
(641,523,o),
(641,321,cs),
(641,148,o),
(548,40,o),
(401,40,cs)
);
}
);
width = 779;
},
{
anchors = (
{
name = bottom;
pos = (418,0);
},
{
name = center;
pos = (420,345);
},
{
name = ogonek;
pos = (546,0);
},
{
name = qtail;
pos = (476,0);
},
{
name = top;
pos = (420,690);
},
{
name = topleft;
pos = (16,690);
},
{
name = topright;
pos = (512,690);
}
);
layerId = m002;
shapes = (
{
closed = 1;
nodes = (
(656,-16,o),
(807,125,o),
(807,350,cs),
(807,569,o),
(659,706,o),
(424,706,cs),
(183,706,o),
(32,565,o),
(32,340,cs),
(32,121,o),
(180,-16,o),
(415,-16,cs)
);
},
{
closed = 1;
nodes = (
(316,57,o),
(247,174,o),
(247,361,cs),
(247,535,o),
(306,633,o),
(412,633,cs),
(523,633,o),
(592,516,o),
(592,329,cs),
(592,155,o),
(533,57,o),
(427,57,cs)
);
}
);
width = 839;
},
{
associatedMasterId = m002;
layerId = "53B6C055-2B2D-4198-9E9A-BF683F5FE9FD";
name = "7 Oct 23 at 08:21";
shapes = (
{
closed = 1;
nodes = (
(620,-16,o),
(789,153,o),
(789,367,cs),
(789,566,o),
(636,706,o),
(419,706,cs),
(205,706,o),
(36,537,o),
(36,323,cs),
(36,124,o),
(189,-16,o),
(406,-16,cs)
);
},
{
closed = 1;
nodes = (
(312,56,o),
(241,177,o),
(241,369,cs),
(241,539,o),
(298,634,o),
(401,634,cs),
(513,634,o),
(584,513,o),
(584,321,cs),
(584,151,o),
(527,56,o),
(424,56,cs)
);
}
);
width = 825;
},
{
associatedMasterId = m002;
layerId = "706DFDE0-3502-4BE9-A950-F4F49DBAD841";
name = "10 Oct 23 at 17:07";
shapes = (
{
closed = 1;
nodes = (
(634,-16,o),
(793,142,o),
(793,367,cs),
(793,566,o),
(638,706,o),
(418,706,cs),
(193,706,o),
(34,548,o),
(34,323,cs),
(34,124,o),
(189,-16,o),
(409,-16,cs)
);
},
{
closed = 1;
nodes = (
(315,57,o),
(245,177,o),
(245,369,cs),
(245,538,o),
(301,633,o),
(400,633,cs),
(512,633,o),
(582,513,o),
(582,321,cs),
(582,152,o),
(526,57,o),
(427,57,cs)
);
}
);
width = 827;
},
{
associatedMasterId = m002;
layerId = "68D48603-4004-46F4-A79B-C9402F61A7D8";
name = "15 Oct 23 at 14:48";
shapes = (
{
closed = 1;
nodes = (
(657,-16,o),
(807,129,o),
(807,360,cs),
(807,563,o),
(650,706,o),
(426,706,cs),
(186,706,o),
(36,561,o),
(36,330,cs),
(36,127,o),
(193,-16,o),
(417,-16,cs)
);
},
{
closed = 1;
nodes = (
(323,57,o),
(249,175,o),
(249,364,cs),
(249,537,o),
(304,633,o),
(403,633,cs),
(520,633,o),
(594,515,o),
(594,326,cs),
(594,153,o),
(539,57,o),
(440,57,cs)
);
}
);
width = 843;
},
{
associatedMasterId = m002;
layerId = "6BC559CA-0FEB-4280-92CB-014FF6965E1E";
name = "20 Oct 23 at 17:00";
shapes = (
{
closed = 1;
nodes = (
(650,-16,o),
(807,143,o),
(807,369,cs),
(807,567,o),
(646,706,o),
(416,706,cs),
(193,706,o),
(36,547,o),
(36,321,cs),
(36,123,o),
(197,-16,o),
(427,-16,cs)
);
},
{
closed = 1;
nodes = (
(323,57,o),
(249,174,o),
(249,360,cs),
(249,535,o),
(304,633,o),
(403,633,cs),
(520,633,o),
(594,516,o),
(594,330,cs),
(594,155,o),
(539,57,o),
(440,57,cs)
);
}
);
width = 843;
},
{
associatedMasterId = m002;
layerId = "0CA6C685-6F55-42C8-9F7F-254C281D6521";
name = "22 Oct 23 at 11:34";
shapes = (
{
closed = 1;
nodes = (
(657,-16,o),
(807,130,o),
(807,362,cs),
(807,573,o),
(660,706,o),
(426,706,cs),
(186,706,o),
(36,560,o),
(36,328,cs),
(36,117,o),
(183,-16,o),
(417,-16,cs)
);
},
{
closed = 1;
nodes = (
(321,57,o),
(249,175,o),
(249,364,cs),
(249,537,o),
(306,633,o),
(408,633,cs),
(522,633,o),
(594,515,o),
(594,326,cs),
(594,153,o),
(537,57,o),
(435,57,cs)
);
}
);
width = 843;
},
{
associatedMasterId = m01;
layerId = "F12D4DD8-11ED-4630-A555-BD8AD39FFF50";
name = "22 Oct 23 at 11:34";
shapes = (
{
closed = 1;
nodes = (
(580,-16,o),
(733,148,o),
(733,357,cs),
(733,562,o),
(595,706,o),
(398,706,cs),
(203,706,o),
(50,542,o),
(50,333,cs),
(50,128,o),
(188,-16,o),
(385,-16,cs)
);
},
{
closed = 1;
nodes = (
(251,41,o),
(155,168,o),
(155,369,cs),
(155,541,o),
(242,649,o),
(380,649,cs),
(532,649,o),
(628,522,o),
(628,321,cs),
(628,149,o),
(541,41,o),
(403,41,cs)
);
}
);
width = 783;
},
{
associatedMasterId = m002;
layerId = "710AE380-85D4-4BFA-93C6-AE6385B36B9E";
name = "27 Oct 23 at 19:12";
shapes = (
{
closed = 1;
nodes = (
(657,-16,o),
(807,125,o),
(807,350,cs),
(807,569,o),
(660,706,o),
(426,706,cs),
(186,706,o),
(36,565,o),
(36,340,cs),
(36,121,o),
(183,-16,o),
(417,-16,cs)
);
},
{
closed = 1;
nodes = (
(318,57,o),
(249,174,o),
(249,361,cs),
(249,535,o),
(308,633,o),
(414,633,cs),
(525,633,o),
(594,516,o),
(594,329,cs),
(594,155,o),
(535,57,o),
(429,57,cs)
);
}
);
width = 843;
},
{
anchors = (
{
name = bottom;
pos = (424,0);
},
{
name = center;
pos = (392,345);
},
{
name = ogonek;
pos = (705,10);
},
{
name = qtail;
pos = (456,0);
},
{
name = top;
pos = (392,690);
},
{
name = topleft;
pos = (20,690);
},
{
name = topright;
pos = (763,690);
}
);
associatedMasterId = m01;
layerId = "B965BD0A-20DB-4FC3-AA77-E7A38881349C";
name = "10 Nov 23 at 22:22";
shapes = (
{
closed = 1;
nodes = (
(589,-16,o),
(733,136,o),
(733,352,cs),
(733,563,o),
(595,706,o),
(398,706,cs),
(194,706,o),
(50,554,o),
(50,338,cs),
(50,127,o),
(188,-16,o),
(385,-16,cs)
);
},
{
closed = 1;
nodes = (
(251,41,o),
(155,168,o),
(155,369,cs),
(155,541,o),
(242,649,o),
(380,649,cs),
(532,649,o),
(628,522,o),
(628,321,cs),
(628,149,o),
(541,41,o),
(403,41,cs)
);
}
);
width = 783;
},
{
anchors = (
{
name = bottom;
pos = (424,0);
},
{
name = center;
pos = (424,345);
},
{
name = ogonek;
pos = (762,10);
},
{
name = qtail;
pos = (480,0);
},
{
name = top;
pos = (424,690);
},
{
name = topleft;
pos = (20,690);
},
{
name = topright;
pos = (827,690);
}
);
associatedMasterId = m002;
layerId = "5AD1FE21-32F9-4B2F-928B-F37F79D1ED5E";
name = "10 Nov 23 at 22:23";
shapes = (
{
closed = 1;
nodes = (
(660,-16,o),
(811,125,o),
(811,350,cs),
(811,569,o),
(663,706,o),
(428,706,cs),
(187,706,o),
(36,565,o),
(36,340,cs),
(36,121,o),
(184,-16,o),
(419,-16,cs)
);
},
{
closed = 1;
nodes = (
(320,57,o),
(251,174,o),
(251,361,cs),
(251,535,o),
(310,633,o),
(416,633,cs),
(527,633,o),
(596,516,o),
(596,329,cs),
(596,155,o),
(537,57,o),
(431,57,cs)
);
}
);
width = 847;
}
);
metricRight = "=|";
unicode = 79;
userData = {
KernOnName = O;
};
},
{
glyphname = Oogonek;
kernLeft = KO_O;
kernRight = KO_O;
lastChange = "2023-12-22 05:51:16 +0000";
layers = (
{
anchors = (
{
name = bottom;
pos = (380,0);
},
{
name = center;
pos = (387,345);
},
{
name = ogonek;
pos = (488,0);
},
{
name = qtail;
pos = (451,0);
},
{
name = top;
pos = (387,690);
},
{
name = topleft;
pos = (15,690);
},
{
name = topright;
pos = (758,690);
}
);
layerId = m01;
shapes = (
{
closed = 1;
nodes = (
(584,-16,o),
(728,136,o),
(728,352,cs),
(728,563,o),
(590,706,o),
(393,706,cs),
(189,706,o),
(45,554,o),
(45,338,cs),
(45,127,o),
(183,-16,o),
(380,-16,cs)
);
},
{
closed = 1;
nodes = (
(526,-251,o),
(576,-215,o),
(593,-158,c),
(579,-148,l),
(560,-169,o),
(530,-182,o),
(502,-182,cs),
(459,-182,o),
(438,-157,o),
(438,-107,cs),
(438,-55,o),
(466,-9,o),
(505,5,c),
(505,20,l),
(427,20,l),
(427,-15,l),
(385,-39,o),
(356,-93,o),
(356,-147,cs),
(356,-208,o),
(400,-251,o),
(463,-251,cs)
);
},
{
closed = 1;
nodes = (
(246,41,o),
(150,164,o),
(150,359,cs),
(150,537,o),
(237,649,o),
(375,649,cs),
(527,649,o),
(623,526,o),
(623,331,cs),
(623,153,o),
(536,41,o),
(398,41,cs)
);
}
);
width = 773;
},
{
anchors = (
{
name = bottom;
pos = (418,0);
},
{
name = center;
pos = (420,345);
},
{
name = ogonek;
pos = (546,0);
},
{
name = qtail;
pos = (476,0);
},
{
name = top;
pos = (420,690);
},
{
name = topleft;
pos = (16,690);
},
{
name = topright;
pos = (823,690);
}
);
layerId = m002;
shapes = (
{
closed = 1;
nodes = (
(656,-16,o),
(807,125,o),
(807,350,cs),
(807,569,o),
(659,706,o),
(424,706,cs),
(183,706,o),
(32,565,o),
(32,340,cs),
(32,121,o),
(180,-16,o),
(415,-16,cs)
);
},
{
closed = 1;
nodes = (
(593,-251,o),
(638,-218,o),
(660,-143,c),
(642,-132,l),
(620,-155,o),
(598,-165,o),
(569,-165,cs),
(525,-165,o),
(498,-137,o),
(498,-92,cs),
(498,-48,o),
(523,-10,o),
(562,4,c),
(562,24,l),
(475,23,l),
(475,-16,l),
(425,-40,o),
(390,-92,o),
(390,-143,cs),
(390,-212,o),
(434,-251,o),
(513,-251,cs)
);
},
{
closed = 1;
nodes = (
(316,57,o),
(247,174,o),
(247,361,cs),
(247,535,o),
(306,633,o),
(412,633,cs),
(523,633,o),
(592,516,o),
(592,329,cs),
(592,155,o),
(533,57,o),
(427,57,cs)
);
}
);
width = 839;
}
);
unicode = 490;
},
{
color = 4;
glyphname = OE;
kernRight = KO_E;
lastChange = "2024-01-09 04:09:16 +0000";
layers = (
{
layerId = m01;
shapes = (
{
closed = 1;
nodes = (
(558,0,l),
(558,50,l),
(403,50,ls),
(248,50,o),
(150,169,o),
(150,359,cs),
(150,539,o),
(244,640,o),
(413,640,cs),
(558,640,l),
(558,690,l),
(413,690,ls),
(197,690,o),
(45,543,o),
(45,333,cs),
(45,137,o),
(189,0,o),
(393,0,cs)
);
},
{
closed = 1;
nodes = (
(895,0,l),
(895,59,l),
(574,43,l),
(574,0,l)
);
},
{
closed = 1;
nodes = (
(592,0,l),
(592,690,l),
(496,690,l),
(496,0,l)
);
},
{
closed = 1;
nodes = (
(935,0,l),
(941,167,l),
(925,167,l),
(800,41,l),
(800,0,l)
);
},
{
closed = 1;
nodes = (
(810,388,l),
(565,377,l),
(565,334,l),
(810,324,l)
);
},
{
closed = 1;
nodes = (
(842,261,l),
(842,451,l),
(826,451,l),
(746,375,l),
(746,337,l),
(826,261,l)
);
},
{
closed = 1;
nodes = (
(895,690,l),
(574,690,l),
(574,647,l),
(895,631,l)
);
},
{
closed = 1;
nodes = (
(929,546,l),
(923,698,l),
(912,698,l),
(799,690,l),
(799,646,l),
(913,546,l)
);
}
);
width = 986;
},
{
layerId = m002;
shapes = (
{
closed = 1;
nodes = (
(592,0,l),
(592,60,l),
(455,60,ls),
(327,60,o),
(246,170,o),
(246,345,cs),
(246,520,o),
(327,630,o),
(455,630,cs),
(592,630,l),
(592,690,l),
(451,690,ls),
(205,690,o),
(32,544,o),
(32,337,cs),
(32,130,o),
(187,0,o),
(434,0,cs)
);
},
{
closed = 1;
nodes = (
(970,0,l),
(970,75,l),
(654,48,l),
(654,0,l)
);
},
{
closed = 1;
nodes = (
(712,0,l),
(712,690,l),
(516,690,l),
(516,0,l)
);
},
{
closed = 1;
nodes = (
(1003,0,l),
(1009,188,l),
(982,188,l),
(821,47,l),
(821,0,l)
);
},
{
closed = 1;
nodes = (
(891,396,l),
(654,378,l),
(654,333,l),
(891,316,l)
);
},
{
closed = 1;
nodes = (
(919,244,l),
(919,468,l),
(892,468,l),
(794,377,l),
(794,335,l),
(892,244,l)
);
},
{
closed = 1;
nodes = (
(970,690,l),
(654,690,l),
(654,642,l),
(970,615,l)
);
},
{
closed = 1;
nodes = (
(989,518,l),
(989,706,l),
(969,706,l),
(812,690,l),
(812,643,l),
(962,518,l)
);
}
);
width = 1041;
}
);
metricLeft = "=O";
metricRight = "=E";
unicode = 338;
},
{
color = 4;
glyphname = P;
kernLeft = KO_H;
kernRight = KO_P;
lastChange = "2024-02-04 05:23:04 +0000";
layers = (
{
guides = (
{
pos = (309,487);
}
);
layerId = m01;
shapes = (
{
closed = 1;
nodes = (
(299,0,l),
(299,16,l),
(205,75,l),
(205,690,l),
(30,690,l),
(30,674,l),
(109,615,l),
(109,75,l),
(30,16,l),
(30,0,l)
);
},
{
closed = 1;
nodes = (
(445,284,o),
(556,372,o),
(556,498,cs),
(556,616,o),
(460,690,o),
(307,690,cs),
(142,690,l),
(142,640,l),
(297,640,ls),
(392,640,o),
(452,581,o),
(452,487,cs),
(452,397,o),
(388,334,o),
(297,334,c),
(170,334,l),
(170,284,l),
(287,284,ls)
);
}
);
width = 601;
},
{
layerId = m002;
shapes = (
{
closed = 1;
nodes = (
(360,0,l),
(360,24,l),
(291,93,l),
(291,690,l),
(26,690,l),
(26,666,l),
(95,597,l),
(95,93,l),
(26,24,l),
(26,0,l)
);
},
{
closed = 1;
nodes = (
(554,250,o),
(671,328,o),
(671,485,cs),
(671,608,o),
(557,690,o),
(395,690,cs),
(189,690,l),
(189,630,l),
(317,630,ls),
(403,630,o),
(457,571,o),
(457,476,cs),
(457,374,o),
(403,310,o),
(317,310,cs),
(161,310,l),
(161,250,l),
(317,250,ls)
);
}
);
width = 703;
},
{
associatedMasterId = m002;
layerId = "2AC72D04-D6CE-4489-A0C4-C6B98106A765";
name = "10 Nov 23 at 21:15";
shapes = (
{
closed = 1;
nodes = (
(360,0,l),
(360,24,l),
(291,93,l),
(291,690,l),
(26,690,l),
(26,666,l),
(95,597,l),
(95,93,l),
(26,24,l),
(26,0,l)
);
},
{
closed = 1;
nodes = (
(544,250,o),
(671,337,o),
(671,492,cs),
(671,603,o),
(550,690,o),
(395,690,cs),
(189,690,l),
(189,630,l),
(327,630,ls),
(403,630,o),
(457,570,o),
(457,484,cs),
(457,382,o),
(403,310,o),
(327,310,cs),
(161,310,l),
(161,250,l),
(317,250,ls)
);
}
);
width = 707;
},
{
associatedMasterId = m01;
layerId = "0F50A835-B805-4F81-B79A-A5F28F6761CD";
name = "10 Nov 23 at 21:21";
shapes = (
{
closed = 1;
nodes = (
(297,0,l),
(297,16,l),
(203,75,l),
(203,690,l),
(28,690,l),
(28,674,l),
(107,615,l),
(107,75,l),
(28,16,l),
(28,0,l)
);
},
{
closed = 1;
nodes = (
(436,284,o),
(554,383,o),
(554,508,cs),
(554,615,o),
(451,690,o),
(305,690,cs),
(140,690,l),
(140,640,l),
(295,640,ls),
(390,640,o),
(450,579,o),
(450,482,cs),
(450,395,o),
(386,334,o),
(295,334,c),
(168,334,l),
(168,284,l),
(285,284,ls)
);
}
);
width = 604;
}
);
metricLeft = "=H";
metricRight = "=O";
unicode = 80;
userData = {
KernOnName = P;
};
},
{
color = 4;
glyphname = Thorn;
kernLeft = KO_H;
kernRight = KO_Thorn;
lastChange = "2024-01-09 04:09:18 +0000";
layers = (
{
layerId = m01;
shapes = (
{
closed = 1;
nodes = (
(284,0,l),
(284,16,l),
(205,75,l),
(205,615,l),
(284,674,l),
(284,690,l),
(30,690,l),
(30,674,l),
(109,615,l),
(109,75,l),
(30,16,l),
(30,0,l)
);
},
{
closed = 1;
nodes = (
(287,147,ls),
(445,147,o),
(556,235,o),
(556,361,cs),
(556,479,o),
(460,553,o),
(307,553,cs),
(142,553,l),
(142,503,l),
(297,503,ls),
(392,503,o),
(452,444,o),
(452,350,cs),
(452,260,o),
(388,197,o),
(297,197,c),
(170,197,l),
(170,147,l)
);
}
);
width = 601;
},
{
layerId = m002;
shapes = (
{
closed = 1;
nodes = (
(360,0,l),
(360,24,l),
(291,93,l),
(291,597,l),
(360,666,l),
(360,690,l),
(26,690,l),
(26,666,l),
(95,597,l),
(95,93,l),
(26,24,l),
(26,0,l)
);
},
{
closed = 1;
nodes = (
(317,128,ls),
(554,128,o),
(671,206,o),
(671,363,cs),
(671,486,o),
(557,568,o),
(395,568,cs),
(189,568,l),
(189,508,l),
(317,508,ls),
(403,508,o),
(457,449,o),
(457,354,cs),
(457,252,o),
(403,188,o),
(317,188,cs),
(161,188,l),
(161,128,l)
);
}
);
width = 703;
}
);
metricLeft = "=I";
metricRight = "=P";
unicode = 222;
},
{
color = 4;
glyphname = R;
kernLeft = KO_H;
kernRight = KO_R;
lastChange = "2024-02-04 05:23:04 +0000";
layers = (
{
anchors = (
{
name = bottom;
pos = (325,0);
},
{
name = top;
pos = (307,690);
}
);
guides = (
{
pos = (281,496);
}
);
layerId = m01;
shapes = (
{
closed = 1;
nodes = (
(284,0,l),
(284,16,l),
(205,75,l),
(205,690,l),
(30,690,l),
(30,674,l),
(109,615,l),
(109,75,l),
(30,16,l),
(30,0,l)
);
},
{
closed = 1;
nodes = (
(637,0,l),
(637,16,l),
(509,107,l),
(593,13,l),
(374,335,l),
(267,329,l),
(491,0,l)
);
},
{
closed = 1;
nodes = (
(316,300,l),
(316,312,l),
(322,312,ls),
(466,312,o),
(556,387,o),
(556,506,cs),
(556,619,o),
(460,690,o),
(307,690,cs),
(142,690,l),
(142,640,l),
(297,640,ls),
(392,640,o),
(452,584,o),
(452,496,cs),
(452,406,o),
(392,350,o),
(297,350,c),
(170,350,l),
(170,300,l)
);
}
);
width = 649;
},
{
anchors = (
{
name = bottom;
pos = (374,0);
},
{
name = top;
pos = (350,690);
}
);
guides = (
{
pos = (356,490);
},
{
pos = (193,93);
}
);
layerId = m002;
shapes = (
{
closed = 1;
nodes = (
(360,0,l),
(360,24,l),
(291,93,l),
(291,690,l),
(26,690,l),
(26,666,l),
(95,597,l),
(95,93,l),
(26,24,l),
(26,0,l)
);
},
{
closed = 1;
nodes = (
(738,0,l),
(738,24,l),
(616,146,l),
(715,13,l),
(499,389,l),
(330,309,l),
(507,0,l)
);
},
{
closed = 1;
nodes = (
(370,295,l),
(370,309,l),
(374,309,l),
(565,309,o),
(671,379,o),
(671,503,cs),
(671,628,o),
(580,690,o),
(395,690,cs),
(189,690,l),
(189,630,l),
(318,630,ls),
(403,630,o),
(457,578,o),
(457,495,cs),
(457,410,o),
(400,350,o),
(318,350,cs),
(161,350,l),
(161,295,l)
);
}
);
width = 748;
},
{
associatedMasterId = m002;
layerId = "9E184850-6F35-4B5F-96DB-3F40878C399E";
name = "10 Nov 23 at 21:18";
shapes = (
{
closed = 1;
nodes = (
(360,0,l),
(360,24,l),
(291,93,l),
(291,690,l),
(26,690,l),
(26,666,l),
(95,597,l),
(95,93,l),
(26,24,l),
(26,0,l)
);
},
{
closed = 1;
nodes = (
(738,0,l),
(738,24,l),
(616,144,l),
(714,13,l),
(498,389,l),
(330,309,l),
(507,0,l)
);
},
{
closed = 1;
nodes = (
(350,295,l),
(350,309,l),
(354,309,l),
(540,309,o),
(671,394,o),
(671,514,cs),
(671,632,o),
(580,690,o),
(395,690,cs),
(189,690,l),
(189,630,l),
(327,630,ls),
(410,630,o),
(457,592,o),
(457,506,cs),
(457,410,o),
(404,350,o),
(298,350,cs),
(161,350,l),
(161,295,l)
);
}
);
width = 740;
},
{
associatedMasterId = m01;
layerId = "B50965D0-C9F9-4363-83AE-DB710F75069A";
name = "10 Nov 23 at 21:21";
shapes = (
{
closed = 1;
nodes = (
(282,0,l),
(282,16,l),
(203,75,l),
(203,690,l),
(28,690,l),
(28,674,l),
(107,615,l),
(107,75,l),
(28,16,l),
(28,0,l)
);
},
{
closed = 1;
nodes = (
(632,0,l),
(632,16,l),
(504,107,l),
(588,13,l),
(369,335,l),
(270,329,l),
(493,0,l)
);
},
{
closed = 1;
nodes = (
(305,300,l),
(305,315,l),
(311,315,ls),
(454,315,o),
(554,398,o),
(554,516,cs),
(554,618,o),
(451,690,o),
(305,690,cs),
(140,690,l),
(140,640,l),
(295,640,ls),
(390,640,o),
(450,582,o),
(450,490,cs),
(450,408,o),
(383,350,o),
(287,350,c),
(168,350,l),
(168,300,l)
);
}
);
width = 634;
}
);
metricLeft = "=H";
metricRight = "=H*0.4";
unicode = 82;
userData = {
KernOnName = R;
};
},
{
color = 4;
glyphname = S;
kernLeft = KO_S;
kernRight = KO_S;
lastChange = "2024-02-04 05:23:04 +0000";
layers = (
{
anchors = (
{
name = bottom;
pos = (306,0);
},
{
name = top;
pos = (306,690);
}
);
layerId = m01;
shapes = (
{
closed = 1;
nodes = (
(465,-16,o),
(566,69,o),
(566,204,cs),
(566,299,o),
(487,362,o),
(336,396,cs),
(212,424,o),
(151,463,o),
(151,528,cs),
(151,599,o),
(218,649,o),
(313,649,cs),
(384,649,o),
(429,627,o),
(461,577,c),
(468,672,l),
(372,672,l),
(474,522,l),
(490,522,l),
(560,636,l),
(505,677,o),
(406,706,o),
(321,706,cs),
(161,706,o),
(60,629,o),
(60,507,cs),
(60,412,o),
(139,349,o),
(290,315,cs),
(414,287,o),
(475,248,o),
(475,183,cs),
(475,96,o),
(413,41,o),
(313,41,cs),
(231,41,o),
(175,66,o),
(144,115,c),
(144,20,l),
(232,20,l),
(119,177,l),
(103,177,l),
(45,58,l),
(105,15,o),
(212,-16,o),
(305,-16,cs)
);
}
);
width = 611;
},
{
anchors = (
{
name = bottom;
pos = (316,0);
},
{
name = top;
pos = (316,690);
}
);
background = {
shapes = (
{
closed = 0;
nodes = (
(342,634,ls),
(389,634,o),
(428,609,o),
(451,565,c),
(451,663,l),
(318,663,l),
(469,480,l),
(496,480,l),
(574,632,l),
(497,679,o),
(408,706,o),
(325,706,cs)
);
}
);
};
layerId = m002;
shapes = (
{
closed = 1;
nodes = (
(485,-16,o),
(600,77,o),
(600,224,cs),
(600,333,o),
(548,387,o),
(390,438,cs),
(263,479,o),
(220,510,o),
(220,560,cs),
(220,604,o),
(261,635,o),
(320,635,cs),
(382,635,o),
(440,606,o),
(461,565,c),
(461,663,l),
(323,663,l),
(479,488,l),
(506,488,l),
(584,632,l),
(502,679,o),
(409,706,o),
(325,706,cs),
(156,706,o),
(51,622,o),
(51,487,cs),
(51,378,o),
(103,324,o),
(261,273,cs),
(388,232,o),
(431,201,o),
(431,151,cs),
(431,91,o),
(390,58,o),
(316,58,cs),
(242,58,o),
(175,86,o),
(155,125,c),
(155,27,l),
(287,27,l),
(130,210,l),
(103,210,l),
(32,58,l),
(116,9,o),
(206,-16,o),
(301,-16,cs)
);
}
);
width = 632;
},
{
associatedMasterId = m01;
layerId = "10B868C5-1ACB-4C37-AE0A-C0EB974C15E3";
name = "2 Nov 23 at 15:55";
shapes = (
{
closed = 1;
nodes = (
(392,-16,o),
(495,80,o),
(495,203,cs),
(495,424,o),
(143,377,o),
(143,557,cs),
(143,620,o),
(180,654,o),
(248,654,cs),
(291,654,o),
(320,644,o),
(355,619,c),
(355,679,l),
(287,679,l),
(408,526,l),
(424,526,l),
(466,657,l),
(412,688,o),
(345,706,o),
(281,706,cs),
(145,706,o),
(60,635,o),
(60,522,cs),
(60,300,o),
(407,354,o),
(407,169,cs),
(407,87,o),
(355,37,o),
(273,37,cs),
(217,37,o),
(179,50,o),
(138,85,c),
(138,27,l),
(191,27,l),
(85,196,l),
(69,196,l),
(30,59,l),
(112,7,o),
(182,-16,o),
(261,-16,cs)
);
}
);
width = 525;
},
{
associatedMasterId = m002;
layerId = "5DE31C00-46F3-4E60-BD10-DC36ECC64831";
name = "2 Nov 23 at 15:55";
shapes = (
{
closed = 1;
nodes = (
(437,-16,o),
(548,79,o),
(548,214,cs),
(548,452,o),
(192,414,o),
(192,554,cs),
(192,603,o),
(228,638,o),
(278,638,cs),
(306,638,o),
(330,630,o),
(364,610,c),
(364,668,l),
(284,668,l),
(427,484,l),
(454,484,l),
(516,648,l),
(457,685,o),
(373,706,o),
(282,706,cs),
(152,706,o),
(49,610,o),
(49,487,cs),
(49,248,o),
(407,302,o),
(407,133,cs),
(407,83,o),
(370,55,o),
(304,55,cs),
(250,55,o),
(208,71,o),
(164,109,c),
(185,38,l),
(244,38,l),
(96,240,l),
(69,240,l),
(22,55,l),
(95,8,o),
(180,-16,o),
(278,-16,cs)
);
}
);
width = 570;
},
{
associatedMasterId = m002;
layerId = "AEFC32BF-DB8E-42AE-A139-647A8FE168A1";
name = "2 Nov 23 at 16:12";
shapes = (
{
closed = 1;
nodes = (
(429,-16,o),
(548,81,o),
(548,204,cs),
(548,452,o),
(192,429,o),
(192,554,cs),
(192,606,o),
(229,638,o),
(288,638,cs),
(330,638,o),
(377,610,o),
(409,559,c),
(409,668,l),
(290,668,l),
(427,490,l),
(454,490,l),
(516,648,l),
(457,685,o),
(373,706,o),
(282,706,cs),
(152,706,o),
(49,614,o),
(49,497,cs),
(49,248,o),
(407,287,o),
(407,133,cs),
(407,83,o),
(366,55,o),
(294,55,cs),
(223,55,o),
(162,89,o),
(124,151,c),
(124,38,l),
(242,38,l),
(106,224,l),
(79,224,l),
(22,55,l),
(95,8,o),
(180,-16,o),
(278,-16,cs)
);
}
);
width = 570;
},
{
associatedMasterId = m002;
layerId = "BBABF14A-9B7C-431E-9656-DCDC0A4A5286";
name = "2 Nov 23 at 16:15";
shapes = (
{
closed = 1;
nodes = (
(429,-16,o),
(548,81,o),
(548,204,cs),
(548,452,o),
(212,409,o),
(212,564,cs),
(212,609,o),
(241,638,o),
(288,638,cs),
(330,638,o),
(377,610,o),
(409,559,c),
(409,668,l),
(290,668,l),
(427,490,l),
(454,490,l),
(516,648,l),
(457,685,o),
(373,706,o),
(282,706,cs),
(152,706,o),
(49,614,o),
(49,497,cs),
(49,248,o),
(387,307,o),
(387,123,cs),
(387,81,o),
(351,55,o),
(294,55,cs),
(222,55,o),
(162,89,o),
(124,151,c),
(124,38,l),
(242,38,l),
(106,224,l),
(79,224,l),
(22,55,l),
(95,8,o),
(180,-16,o),
(278,-16,cs)
);
}
);
width = 570;
},
{
associatedMasterId = m01;
layerId = "8A8AB311-4C03-4D02-951E-61981020A92C";
name = "10 Nov 23 at 21:26";
shapes = (
{
closed = 1;
nodes = (
(395,-16,o),
(484,72,o),
(484,198,cs),
(484,432,o),
(139,368,o),
(139,547,cs),
(139,617,o),
(186,656,o),
(271,656,cs),
(312,656,o),
(351,636,o),
(380,600,c),
(380,681,l),
(281,681,l),
(385,528,l),
(401,528,l),
(460,660,l),
(414,688,o),
(343,706,o),
(275,706,cs),
(143,706,o),
(50,632,o),
(50,526,cs),
(50,292,o),
(395,356,o),
(395,177,cs),
(395,89,o),
(349,34,o),
(259,34,cs),
(200,34,o),
(155,55,o),
(110,110,c),
(110,29,l),
(199,29,l),
(95,182,l),
(79,182,l),
(30,50,l),
(89,8,o),
(172,-16,o),
(255,-16,cs)
);
}
);
width = 514;
},
{
associatedMasterId = m002;
layerId = "F6BEFFC2-70FF-41C5-9256-668EC8A65F9B";
name = "10 Nov 23 at 21:26";
shapes = (
{
closed = 1;
nodes = (
(440,-16,o),
(563,85,o),
(563,214,cs),
(563,462,o),
(207,409,o),
(207,564,cs),
(207,606,o),
(243,635,o),
(293,635,cs),
(347,635,o),
(394,608,o),
(424,559,c),
(424,668,l),
(305,668,l),
(442,490,l),
(469,490,l),
(531,648,l),
(477,682,o),
(380,706,o),
(297,706,cs),
(155,706,o),
(44,614,o),
(44,497,cs),
(44,248,o),
(402,317,o),
(402,133,cs),
(402,87,o),
(362,58,o),
(299,58,cs),
(228,58,o),
(163,94,o),
(129,151,c),
(129,38,l),
(242,38,l),
(106,224,l),
(79,224,l),
(22,55,l),
(95,8,o),
(185,-16,o),
(283,-16,cs)
);
}
);
width = 585;
},
{
associatedMasterId = m002;
layerId = "70407E46-7416-4D59-B1F7-FA9C4F036C1C";
name = "10 Nov 23 at 21:32";
shapes = (
{
closed = 1;
nodes = (
(482,-16,o),
(598,77,o),
(598,224,cs),
(598,472,o),
(212,399,o),
(212,554,cs),
(212,602,o),
(256,635,o),
(318,635,cs),
(385,635,o),
(433,610,o),
(464,559,c),
(464,668,l),
(325,668,l),
(470,490,l),
(497,490,l),
(571,648,l),
(514,684,o),
(418,706,o),
(322,706,cs),
(154,706,o),
(49,622,o),
(49,487,cs),
(49,238,o),
(437,327,o),
(437,143,cs),
(437,91,o),
(389,58,o),
(314,58,cs),
(224,58,o),
(167,86,o),
(129,151,c),
(129,38,l),
(242,38,l),
(115,224,l),
(88,224,l),
(22,55,l),
(95,8,o),
(187,-16,o),
(298,-16,cs)
);
}
);
width = 620;
},
{
associatedMasterId = m002;
layerId = "6E85A321-9FD0-4AB8-8212-58D6E20503F2";
name = "11 Nov 23 at 15:43";
shapes = (
{
closed = 1;
nodes = (
(479,-16,o),
(595,77,o),
(595,224,cs),
(595,472,o),
(214,399,o),
(214,554,cs),
(214,604,o),
(253,635,o),
(315,635,cs),
(382,635,o),
(430,610,o),
(461,559,c),
(461,668,l),
(322,668,l),
(467,490,l),
(494,490,l),
(568,648,l),
(512,684,o),
(416,706,o),
(319,706,cs),
(151,706,o),
(46,622,o),
(46,487,cs),
(46,238,o),
(429,327,o),
(429,143,cs),
(429,91,o),
(384,58,o),
(311,58,cs),
(221,58,o),
(165,86,o),
(126,151,c),
(126,38,l),
(239,38,l),
(112,224,l),
(85,224,l),
(19,55,l),
(93,8,o),
(184,-16,o),
(295,-16,cs)
);
}
);
width = 614;
},
{
associatedMasterId = m01;
layerId = "B167BED9-5B57-4307-B15A-EA9EC454E921";
name = "11 Nov 23 at 15:44";
shapes = (
{
closed = 1;
nodes = (
(418,-16,o),
(521,74,o),
(521,203,cs),
(521,437,o),
(136,363,o),
(136,542,cs),
(136,606,o),
(199,651,o),
(288,651,cs),
(342,651,o),
(388,631,o),
(417,595,c),
(417,681,l),
(302,681,l),
(422,528,l),
(438,528,l),
(497,660,l),
(449,690,o),
(375,706,o),
(292,706,cs),
(148,706,o),
(47,630,o),
(47,521,cs),
(47,287,o),
(432,361,o),
(432,182,cs),
(432,98,o),
(368,39,o),
(276,39,cs),
(199,39,o),
(152,60,o),
(107,115,c),
(107,29,l),
(196,29,l),
(95,182,l),
(79,182,l),
(27,50,l),
(87,8,o),
(175,-16,o),
(272,-16,cs)
);
}
);
width = 548;
},
{
associatedMasterId = m01;
layerId = "5930AE0D-5E6D-4819-8B43-4E3EC84DE0C7";
name = "13 Nov 23 at 15:49";
shapes = (
{
closed = 1;
nodes = (
(428,-16,o),
(533,74,o),
(533,203,cs),
(533,437,o),
(136,368,o),
(136,542,cs),
(136,606,o),
(201,651,o),
(294,651,cs),
(357,651,o),
(408,631,o),
(437,595,c),
(437,681,l),
(330,681,l),
(442,528,l),
(458,528,l),
(518,663,l),
(468,691,o),
(389,706,o),
(298,706,cs),
(151,706,o),
(47,630,o),
(47,521,cs),
(47,287,o),
(444,356,o),
(444,182,cs),
(444,98,o),
(377,39,o),
(282,39,cs),
(200,39,o),
(152,60,o),
(107,115,c),
(107,29,l),
(200,29,l),
(95,185,l),
(79,185,l),
(27,50,l),
(84,9,o),
(181,-16,o),
(278,-16,cs)
);
}
);
width = 560;
},
{
associatedMasterId = m01;
layerId = "F364DB5F-A76A-4E5B-AFB9-3F723741FAB5";
name = "14 Nov 23 at 17:45";
shapes = (
{
closed = 1;
nodes = (
(452,-16,o),
(552,67,o),
(552,199,cs),
(552,436,o),
(145,364,o),
(145,538,cs),
(145,601,o),
(217,651,o),
(308,651,cs),
(374,651,o),
(427,631,o),
(456,595,c),
(456,681,l),
(349,681,l),
(461,528,l),
(477,528,l),
(537,668,l),
(482,693,o),
(407,706,o),
(312,706,cs),
(162,706,o),
(56,628,o),
(56,517,cs),
(56,280,o),
(463,352,o),
(463,178,cs),
(463,96,o),
(394,39,o),
(296,39,cs),
(211,39,o),
(161,60,o),
(116,115,c),
(116,29,l),
(213,29,l),
(104,185,l),
(88,185,l),
(36,50,l),
(95,8,o),
(186,-16,o),
(292,-16,cs)
);
}
);
width = 588;
},
{
associatedMasterId = m002;
layerId = "777C93A2-378C-49A7-93E2-954068D45B47";
name = "14 Nov 23 at 17:45";
shapes = (
{
closed = 1;
nodes = (
(479,-16,o),
(595,77,o),
(595,224,cs),
(595,472,o),
(214,399,o),
(214,554,cs),
(214,604,o),
(253,635,o),
(315,635,cs),
(382,635,o),
(430,610,o),
(461,559,c),
(461,668,l),
(322,668,l),
(467,490,l),
(494,490,l),
(568,648,l),
(512,684,o),
(416,706,o),
(319,706,cs),
(151,706,o),
(46,622,o),
(46,487,cs),
(46,238,o),
(429,327,o),
(429,143,cs),
(429,91,o),
(384,58,o),
(311,58,cs),
(221,58,o),
(165,86,o),
(126,151,c),
(126,38,l),
(239,38,l),
(112,224,l),
(85,224,l),
(19,55,l),
(93,8,o),
(184,-16,o),
(295,-16,cs)
);
}
);
width = 614;
},
{
associatedMasterId = m002;
layerId = "58B5AAF6-6305-4012-BFB9-BD3144B42B7D";
name = "15 Nov 23 at 10:53";
shapes = (
{
closed = 1;
nodes = (
(485,-16,o),
(600,77,o),
(600,224,cs),
(600,482,o),
(220,409,o),
(220,554,cs),
(220,604,o),
(259,635,o),
(320,635,cs),
(379,635,o),
(435,606,o),
(456,565,c),
(456,663,l),
(318,663,l),
(474,488,l),
(501,488,l),
(579,632,l),
(494,681,o),
(410,706,o),
(325,706,cs),
(156,706,o),
(51,622,o),
(51,487,cs),
(51,228,o),
(435,317,o),
(435,143,cs),
(435,91,o),
(389,58,o),
(316,58,cs),
(242,58,o),
(175,86,o),
(155,125,c),
(155,27,l),
(293,27,l),
(130,210,l),
(103,210,l),
(32,58,l),
(116,9,o),
(206,-16,o),
(301,-16,cs)
);
}
);
width = 632;
},
{
associatedMasterId = m01;
layerId = "C2FA848C-559E-4AC7-B474-906C5270C6BE";
name = "17 Nov 23 at 11:00";
shapes = (
{
closed = 1;
nodes = (
(465,-16,o),
(566,65,o),
(566,194,cs),
(566,429,o),
(151,368,o),
(151,538,cs),
(151,600,o),
(222,649,o),
(313,649,cs),
(384,649,o),
(429,627,o),
(461,577,c),
(468,672,l),
(372,672,l),
(474,522,l),
(490,522,l),
(560,636,l),
(505,677,o),
(406,706,o),
(321,706,cs),
(161,706,o),
(60,633,o),
(60,517,cs),
(60,282,o),
(475,343,o),
(475,173,cs),
(475,95,o),
(408,41,o),
(313,41,cs),
(231,41,o),
(175,66,o),
(144,115,c),
(144,20,l),
(232,20,l),
(119,177,l),
(103,177,l),
(45,58,l),
(105,15,o),
(212,-16,o),
(305,-16,cs)
);
}
);
width = 611;
},
{
associatedMasterId = m01;
layerId = "98AD6BD0-1E91-4140-9DAF-E252E09D8E74";
name = "21 Nov 23 at 20:21";
shapes = (
{
closed = 1;
nodes = (
(465,-16,o),
(566,69,o),
(566,204,cs),
(566,435,o),
(151,358,o),
(151,528,cs),
(151,599,o),
(218,649,o),
(313,649,cs),
(384,649,o),
(429,627,o),
(461,577,c),
(468,672,l),
(372,672,l),
(474,522,l),
(490,522,l),
(560,636,l),
(505,677,o),
(406,706,o),
(321,706,cs),
(161,706,o),
(60,629,o),
(60,507,cs),
(60,276,o),
(475,353,o),
(475,183,cs),
(475,96,o),
(413,41,o),
(313,41,cs),
(231,41,o),
(175,66,o),
(144,115,c),
(144,20,l),
(232,20,l),
(119,177,l),
(103,177,l),
(45,58,l),
(105,15,o),
(212,-16,o),
(305,-16,cs)
);
}
);
width = 611;
},
{
associatedMasterId = m002;
background = {
shapes = (
{
closed = 0;
nodes = (
(342,634,ls),
(389,634,o),
(428,609,o),
(451,565,c),
(451,663,l),
(318,663,l),
(469,480,l),
(496,480,l),
(574,632,l),
(497,679,o),
(408,706,o),
(325,706,cs)
);
}
);
};
layerId = "91B4B237-8C63-4E1A-9089-0862F9654A7A";
name = "21 Nov 23 at 20:25";
shapes = (
{
closed = 1;
nodes = (
(485,-16,o),
(600,77,o),
(600,224,cs),
(600,482,o),
(220,409,o),
(220,554,cs),
(220,604,o),
(259,635,o),
(320,635,cs),
(382,635,o),
(440,606,o),
(461,565,c),
(461,663,l),
(323,663,l),
(479,488,l),
(506,488,l),
(584,632,l),
(502,679,o),
(409,706,o),
(325,706,cs),
(156,706,o),
(51,622,o),
(51,487,cs),
(51,228,o),
(435,317,o),
(435,143,cs),
(435,91,o),
(389,58,o),
(316,58,cs),
(242,58,o),
(175,86,o),
(155,125,c),
(155,27,l),
(287,27,l),
(130,210,l),
(103,210,l),
(32,58,l),
(116,9,o),
(206,-16,o),
(301,-16,cs)
);
}
);
width = 632;
}
);
metricLeft = "=O";
metricRight = "=O";
unicode = 83;
userData = {
KernOnName = S;
};
},
{
color = 4;
glyphname = Saltillo;
lastChange = "2024-01-23 06:24:57 +0000";
layers = (
{
layerId = m01;
shapes = (
{
closed = 1;
nodes = (
(117,359,l),
(162,697,l),
(157,701,l),
(49,701,l),
(44,697,l),
(89,359,l)
);
}
);
width = 206;
},
{
layerId = m002;
shapes = (
{
closed = 1;
nodes = (
(150,314,l),
(225,722,l),
(216,732,l),
(43,732,l),
(34,722,l),
(109,314,l)
);
}
);
width = 259;
}
);
metricLeft = "=o";
metricRight = "=o";
unicode = 42891;
},
{
color = 4;
glyphname = Germandbls;
kernLeft = KO_H;
lastChange = "2023-12-08 01:27:45 +0000";
layers = (
{
layerId = m01;
shapes = (
{
closed = 1;
nodes = (
(611,-16,o),
(723,86,o),
(723,215,cs),
(723,346,o),
(604,429,o),
(415,429,c),
(399,391,l),
(528,391,o),
(619,309,o),
(619,192,cs),
(619,99,o),
(555,33,o),
(464,33,cs),
(407,33,o),
(371,60,o),
(346,121,c),
(346,20,l),
(456,20,l),
(350,162,l),
(334,162,l),
(276,39,l),
(335,2,o),
(399,-16,o),
(469,-16,cs)
);
},
{
closed = 1;
nodes = (
(205,0,l),
(205,690,l),
(30,690,l),
(30,674,l),
(109,615,l),
(109,75,l),
(30,16,l),
(30,0,l)
);
},
{
closed = 1;
nodes = (
(473,391,l),
(666,674,l),
(666,690,l),
(570,690,l),
(377,407,l),
(383,391,l)
);
},
{
closed = 1;
nodes = (
(633,640,l),
(633,690,l),
(174,690,l),
(174,640,l)
);
}
);
width = 768;
},
{
layerId = m002;
shapes = (
{
closed = 1;
nodes = (
(731,-16,o),
(863,87,o),
(863,217,cs),
(863,355,o),
(721,432,o),
(468,432,c),
(467,384,l),
(576,384,o),
(652,303,o),
(652,188,cs),
(652,97,o),
(598,33,o),
(522,33,cs),
(481,33,o),
(449,63,o),
(438,110,c),
(438,27,l),
(589,27,l),
(452,199,l),
(425,199,l),
(356,40,l),
(423,1,o),
(486,-16,o),
(564,-16,cs)
);
},
{
closed = 1;
nodes = (
(291,0,l),
(291,690,l),
(26,690,l),
(26,666,l),
(95,597,l),
(95,93,l),
(26,24,l),
(26,0,l)
);
},
{
closed = 1;
nodes = (
(620,384,l),
(787,666,l),
(787,690,l),
(592,690,l),
(425,408,l),
(434,384,l)
);
},
{
closed = 1;
nodes = (
(680,630,l),
(680,690,l),
(203,690,l),
(203,630,l)
);
}
);
width = 895;
},
{
associatedMasterId = m01;
layerId = "2613F9B0-E528-42FF-8336-DF15EC3C60DC";
name = "22 Nov 23 at 21:04";
shapes = (
{
closed = 1;
nodes = (
(570,-16,o),
(673,86,o),
(673,215,cs),
(673,346,o),
(554,429,o),
(365,429,c),
(349,391,l),
(478,391,o),
(569,309,o),
(569,192,cs),
(569,94,o),
(517,33,o),
(434,33,cs),
(390,33,o),
(357,62,o),
(333,121,c),
(333,20,l),
(443,20,l),
(337,167,l),
(321,167,l),
(263,39,l),
(319,4,o),
(382,-16,o),
(439,-16,cs)
);
},
{
closed = 1;
nodes = (
(205,0,l),
(205,690,l),
(30,690,l),
(30,674,l),
(109,615,l),
(109,75,l),
(30,16,l),
(30,0,l)
);
},
{
closed = 1;
nodes = (
(423,391,l),
(616,674,l),
(616,690,l),
(520,690,l),
(327,407,l),
(333,391,l)
);
},
{
closed = 1;
nodes = (
(583,640,l),
(583,690,l),
(174,690,l),
(174,640,l)
);
}
);
width = 718;
},
{
associatedMasterId = m002;
layerId = "F1AE3BC4-6F42-49F8-A699-7745AC557E9E";
name = "22 Nov 23 at 21:04";
shapes = (
{
closed = 1;
nodes = (
(700,-16,o),
(823,91,o),
(823,228,cs),
(823,359,o),
(681,432,o),
(428,432,c),
(427,384,l),
(536,384,o),
(612,303,o),
(612,188,cs),
(612,93,o),
(570,33,o),
(502,33,cs),
(461,33,o),
(429,63,o),
(418,110,c),
(418,27,l),
(569,27,l),
(450,212,l),
(423,212,l),
(337,43,l),
(408,0,o),
(465,-16,o),
(544,-16,cs)
);
},
{
closed = 1;
nodes = (
(291,0,l),
(291,690,l),
(26,690,l),
(26,666,l),
(95,597,l),
(95,93,l),
(26,24,l),
(26,0,l)
);
},
{
closed = 1;
nodes = (
(580,384,l),
(747,666,l),
(747,690,l),
(552,690,l),
(385,408,l),
(394,384,l)
);
},
{
closed = 1;
nodes = (
(640,630,l),
(640,690,l),
(203,690,l),
(203,630,l)
);
}
);
width = 855;
}
);
metricLeft = "=H";
metricRight = "=O";
unicode = 7838;
},
{
color = 4;
glyphname = T;
kernLeft = KO_T;
kernRight = KO_T;
lastChange = "2024-02-04 05:23:03 +0000";
layers = (
{
anchors = (
{
name = bottom;
pos = (343,0);
},
{
name = center;
pos = (343,358);
},
{
name = top;
pos = (343,690);
}
);
layerId = m01;
shapes = (
{
closed = 1;
nodes = (
(480,0,l),
(480,16,l),
(391,75,l),
(391,685,l),
(351,648,l),
(610,629,l),
(610,690,l),
(76,690,l),
(76,629,l),
(335,648,l),
(295,685,l),
(295,75,l),
(206,16,l),
(206,0,l)
);
},
{
closed = 1;
nodes = (
(61,533,l),
(179,646,l),
(179,690,l),
(59,698,l),
(48,698,l),
(45,533,l)
);
},
{
closed = 1;
nodes = (
(641,533,l),
(638,698,l),
(627,698,l),
(507,690,l),
(507,646,l),
(625,533,l)
);
}
);
width = 686;
},
{
associatedMasterId = m01;
layerId = "6792DE93-CD08-480C-9F97-DFA233243462";
name = "22 Aug 23 at 18:48";
shapes = (
{
closed = 1;
nodes = (
(474,0,l),
(474,16,l),
(396,73,l),
(396,690,l),
(304,690,l),
(304,73,l),
(225,16,l),
(225,0,l)
);
},
{
closed = 1;
nodes = (
(626,690,l),
(365,690,l),
(365,647,l),
(626,634,l)
);
},
{
closed = 1;
nodes = (
(335,647,l),
(335,690,l),
(74,690,l),
(74,634,l)
);
},
{
closed = 1;
nodes = (
(158,646,l),
(158,690,l),
(57,696,l),
(46,696,l),
(59,540,l),
(75,540,l)
);
},
{
closed = 1;
nodes = (
(641,540,l),
(654,696,l),
(643,696,l),
(542,690,l),
(542,646,l),
(625,540,l)
);
}
);
width = 700;
},
{
anchors = (
{
name = bottom;
pos = (375,0);
},
{
name = center;
pos = (375,356);
},
{
name = top;
pos = (375,690);
}
);
layerId = m002;
shapes = (
{
closed = 1;
nodes = (
(547,0,l),
(547,24,l),
(473,93,l),
(473,666,l),
(392,642,l),
(694,615,l),
(694,690,l),
(56,690,l),
(56,615,l),
(358,642,l),
(277,666,l),
(277,93,l),
(203,24,l),
(203,0,l)
);
},
{
closed = 1;
nodes = (
(59,491,l),
(224,643,l),
(214,690,l),
(60,706,l),
(35,706,l),
(32,491,l)
);
},
{
closed = 1;
nodes = (
(718,491,l),
(715,706,l),
(690,706,l),
(536,690,l),
(526,643,l),
(691,491,l)
);
}
);
width = 750;
},
{
associatedMasterId = m01;
layerId = "28EC7EB3-8BA4-4661-9109-99721616BB48";
name = "13 Nov 23 at 14:52";
shapes = (
{
closed = 1;
nodes = (
(480,0,l),
(480,16,l),
(391,75,l),
(391,690,l),
(295,690,l),
(295,75,l),
(206,16,l),
(206,0,l)
);
},
{
closed = 1;
nodes = (
(61,536,l),
(169,646,l),
(169,690,l),
(59,698,l),
(48,698,l),
(45,536,l)
);
},
{
closed = 1;
nodes = (
(325,647,l),
(325,690,l),
(76,690,l),
(76,629,l)
);
},
{
closed = 1;
nodes = (
(610,690,l),
(361,690,l),
(361,647,l),
(610,629,l)
);
},
{
closed = 1;
nodes = (
(641,536,l),
(638,698,l),
(627,698,l),
(517,690,l),
(517,646,l),
(625,536,l)
);
}
);
width = 686;
},
{
associatedMasterId = m002;
layerId = "84A1B439-3DFE-47D1-8873-A259739D3B0B";
name = "13 Nov 23 at 14:53";
shapes = (
{
closed = 1;
nodes = (
(532,0,l),
(532,24,l),
(463,93,l),
(463,690,l),
(267,690,l),
(267,93,l),
(198,24,l),
(198,0,l)
);
},
{
closed = 1;
nodes = (
(59,500,l),
(209,643,l),
(199,690,l),
(57,706,l),
(32,706,l),
(32,500,l)
);
},
{
closed = 1;
nodes = (
(357,642,l),
(357,690,l),
(51,690,l),
(51,615,l)
);
},
{
closed = 1;
nodes = (
(679,690,l),
(373,690,l),
(373,642,l),
(679,615,l)
);
},
{
closed = 1;
nodes = (
(698,500,l),
(698,706,l),
(673,706,l),
(531,690,l),
(521,643,l),
(671,500,l)
);
}
);
width = 730;
},
{
associatedMasterId = m01;
layerId = "C2261B12-B60B-48BC-8E6A-3C39A4E975AE";
name = "15 Nov 23 at 14:12";
shapes = (
{
closed = 1;
nodes = (
(480,0,l),
(480,16,l),
(391,75,l),
(391,690,l),
(295,690,l),
(295,75,l),
(206,16,l),
(206,0,l)
);
},
{
closed = 1;
nodes = (
(61,533,l),
(169,646,l),
(169,690,l),
(59,698,l),
(48,698,l),
(45,533,l)
);
},
{
closed = 1;
nodes = (
(325,647,l),
(325,690,l),
(76,690,l),
(76,629,l)
);
},
{
closed = 1;
nodes = (
(610,690,l),
(361,690,l),
(361,647,l),
(610,629,l)
);
},
{
closed = 1;
nodes = (
(641,533,l),
(638,698,l),
(627,698,l),
(517,690,l),
(517,646,l),
(625,533,l)
);
}
);
width = 686;
},
{
associatedMasterId = m002;
layerId = "F9A0C4AF-6580-4E84-98E2-B3A84C537D55";
name = "15 Nov 23 at 14:14";
shapes = (
{
closed = 1;
nodes = (
(542,0,l),
(542,24,l),
(473,93,l),
(473,690,l),
(277,690,l),
(277,93,l),
(208,24,l),
(208,0,l)
);
},
{
closed = 1;
nodes = (
(59,500,l),
(219,643,l),
(209,690,l),
(60,706,l),
(35,706,l),
(32,500,l)
);
},
{
closed = 1;
nodes = (
(362,642,l),
(362,690,l),
(56,690,l),
(56,615,l)
);
},
{
closed = 1;
nodes = (
(694,690,l),
(388,690,l),
(388,642,l),
(694,615,l)
);
},
{
closed = 1;
nodes = (
(718,500,l),
(715,706,l),
(690,706,l),
(541,690,l),
(531,643,l),
(691,500,l)
);
}
);
width = 750;
}
);
metricLeft = "=O";
metricRight = "=O";
unicode = 84;
userData = {
KernOnName = T;
};
},
{
color = 4;
glyphname = U;
kernLeft = KO_U;
kernRight = KO_U;
lastChange = "2024-02-04 05:23:04 +0000";
layers = (
{
anchors = (
{
name = bottom;
pos = (350,0);
},
{
name = ogonek;
pos = (458,0);
},
{
name = top;
pos = (358,690);
},
{
name = topright;
pos = (679,690);
}
);
layerId = m01;
shapes = (
{
closed = 1;
nodes = (
(545,289,l),
(545,120,o),
(489,46,o),
(361,46,cs),
(233,46,o),
(177,120,o),
(177,289,cs),
(177,615,l),
(256,674,l),
(256,690,l),
(2,690,l),
(2,674,l),
(81,615,l),
(81,262,ls),
(81,76,o),
(173,-16,o),
(359,-16,cs),
(525,-16,o),
(618,93,o),
(618,289,cs),
(618,611,l),
(697,674,l),
(697,690,l),
(456,690,l),
(456,674,l),
(545,611,l)
);
}
);
width = 699;
},
{
anchors = (
{
name = bottom;
pos = (374,0);
},
{
name = ogonek;
pos = (492,0);
},
{
name = top;
pos = (411,690);
},
{
name = topright;
pos = (619,690);
}
);
layerId = m002;
shapes = (
{
closed = 1;
nodes = (
(567,278,l),
(567,150,o),
(517,86,o),
(417,86,cs),
(317,86,o),
(267,150,o),
(267,278,cs),
(267,597,l),
(336,666,l),
(336,690,l),
(2,690,l),
(2,666,l),
(71,597,l),
(71,246,ls),
(71,78,o),
(184,-16,o),
(387,-16,cs),
(554,-16,o),
(671,92,o),
(671,246,cs),
(671,591,l),
(745,666,l),
(745,690,l),
(481,690,l),
(481,666,l),
(567,591,l)
);
}
);
width = 747;
},
{
associatedMasterId = m002;
layerId = "6F547D2F-8366-4670-9C12-372208C5005E";
name = "29 Oct 23 at 23:52";
shapes = (
{
closed = 1;
nodes = (
(599,-16,o),
(687,95,o),
(706,350,cs),
(724,597,l),
(793,666,l),
(793,690,l),
(525,690,l),
(525,666,l),
(594,597,l),
(614,272,l),
(614,258,ls),
(614,135,o),
(547,57,o),
(441,57,cs),
(333,57,o),
(291,141,o),
(291,361,cs),
(291,597,l),
(360,666,l),
(360,690,l),
(26,690,l),
(26,666,l),
(95,597,l),
(95,340,ls),
(95,102,o),
(202,-16,o),
(417,-16,cs)
);
}
);
width = 819;
},
{
associatedMasterId = m01;
layerId = "662B71A0-87B7-4EFB-87E6-F66A894CA3E1";
name = "10 Nov 23 at 22:02";
shapes = (
{
closed = 1;
nodes = (
(560,139,o),
(500,46,o),
(374,46,cs),
(232,46,o),
(177,119,o),
(177,309,cs),
(177,615,l),
(256,674,l),
(256,690,l),
(2,690,l),
(2,674,l),
(81,615,l),
(81,278,ls),
(81,89,o),
(180,-16,o),
(356,-16,cs),
(526,-16,o),
(613,88,o),
(618,298,cs),
(626,615,l),
(705,674,l),
(705,690,l),
(469,690,l),
(469,674,l),
(548,615,l),
(555,326,ls)
);
}
);
width = 707;
},
{
associatedMasterId = m01;
layerId = "F52805CE-348D-4D11-8E0E-78A5136447C4";
name = "10 Nov 23 at 22:09";
shapes = (
{
closed = 1;
nodes = (
(541,-16,o),
(618,83,o),
(618,308,cs),
(618,615,l),
(697,674,l),
(697,690,l),
(476,690,l),
(476,674,l),
(555,615,l),
(555,309,ls),
(555,119,o),
(503,46,o),
(366,46,cs),
(229,46,o),
(177,119,o),
(177,309,cs),
(177,615,l),
(256,674,l),
(256,690,l),
(2,690,l),
(2,674,l),
(81,615,l),
(81,262,ls),
(81,69,o),
(168,-16,o),
(366,-16,cs)
);
}
);
width = 699;
},
{
associatedMasterId = m002;
layerId = "1AA8EB4F-2DA7-4874-886B-4EC904FF8F83";
name = "10 Nov 23 at 22:44";
shapes = (
{
closed = 1;
nodes = (
(580,-16,o),
(673,95,o),
(673,319,cs),
(673,597,l),
(742,666,l),
(742,690,l),
(514,690,l),
(514,666,l),
(583,597,l),
(583,319,ls),
(583,138,o),
(539,68,o),
(425,68,cs),
(311,68,o),
(267,138,o),
(267,319,cs),
(267,597,l),
(336,666,l),
(336,690,l),
(2,690,l),
(2,666,l),
(71,597,l),
(71,291,ls),
(71,86,o),
(178,-16,o),
(393,-16,cs)
);
}
);
width = 744;
},
{
associatedMasterId = m002;
layerId = "81E42B04-746F-40D2-8707-54DB73F8CF29";
name = "10 Nov 23 at 22:46";
shapes = (
{
closed = 1;
nodes = (
(580,-16,o),
(673,95,o),
(673,319,cs),
(673,597,l),
(742,666,l),
(742,690,l),
(514,690,l),
(514,666,l),
(583,597,l),
(583,319,ls),
(583,145,o),
(539,78,o),
(425,78,cs),
(311,78,o),
(267,145,o),
(267,319,cs),
(267,597,l),
(336,666,l),
(336,690,l),
(2,690,l),
(2,666,l),
(71,597,l),
(71,291,ls),
(71,86,o),
(178,-16,o),
(393,-16,cs)
);
}
);
width = 744;
},
{
associatedMasterId = m01;
layerId = "6AA315E5-43A0-4670-B787-DA3F0579A72B";
name = "13 Nov 23 at 15:40";
shapes = (
{
closed = 1;
nodes = (
(539,-16,o),
(618,89,o),
(618,329,cs),
(618,615,l),
(697,674,l),
(697,690,l),
(476,690,l),
(476,674,l),
(555,615,l),
(555,329,ls),
(555,124,o),
(503,46,o),
(366,46,cs),
(235,46,o),
(177,132,o),
(177,329,cs),
(177,615,l),
(256,674,l),
(256,690,l),
(2,690,l),
(2,674,l),
(81,615,l),
(81,282,ls),
(81,83,o),
(173,-16,o),
(359,-16,cs)
);
}
);
width = 699;
},
{
associatedMasterId = m002;
layerId = "591E2F36-4AE1-4378-81AB-5D23BDD35E3B";
name = "13 Nov 23 at 15:40";
shapes = (
{
closed = 1;
nodes = (
(587,-16,o),
(683,95,o),
(683,319,cs),
(683,597,l),
(752,666,l),
(752,690,l),
(514,690,l),
(514,666,l),
(583,597,l),
(583,319,ls),
(583,145,o),
(539,78,o),
(425,78,cs),
(311,78,o),
(267,145,o),
(267,319,cs),
(267,597,l),
(336,666,l),
(336,690,l),
(2,690,l),
(2,666,l),
(71,597,l),
(71,291,ls),
(71,86,o),
(178,-16,o),
(393,-16,cs)
);
}
);
width = 754;
},
{
associatedMasterId = m002;
layerId = "6D8D0816-DEF7-44CE-AF1A-60A674EC334C";
name = "13 Nov 23 at 16:21";
shapes = (
{
closed = 1;
nodes = (
(569,-16,o),
(661,90,o),
(661,304,cs),
(661,597,l),
(730,666,l),
(730,690,l),
(488,690,l),
(488,666,l),
(557,597,l),
(581,304,ls),
(592,165,o),
(532,78,o),
(424,78,cs),
(311,78,o),
(267,141,o),
(267,304,cs),
(267,597,l),
(336,666,l),
(336,690,l),
(2,690,l),
(2,666,l),
(71,597,l),
(71,276,ls),
(71,73,o),
(166,-16,o),
(382,-16,cs)
);
}
);
width = 732;
},
{
associatedMasterId = m002;
layerId = "8D0F458E-5468-4CD0-9053-A633EA890513";
name = "13 Nov 23 at 17:06";
shapes = (
{
closed = 1;
nodes = (
(577,-16,o),
(671,83,o),
(671,284,cs),
(671,597,l),
(740,666,l),
(740,690,l),
(480,690,l),
(480,666,l),
(549,597,l),
(577,516,o),
(591,412,o),
(591,284,cs),
(591,146,o),
(537,78,o),
(429,78,cs),
(321,78,o),
(267,146,o),
(267,284,cs),
(267,597,l),
(336,666,l),
(336,690,l),
(2,690,l),
(2,666,l),
(71,597,l),
(71,256,ls),
(71,74,o),
(176,-16,o),
(387,-16,cs)
);
}
);
width = 742;
},
{
associatedMasterId = m01;
layerId = "F11A2802-9239-41D5-AD41-36598ECF9DF3";
name = "14 Nov 23 at 10:29";
shapes = (
{
closed = 1;
nodes = (
(532,-16,o),
(618,85,o),
(618,289,cs),
(618,615,l),
(697,674,l),
(697,690,l),
(457,690,l),
(457,674,l),
(536,615,l),
(550,471,o),
(555,381,o),
(555,289,cs),
(555,127,o),
(492,46,o),
(366,46,cs),
(235,46,o),
(177,120,o),
(177,289,cs),
(177,615,l),
(256,674,l),
(256,690,l),
(2,690,l),
(2,674,l),
(81,615,l),
(81,262,ls),
(81,76,o),
(173,-16,o),
(359,-16,cs)
);
}
);
width = 699;
},
{
associatedMasterId = m002;
layerId = "7932AA94-8A0D-471A-AA0A-62868514D704";
name = "14 Nov 23 at 10:29";
shapes = (
{
closed = 1;
nodes = (
(569,-16,o),
(671,84,o),
(671,264,cs),
(671,597,l),
(740,666,l),
(740,690,l),
(480,690,l),
(480,666,l),
(549,597,l),
(577,516,o),
(591,412,o),
(591,264,cs),
(591,147,o),
(533,82,o),
(429,82,cs),
(325,82,o),
(267,147,o),
(267,264,cs),
(267,597,l),
(336,666,l),
(336,690,l),
(2,690,l),
(2,666,l),
(71,597,l),
(71,246,ls),
(71,78,o),
(184,-16,o),
(387,-16,cs)
);
}
);
width = 742;
},
{
associatedMasterId = m01;
layerId = "E5E3AD93-4481-469F-8C9C-83C91DD70C3A";
name = "14 Nov 23 at 10:41";
shapes = (
{
closed = 1;
nodes = (
(555,289,l),
(555,127,o),
(492,46,o),
(366,46,cs),
(235,46,o),
(177,120,o),
(177,289,cs),
(177,615,l),
(256,674,l),
(256,690,l),
(2,690,l),
(2,674,l),
(81,615,l),
(81,262,ls),
(81,76,o),
(173,-16,o),
(359,-16,cs),
(525,-16,o),
(618,93,o),
(618,289,cs),
(618,615,l),
(697,674,l),
(697,690,l),
(476,690,l),
(476,674,l),
(555,615,l)
);
}
);
width = 699;
},
{
associatedMasterId = m01;
layerId = "4BB65B26-7607-4D7A-B742-688C7C5B2276";
name = "18 Nov 23 at 14:04";
shapes = (
{
closed = 1;
nodes = (
(545,289,l),
(545,120,o),
(489,46,o),
(361,46,cs),
(233,46,o),
(177,120,o),
(177,289,cs),
(177,615,l),
(256,674,l),
(256,690,l),
(2,690,l),
(2,674,l),
(81,615,l),
(81,262,ls),
(81,76,o),
(173,-16,o),
(359,-16,cs),
(525,-16,o),
(618,93,o),
(618,289,cs),
(618,615,l),
(697,674,l),
(697,690,l),
(466,690,l),
(466,674,l),
(545,615,l)
);
}
);
width = 699;
}
);
metricLeft = "=V";
metricRight = "=V";
unicode = 85;
userData = {
KernOnName = U;
};
},
{
color = 4;
glyphname = Uhorn;
kernLeft = KO_U;
kernRight = KO_Uhorn;
lastChange = "2024-01-12 07:07:03 +0000";
layers = (
{
anchors = (
{
name = bottom;
pos = (350,0);
},
{
name = ogonek;
pos = (458,0);
},
{
name = top;
pos = (358,690);
},
{
name = topright;
pos = (515,690);
}
);
layerId = m01;
shapes = (
{
closed = 1;
nodes = (
(525,-16,o),
(618,93,o),
(618,289,cs),
(618,690,l),
(456,690,l),
(456,674,l),
(545,611,l),
(545,289,l),
(545,120,o),
(489,46,o),
(361,46,cs),
(233,46,o),
(177,120,o),
(177,289,cs),
(177,615,l),
(256,674,l),
(256,690,l),
(2,690,l),
(2,674,l),
(81,615,l),
(81,262,ls),
(81,76,o),
(173,-16,o),
(359,-16,cs)
);
},
{
pos = (457,0);
ref = horncomb.case;
}
);
width = 699;
},
{
anchors = (
{
name = bottom;
pos = (374,0);
},
{
name = ogonek;
pos = (492,0);
},
{
name = top;
pos = (411,690);
},
{
name = topright;
pos = (619,690);
}
);
layerId = m002;
shapes = (
{
closed = 1;
nodes = (
(554,-16,o),
(671,92,o),
(671,246,cs),
(671,690,l),
(481,690,l),
(481,666,l),
(567,591,l),
(567,278,l),
(567,150,o),
(517,86,o),
(417,86,cs),
(317,86,o),
(267,150,o),
(267,278,cs),
(267,597,l),
(336,666,l),
(336,690,l),
(2,690,l),
(2,666,l),
(71,597,l),
(71,246,ls),
(71,78,o),
(184,-16,o),
(387,-16,cs)
);
},
{
pos = (506,0);
ref = horncomb.case;
}
);
width = 747;
}
);
metricLeft = "=U";
unicode = 431;
},
{
glyphname = Uogonek;
kernLeft = KO_U;
kernRight = KO_U;
lastChange = "2023-12-22 05:51:43 +0000";
layers = (
{
anchors = (
{
name = bottom;
pos = (350,0);
},
{
name = ogonek;
pos = (458,0);
},
{
name = top;
pos = (358,690);
},
{
name = topright;
pos = (679,690);
}
);
layerId = m01;
shapes = (
{
closed = 1;
nodes = (
(525,-16,o),
(618,93,o),
(618,289,cs),
(618,611,l),
(697,674,l),
(697,690,l),
(456,690,l),
(456,674,l),
(545,611,l),
(545,289,l),
(545,120,o),
(489,46,o),
(361,46,cs),
(233,46,o),
(177,120,o),
(177,289,cs),
(177,615,l),
(256,674,l),
(256,690,l),
(2,690,l),
(2,674,l),
(81,615,l),
(81,262,ls),
(81,76,o),
(173,-16,o),
(359,-16,cs)
);
},
{
closed = 1;
nodes = (
(496,-251,o),
(546,-215,o),
(563,-158,c),
(549,-148,l),
(530,-169,o),
(500,-182,o),
(472,-182,cs),
(429,-182,o),
(408,-157,o),
(408,-107,cs),
(408,-54,o),
(434,-10,o),
(475,6,c),
(475,20,l),
(397,20,l),
(397,-15,l),
(355,-39,o),
(326,-93,o),
(326,-147,cs),
(326,-208,o),
(370,-251,o),
(433,-251,cs)
);
}
);
width = 699;
},
{
anchors = (
{
name = bottom;
pos = (374,0);
},
{
name = ogonek;
pos = (492,0);
},
{
name = top;
pos = (411,690);
},
{
name = topright;
pos = (727,690);
}
);
layerId = m002;
shapes = (
{
closed = 1;
nodes = (
(554,-16,o),
(671,92,o),
(671,246,cs),
(671,591,l),
(745,666,l),
(745,690,l),
(481,690,l),
(481,666,l),
(567,591,l),
(567,278,l),
(567,150,o),
(517,86,o),
(417,86,cs),
(317,86,o),
(267,150,o),
(267,278,cs),
(267,597,l),
(336,666,l),
(336,690,l),
(2,690,l),
(2,666,l),
(71,597,l),
(71,246,ls),
(71,78,o),
(184,-16,o),
(387,-16,cs)
);
},
{
closed = 1;
nodes = (
(539,-251,o),
(584,-218,o),
(606,-143,c),
(588,-132,l),
(566,-155,o),
(544,-165,o),
(515,-165,cs),
(469,-165,o),
(444,-139,o),
(444,-92,cs),
(444,-50,o),
(470,-10,o),
(508,6,c),
(508,24,l),
(421,23,l),
(421,-16,l),
(371,-40,o),
(336,-92,o),
(336,-143,cs),
(336,-212,o),
(380,-251,o),
(459,-251,cs)
);
}
);
width = 747;
}
);
unicode = 370;
},
{
color = 4;
glyphname = V;
kernLeft = KO_V;
kernRight = KO_V;
lastChange = "2024-02-04 05:23:04 +0000";
layers = (
{
guides = (
{
pos = (49,615);
}
);
layerId = m01;
shapes = (
{
closed = 1;
nodes = (
(359,-12,l),
(650,677,l),
(605,598,l),
(690,674,l),
(690,690,l),
(446,690,l),
(446,674,l),
(575,590,l),
(555,677,l),
(356,82,l),
(392,82,l),
(142,674,l),
(127,591,l),
(256,674,l),
(256,690,l),
(2,690,l),
(2,674,l),
(87,596,l),
(41,677,l),
(332,-12,l)
);
}
);
width = 692;
},
{
associatedMasterId = m01;
layerId = "E14E5251-EE7A-45E0-8E88-C22DDF7F243A";
name = "22 Aug 23 at 18:55";
shapes = (
{
closed = 1;
nodes = (
(440,690,l),
(440,674,l),
(571,597,l),
(558,677,l),
(351,83,l),
(383,83,l),
(153,677,l),
(142,597,l),
(273,674,l),
(273,690,l),
(2,690,l),
(2,674,l),
(97,601,l),
(52,677,l),
(331,-12,l),
(353,-12,l),
(632,677,l),
(587,601,l),
(682,674,l),
(682,690,l)
);
}
);
width = 684;
},
{
associatedMasterId = m01;
guides = (
{
pos = (37,619);
}
);
layerId = "EDD8BC4A-D3FB-45E4-9C64-DE08DA07936D";
name = "24 Aug 23 at 13:03";
shapes = (
{
closed = 1;
nodes = (
(429,690,l),
(429,674,l),
(560,597,l),
(540,677,l),
(344,83,l),
(373,83,l),
(143,677,l),
(127,597,l),
(258,674,l),
(258,690,l),
(2,690,l),
(2,674,l),
(87,598,l),
(41,677,l),
(320,-12,l),
(347,-12,l),
(626,677,l),
(581,599,l),
(666,674,l),
(666,690,l)
);
}
);
width = 668;
},
{
guides = (
{
pos = (112,615);
}
);
layerId = m002;
shapes = (
{
closed = 1;
nodes = (
(433,0,l),
(737,677,l),
(684,580,l),
(758,666,l),
(758,690,l),
(494,690,l),
(494,666,l),
(586,588,l),
(586,677,l),
(440,125,l),
(475,125,l),
(227,677,l),
(240,587,l),
(332,666,l),
(332,690,l),
(2,690,l),
(2,666,l),
(76,580,l),
(23,677,l),
(327,0,l)
);
}
);
width = 760;
},
{
associatedMasterId = m002;
guides = (
{
pos = (87,615);
}
);
layerId = "87F0EF67-9D26-4328-BA56-A4672C0D9387";
name = "7 Oct 23 at 08:29";
shapes = (
{
closed = 1;
nodes = (
(408,0,l),
(692,677,l),
(641,580,l),
(718,666,l),
(718,690,l),
(464,690,l),
(464,666,l),
(541,603,l),
(541,677,l),
(418,147,l),
(442,147,l),
(220,677,l),
(234,588,l),
(331,666,l),
(331,690,l),
(2,690,l),
(2,666,l),
(79,580,l),
(28,677,l),
(312,0,l)
);
}
);
width = 720;
},
{
associatedMasterId = m002;
guides = (
{
pos = (97,615);
}
);
layerId = "DF5C5D21-6310-40F4-8242-3BCB783AA3EF";
name = "9 Oct 23 at 18:36";
shapes = (
{
closed = 1;
nodes = (
(418,0,l),
(702,677,l),
(651,580,l),
(728,666,l),
(728,690,l),
(474,690,l),
(474,666,l),
(551,603,l),
(551,677,l),
(428,147,l),
(452,147,l),
(230,677,l),
(244,588,l),
(341,666,l),
(341,690,l),
(2,690,l),
(2,666,l),
(79,580,l),
(28,677,l),
(312,0,l)
);
}
);
width = 730;
},
{
associatedMasterId = m002;
guides = (
{
pos = (112,615);
}
);
layerId = "6C1F3029-F2E7-4662-B4A1-47572EF50785";
name = "10 Oct 23 at 17:34";
shapes = (
{
closed = 1;
nodes = (
(433,0,l),
(737,677,l),
(684,579,l),
(758,666,l),
(758,690,l),
(494,690,l),
(494,666,l),
(586,585,l),
(586,677,l),
(440,125,l),
(475,125,l),
(227,677,l),
(240,584,l),
(332,666,l),
(332,690,l),
(2,690,l),
(2,666,l),
(76,580,l),
(23,677,l),
(327,0,l)
);
}
);
width = 760;
}
);
metricRight = "=|";
unicode = 86;
userData = {
KernOnName = V;
};
},
{
color = 4;
glyphname = W;
kernLeft = KO_W;
kernRight = KO_W;
lastChange = "2023-11-22 06:06:16 +0000";
layers = (
{
anchors = (
{
name = bottom;
pos = (537,0);
},
{
name = top;
pos = (537,690);
}
);
background = {
shapes = (
{
closed = 1;
nodes = (
(762,-12,l),
(1053,677,l),
(1008,598,l),
(1093,674,l),
(1093,690,l),
(849,690,l),
(849,674,l),
(978,590,l),
(958,677,l),
(759,82,l),
(795,82,l),
(545,674,l),
(530,591,l),
(659,674,l),
(659,690,l),
(405,690,l),
(405,674,l),
(490,596,l),
(444,677,l),
(735,-12,l)
);
}
);
};
guides = (
{
pos = (614,614);
},
{
pos = (615,617);
}
);
layerId = m01;
shapes = (
{
closed = 1;
nodes = (
(762,-12,l),
(1031,677,l),
(986,593,l),
(1071,674,l),
(1071,690,l),
(827,690,l),
(827,674,l),
(956,594,l),
(936,677,l),
(758,82,l),
(797,82,l),
(565,674,l),
(552,596,l),
(681,674,l),
(681,690,l),
(394,690,l),
(394,674,l),
(513,602,l),
(513,554,l),
(735,-12,l)
);
},
{
closed = 1;
nodes = (
(333,-12,l),
(602,677,l),
(507,677,l),
(329,82,l),
(368,82,l),
(136,674,l),
(118,591,l),
(247,674,l),
(247,690,l),
(2,690,l),
(2,674,l),
(78,596,l),
(38,672,l),
(306,-12,l)
);
}
);
width = 1073;
},
{
anchors = (
{
name = bottom;
pos = (591,0);
},
{
name = top;
pos = (624,690);
}
);
layerId = m002;
shapes = (
{
closed = 1;
nodes = (
(874,0,l),
(1158,677,l),
(1105,578,l),
(1179,666,l),
(1179,690,l),
(921,690,l),
(921,666,l),
(1013,590,l),
(1011,677,l),
(877,125,l),
(917,125,l),
(686,677,l),
(701,594,l),
(788,666,l),
(788,690,l),
(459,690,l),
(459,666,l),
(539,599,l),
(537,551,l),
(768,0,l)
);
},
{
closed = 1;
nodes = (
(413,0,l),
(697,677,l),
(555,677,l),
(416,125,l),
(456,125,l),
(225,677,l),
(240,594,l),
(328,666,l),
(328,690,l),
(2,690,l),
(2,666,l),
(76,576,l),
(23,677,l),
(307,0,l)
);
}
);
width = 1181;
},
{
associatedMasterId = m002;
layerId = "B8040963-D598-4648-B829-1B2C4CD5FCC5";
name = "10 Nov 23 at 21:51";
shapes = (
{
closed = 1;
nodes = (
(844,0,l),
(1128,677,l),
(1075,579,l),
(1149,666,l),
(1149,690,l),
(891,690,l),
(891,666,l),
(983,590,l),
(981,677,l),
(847,125,l),
(887,125,l),
(656,677,l),
(671,595,l),
(763,666,l),
(763,690,l),
(439,690,l),
(439,666,l),
(509,573,l),
(454,677,l),
(738,0,l)
);
},
{
closed = 1;
nodes = (
(413,0,l),
(697,677,l),
(550,677,l),
(416,125,l),
(456,125,l),
(225,677,l),
(240,594,l),
(332,666,l),
(332,690,l),
(2,690,l),
(2,666,l),
(76,576,l),
(23,677,l),
(307,0,l)
);
}
);
width = 1151;
},
{
associatedMasterId = m01;
guides = (
{
pos = (594,614);
}
);
layerId = "CC953B4B-B6EB-482A-92C6-AD9EC2FDF06D";
name = "10 Nov 23 at 21:52";
shapes = (
{
closed = 1;
nodes = (
(703,-12,l),
(964,677,l),
(919,593,l),
(1004,674,l),
(1004,690,l),
(760,690,l),
(760,674,l),
(889,594,l),
(869,677,l),
(699,82,l),
(739,82,l),
(515,674,l),
(501,596,l),
(630,674,l),
(630,690,l),
(376,690,l),
(376,674,l),
(461,595,l),
(415,677,l),
(676,-12,l)
);
},
{
closed = 1;
nodes = (
(329,-12,l),
(522,498,l),
(469,586,l),
(325,82,l),
(365,82,l),
(141,674,l),
(128,594,l),
(256,674,l),
(256,690,l),
(2,690,l),
(2,674,l),
(87,593,l),
(41,677,l),
(302,-12,l)
);
}
);
width = 1006;
},
{
associatedMasterId = m01;
guides = (
{
pos = (594,614);
}
);
layerId = "ADD86646-713A-4126-A221-C1B9D83EE9C1";
name = "13 Nov 23 at 19:47";
shapes = (
{
closed = 1;
nodes = (
(742,-12,l),
(1003,677,l),
(958,593,l),
(1043,674,l),
(1043,690,l),
(799,690,l),
(799,674,l),
(928,594,l),
(908,677,l),
(738,82,l),
(778,82,l),
(554,674,l),
(540,596,l),
(669,674,l),
(669,690,l),
(403,690,l),
(403,674,l),
(501,598,l),
(501,554,l),
(715,-12,l)
);
},
{
closed = 1;
nodes = (
(329,-12,l),
(533,527,l),
(491,661,l),
(325,82,l),
(365,82,l),
(141,674,l),
(128,594,l),
(256,674,l),
(256,690,l),
(2,690,l),
(2,674,l),
(87,593,l),
(41,677,l),
(302,-12,l)
);
}
);
width = 1045;
}
);
metricLeft = "=V";
metricRight = "=V";
unicode = 87;
},
{
color = 4;
glyphname = X;
kernLeft = KO_X;
kernRight = KO_K;
lastChange = "2024-02-04 05:23:04 +0000";
layers = (
{
guides = (
{
pos = (61,614);
},
{
angle = 231.7742;
pos = (432,345);
},
{
angle = 51.7742;
pos = (315,345);
},
{
pos = (284,618);
}
);
layerId = m01;
shapes = (
{
closed = 1;
nodes = (
(721,0,l),
(721,16,l),
(619,93,l),
(691,13,l),
(168,677,l),
(168,589,l),
(301,674,l),
(301,690,l),
(23,690,l),
(23,674,l),
(125,597,l),
(53,677,l),
(576,13,l),
(576,101,l),
(443,16,l),
(443,0,l)
);
},
{
closed = 1;
nodes = (
(264,0,l),
(264,16,l),
(140,95,l),
(140,13,l),
(353,368,l),
(318,384,l),
(28,13,l),
(98,93,l),
(2,16,l),
(2,0,l)
);
},
{
closed = 1;
nodes = (
(386,322,l),
(666,677,l),
(595,597,l),
(691,674,l),
(691,690,l),
(430,690,l),
(430,674,l),
(554,595,l),
(554,677,l),
(341,322,l)
);
}
);
width = 723;
},
{
guides = (
{
angle = 52.8002;
pos = (281,345);
},
{
angle = 232.8002;
pos = (514,345);
},
{
pos = (722,89);
},
{
pos = (437,607);
}
);
layerId = m002;
shapes = (
{
closed = 1;
nodes = (
(774,0,l),
(774,24,l),
(679,113,l),
(763,13,l),
(259,677,l),
(259,559,l),
(379,666,l),
(379,690,l),
(18,690,l),
(18,666,l),
(113,577,l),
(29,677,l),
(533,13,l),
(533,131,l),
(413,24,l),
(413,0,l)
);
},
{
closed = 1;
nodes = (
(288,0,l),
(288,24,l),
(194,108,l),
(194,13,l),
(362,402,l),
(323,402,l),
(10,13,l),
(96,112,l),
(2,24,l),
(2,0,l)
);
},
{
closed = 1;
nodes = (
(429,288,l),
(742,677,l),
(656,578,l),
(750,666,l),
(750,690,l),
(464,690,l),
(464,666,l),
(558,582,l),
(558,677,l),
(408,288,l)
);
}
);
width = 776;
},
{
associatedMasterId = m01;
guides = (
{
pos = (61,615);
},
{
angle = 53.4072;
pos = (420,345);
}
);
layerId = "DB95D6B2-CB2F-4933-932A-AAE98F4B87D2";
name = "30 Oct 23 at 11:20";
shapes = (
{
closed = 1;
nodes = (
(699,0,l),
(699,16,l),
(592,91,l),
(660,13,l),
(167,677,l),
(169,588,l),
(298,674,l),
(298,690,l),
(14,690,l),
(14,674,l),
(121,599,l),
(53,677,l),
(546,13,l),
(539,98,l),
(415,16,l),
(415,0,l)
);
},
{
closed = 1;
nodes = (
(361,306,l),
(636,677,l),
(566,598,l),
(676,674,l),
(676,690,l),
(407,690,l),
(407,674,l),
(533,593,l),
(527,677,l),
(326,322,l)
);
},
{
closed = 1;
nodes = (
(317,384,l),
(42,13,l),
(112,92,l),
(2,16,l),
(2,0,l),
(271,0,l),
(271,16,l),
(145,99,l),
(151,13,l),
(352,368,l)
);
}
);
width = 701;
},
{
associatedMasterId = m01;
guides = (
{
pos = (72,615);
},
{
angle = 231.7742;
pos = (443,345);
},
{
angle = 51.7742;
pos = (326,345);
}
);
layerId = "91DBA79D-3A20-435E-A37E-51E6A75EA08A";
name = "13 Nov 23 at 20:21";
shapes = (
{
closed = 1;
nodes = (
(743,0,l),
(743,16,l),
(632,91,l),
(704,13,l),
(181,677,l),
(185,588,l),
(314,674,l),
(314,690,l),
(25,690,l),
(25,674,l),
(136,599,l),
(64,677,l),
(587,13,l),
(583,102,l),
(454,16,l),
(454,0,l)
);
},
{
closed = 1;
nodes = (
(276,0,l),
(276,16,l),
(150,97,l),
(156,13,l),
(369,368,l),
(334,384,l),
(44,13,l),
(114,89,l),
(2,16,l),
(2,0,l)
);
},
{
closed = 1;
nodes = (
(674,677,l),
(604,601,l),
(716,674,l),
(716,690,l),
(442,690,l),
(442,674,l),
(568,593,l),
(562,677,l),
(349,322,l),
(384,306,l)
);
}
);
width = 745;
},
{
associatedMasterId = m002;
guides = (
{
angle = 52.8002;
pos = (294,345);
},
{
angle = 232.8002;
pos = (527,345);
},
{
pos = (660,582);
},
{
pos = (735,89);
},
{
pos = (450,606);
}
);
layerId = "8D6BBA3C-A55B-43D4-8286-06A724CCEDF7";
name = "13 Nov 23 at 20:30";
shapes = (
{
closed = 1;
nodes = (
(800,0,l),
(800,24,l),
(695,110,l),
(779,13,l),
(275,677,l),
(309,584,l),
(382,666,l),
(382,690,l),
(21,690,l),
(21,666,l),
(126,580,l),
(42,677,l),
(546,13,l),
(512,106,l),
(441,24,l),
(441,0,l)
);
},
{
closed = 1;
nodes = (
(288,0,l),
(288,24,l),
(207,117,l),
(207,13,l),
(375,402,l),
(336,402,l),
(23,13,l),
(109,108,l),
(2,24,l),
(2,0,l)
);
},
{
closed = 1;
nodes = (
(746,677,l),
(660,582,l),
(767,666,l),
(767,690,l),
(481,690,l),
(481,666,l),
(562,576,l),
(562,677,l),
(412,288,l),
(433,288,l)
);
}
);
width = 802;
}
);
metricLeft = "=V";
metricRight = "=V";
unicode = 88;
userData = {
KernOnName = X;
};
},
{
color = 4;
glyphname = Y;
kernLeft = KO_Y;
kernRight = KO_Y;
lastChange = "2024-02-04 05:23:04 +0000";
layers = (
{
anchors = (
{
name = bottom;
pos = (338,0);
},
{
name = top;
pos = (343,690);
},
{
name = topleft;
pos = (20,690);
}
);
guides = (
{
pos = (34,615);
},
{
pos = (230,618);
}
);
layerId = m01;
shapes = (
{
closed = 1;
nodes = (
(351,208,l),
(647,677,l),
(593,602,l),
(674,674,l),
(674,690,l),
(434,690,l),
(434,674,l),
(562,585,l),
(542,677,l),
(362,300,l),
(368,300,l),
(137,677,l),
(117,580,l),
(255,674,l),
(255,690,l),
(2,690,l),
(2,674,l),
(87,599,l),
(31,677,l),
(317,208,l)
);
},
{
closed = 1;
nodes = (
(466,0,l),
(466,16,l),
(387,75,l),
(387,285,l),
(291,285,l),
(291,75,l),
(212,16,l),
(212,0,l)
);
}
);
width = 676;
},
{
anchors = (
{
name = bottom;
pos = (367,0);
},
{
name = top;
pos = (401,690);
},
{
name = topleft;
pos = (20,690);
}
);
guides = (
{
pos = (463,605);
}
);
layerId = m002;
shapes = (
{
closed = 1;
nodes = (
(427,198,l),
(722,677,l),
(656,579,l),
(731,666,l),
(731,690,l),
(461,690,l),
(461,666,l),
(556,585,l),
(556,677,l),
(439,315,l),
(448,315,l),
(225,677,l),
(225,567,l),
(341,666,l),
(341,690,l),
(2,690,l),
(2,666,l),
(77,579,l),
(11,677,l),
(305,198,l)
);
},
{
closed = 1;
nodes = (
(536,0,l),
(536,24,l),
(467,93,l),
(467,289,l),
(271,289,l),
(271,93,l),
(202,24,l),
(202,0,l)
);
}
);
width = 733;
},
{
associatedMasterId = m002;
layerId = "EE68A2EF-B388-4949-B45B-D6F04BAB8850";
name = "30 Oct 23 at 09:33";
shapes = (
{
closed = 1;
nodes = (
(439,168,l),
(734,677,l),
(667,579,l),
(755,666,l),
(755,690,l),
(479,690,l),
(479,666,l),
(571,585,l),
(571,677,l),
(449,285,l),
(464,285,l),
(238,677,l),
(240,558,l),
(332,666,l),
(332,690,l),
(2,690,l),
(2,666,l),
(89,580,l),
(23,677,l),
(317,168,l)
);
},
{
closed = 1;
nodes = (
(551,0,l),
(551,24,l),
(482,93,l),
(482,269,l),
(286,269,l),
(286,93,l),
(217,24,l),
(217,0,l)
);
}
);
width = 757;
},
{
associatedMasterId = m01;
guides = (
{
pos = (19,615);
}
);
layerId = "9C7E3522-7C29-467F-825B-25CAFC00409A";
name = "10 Nov 23 at 21:58";
shapes = (
{
closed = 1;
nodes = (
(336,208,l),
(617,677,l),
(563,600,l),
(647,674,l),
(647,690,l),
(413,690,l),
(413,674,l),
(532,586,l),
(512,677,l),
(345,300,l),
(355,300,l),
(137,677,l),
(117,576,l),
(236,674,l),
(236,690,l),
(2,690,l),
(2,674,l),
(87,596,l),
(31,677,l),
(302,208,l)
);
},
{
closed = 1;
nodes = (
(451,0,l),
(451,16,l),
(372,75,l),
(372,292,l),
(276,292,l),
(276,75,l),
(197,16,l),
(197,0,l)
);
}
);
width = 649;
},
{
associatedMasterId = m002;
layerId = "23B8A7BF-5B22-4FA1-8EA1-2E57DB05D663";
name = "10 Nov 23 at 21:58";
shapes = (
{
closed = 1;
nodes = (
(439,198,l),
(734,677,l),
(667,579,l),
(755,666,l),
(755,690,l),
(479,690,l),
(479,666,l),
(571,585,l),
(568,677,l),
(451,315,l),
(464,315,l),
(241,677,l),
(240,552,l),
(332,666,l),
(332,690,l),
(2,690,l),
(2,666,l),
(89,580,l),
(23,677,l),
(317,198,l)
);
},
{
closed = 1;
nodes = (
(548,0,l),
(548,24,l),
(479,93,l),
(479,289,l),
(283,289,l),
(283,93,l),
(214,24,l),
(214,0,l)
);
}
);
width = 757;
}
);
metricLeft = "=V";
metricRight = "=V";
unicode = 89;
userData = {
KernOnName = Y;
};
},
{
color = 4;
glyphname = Z;
kernLeft = KO_Z;
kernRight = KO_Z;
lastChange = "2024-02-04 05:23:04 +0000";
layers = (
{
anchors = (
{
name = bottom;
pos = (315,0);
},
{
name = center;
pos = (315,345);
},
{
name = top;
pos = (315,690);
}
);
layerId = m01;
shapes = (
{
closed = 1;
nodes = (
(480,0,l),
(480,59,l),
(122,42,l),
(143,6,l),
(572,674,l),
(572,690,l),
(145,690,l),
(145,633,l),
(496,649,l),
(475,685,l),
(45,16,l),
(45,0,l)
);
},
{
closed = 1;
nodes = (
(575,0,l),
(585,180,l),
(569,180,l),
(443,47,l),
(443,0,l)
);
},
{
closed = 1;
nodes = (
(90,527,l),
(200,660,l),
(212,690,l),
(72,698,l),
(56,698,l),
(74,527,l)
);
}
);
width = 630;
},
{
anchors = (
{
name = bottom;
pos = (336,0);
},
{
name = center;
pos = (336,345);
},
{
name = top;
pos = (336,690);
}
);
layerId = m002;
shapes = (
{
closed = 1;
nodes = (
(601,0,l),
(601,75,l),
(218,52,l),
(239,17,l),
(640,666,l),
(640,690,l),
(109,690,l),
(109,617,l),
(457,643,l),
(436,678,l),
(32,24,l),
(32,0,l)
);
},
{
closed = 1;
nodes = (
(634,0,l),
(640,202,l),
(613,202,l),
(442,47,l),
(442,0,l)
);
},
{
closed = 1;
nodes = (
(89,504,l),
(231,643,l),
(231,690,l),
(64,706,l),
(44,706,l),
(62,504,l)
);
}
);
width = 672;
},
{
associatedMasterId = m01;
layerId = "730EDF6A-06B5-4FB3-B9B7-53FB39179CB5";
name = "15 Nov 23 at 14:12";
shapes = (
{
closed = 1;
nodes = (
(144,0,l),
(578,674,l),
(578,690,l),
(479,690,l),
(45,16,l),
(45,0,l)
);
},
{
closed = 1;
nodes = (
(484,0,l),
(484,59,l),
(139,43,l),
(139,0,l)
);
},
{
closed = 1;
nodes = (
(579,0,l),
(589,180,l),
(573,180,l),
(462,47,l),
(462,0,l)
);
},
{
closed = 1;
nodes = (
(94,527,l),
(189,660,l),
(201,690,l),
(76,698,l),
(60,698,l),
(78,527,l)
);
},
{
closed = 1;
nodes = (
(510,649,l),
(510,690,l),
(149,690,l),
(149,633,l)
);
}
);
width = 634;
},
{
associatedMasterId = m002;
layerId = "397FD34E-7218-41F3-B504-AF910C8D9F3F";
name = "15 Nov 23 at 14:14";
shapes = (
{
closed = 1;
nodes = (
(236,0,l),
(647,666,l),
(647,690,l),
(443,690,l),
(32,24,l),
(32,0,l)
);
},
{
closed = 1;
nodes = (
(608,0,l),
(608,75,l),
(147,48,l),
(147,0,l)
);
},
{
closed = 1;
nodes = (
(641,0,l),
(647,190,l),
(620,190,l),
(474,47,l),
(474,0,l)
);
},
{
closed = 1;
nodes = (
(85,513,l),
(220,643,l),
(220,690,l),
(78,706,l),
(58,706,l),
(58,513,l)
);
},
{
closed = 1;
nodes = (
(457,644,l),
(457,690,l),
(123,690,l),
(123,617,l)
);
}
);
width = 679;
}
);
metricLeft = "=O";
metricRight = "=O";
unicode = 90;
userData = {
KernOnName = Z;
};
},
{
color = 4;
glyphname = a;
kernLeft = KO_a;
kernRight = KO_a;
lastChange = "2024-02-04 05:23:03 +0000";
layers = (
{
associatedMasterId = m01;
layerId = "DEA3867B-8AE6-4CC7-9DFE-1A36A2491B35";
name = "20 Aug 23 at 17:12";
shapes = (
{
closed = 1;
nodes = (
(40,45,o),
(95,-12,o),
(173,-12,cs),
(241,-12,o),
(305,18,o),
(366,79,c),
(381,79,l),
(381,140,l),
(334,88,o),
(275,59,o),
(215,59,cs),
(158,59,o),
(126,87,o),
(126,137,cs),
(126,188,o),
(160,216,o),
(247,239,cs),
(402,280,l),
(402,324,l),
(239,295,ls),
(111,272,o),
(40,212,o),
(40,125,cs)
);
},
{
closed = 1;
nodes = (
(154,405,o),
(203,425,o),
(264,425,cs),
(335,425,o),
(366,381,o),
(366,280,cs),
(366,79,l),
(375,79,l),
(398,-12,l),
(415,-12,l),
(518,53,l),
(518,68,l),
(411,134,l),
(452,77,l),
(452,304,ls),
(452,414,o),
(384,492,o),
(287,492,cs),
(190,492,o),
(113,466,o),
(52,420,c),
(89,324,l),
(106,324,l),
(216,463,l),
(145,440,l),
(123,390,l)
);
}
);
width = 538;
},
{
anchors = (
{
name = bottom;
pos = (277,0);
},
{
name = ogonek;
pos = (429,-12);
},
{
name = top;
pos = (277,480);
}
);
layerId = m01;
name = Regular;
shapes = (
{
closed = 1;
nodes = (
(429,-12,l),
(535,48,l),
(535,63,l),
(428,138,l),
(469,81,l),
(469,322,ls),
(469,436,o),
(399,492,o),
(257,492,cs),
(186,492,o),
(116,474,o),
(63,442,c),
(114,336,l),
(130,336,l),
(231,469,l),
(152,469,l),
(146,389,l),
(171,418,o),
(213,436,o),
(256,436,cs),
(338,436,o),
(379,390,o),
(379,297,cs),
(379,67,l),
(389,67,l),
(412,-12,l)
);
},
{
closed = 1;
nodes = (
(270,-12,o),
(325,12,o),
(379,67,c),
(394,67,l),
(394,129,l),
(351,82,o),
(295,58,o),
(227,58,cs),
(174,58,o),
(141,85,o),
(141,129,cs),
(141,186,o),
(181,213,o),
(300,242,cs),
(416,270,l),
(416,310,l),
(256,285,ls),
(118,263,o),
(49,208,o),
(49,117,cs),
(49,41,o),
(110,-12,o),
(197,-12,cs)
);
}
);
width = 557;
},
{
associatedMasterId = m01;
layerId = "6A64C12A-011C-4140-BBC2-EB0E755A14FD";
name = "22 Aug 23 at 15:04";
shapes = (
{
closed = 1;
nodes = (
(415,-12,l),
(518,53,l),
(518,68,l),
(411,134,l),
(452,77,l),
(452,316,ls),
(452,429,o),
(380,492,o),
(251,492,cs),
(176,492,o),
(109,468,o),
(50,421,c),
(92,334,l),
(109,334,l),
(207,463,l),
(142,449,l),
(142,413,l),
(164,435,o),
(189,444,o),
(224,444,cs),
(323,444,o),
(366,399,o),
(366,296,cs),
(366,79,l),
(375,79,l),
(398,-12,l)
);
},
{
closed = 1;
nodes = (
(241,-12,o),
(305,18,o),
(366,79,c),
(381,79,l),
(381,140,l),
(334,88,o),
(270,56,o),
(213,56,cs),
(155,56,o),
(123,85,o),
(123,137,cs),
(123,181,o),
(161,210,o),
(247,233,cs),
(402,274,l),
(402,316,l),
(239,287,ls),
(111,264,o),
(40,206,o),
(40,125,cs),
(40,45,o),
(95,-12,o),
(173,-12,cs)
);
}
);
width = 542;
},
{
associatedMasterId = m01;
background = {
shapes = (
{
closed = 1;
nodes = (
(392,-12,l),
(503,41,l),
(503,55,l),
(420,112,l),
(437,80,l),
(437,318,ls),
(437,430,o),
(377,492,o),
(271,492,cs),
(192,492,o),
(121,466,o),
(58,411,c),
(110,320,l),
(124,321,l),
(203,428,l),
(216,434,o),
(230,437,o),
(247,437,cs),
(311,437,o),
(342,392,o),
(342,301,cs),
(342,66,l),
(351,66,l),
(375,-12,l)
);
},
{
closed = 1;
nodes = (
(239,-12,o),
(303,18,o),
(342,66,c),
(354,66,l),
(354,131,l),
(315,84,o),
(264,57,o),
(213,57,cs),
(170,57,o),
(143,84,o),
(143,127,cs),
(143,179,o),
(187,216,o),
(277,239,cs),
(377,265,l),
(376,304,l),
(272,285,ls),
(125,257,o),
(52,196,o),
(52,103,cs),
(52,39,o),
(105,-12,o),
(174,-12,cs)
);
}
);
};
layerId = "FADD367C-B911-4374-B4A6-6A900BC90643";
name = "22 Aug 23 at 15:13";
shapes = (
{
closed = 1;
nodes = (
(942,-12,l),
(1045,53,l),
(1045,68,l),
(938,134,l),
(979,77,l),
(979,316,ls),
(979,429,o),
(907,492,o),
(778,492,cs),
(703,492,o),
(636,468,o),
(577,421,c),
(619,334,l),
(636,334,l),
(734,463,l),
(669,449,l),
(669,413,l),
(691,435,o),
(716,444,o),
(751,444,cs),
(850,444,o),
(893,399,o),
(893,296,cs),
(893,79,l),
(902,79,l),
(925,-12,l)
);
},
{
closed = 1;
nodes = (
(768,-12,o),
(832,18,o),
(893,79,c),
(908,79,l),
(908,140,l),
(861,88,o),
(797,56,o),
(740,56,cs),
(682,56,o),
(650,85,o),
(650,137,cs),
(650,181,o),
(688,210,o),
(774,233,cs),
(929,274,l),
(929,316,l),
(766,287,ls),
(638,264,o),
(567,206,o),
(567,125,cs),
(567,45,o),
(622,-12,o),
(700,-12,cs)
);
},
{
closed = 1;
nodes = (
(115,256,o),
(52,198,o),
(52,103,cs),
(52,35,o),
(100,-12,o),
(169,-12,cs),
(232,-12,o),
(280,3,o),
(342,67,c),
(357,67,l),
(357,135,l),
(308,74,o),
(265,60,o),
(204,60,cs),
(165,60,o),
(143,85,o),
(143,129,cs),
(143,171,o),
(188,213,o),
(251,231,cs),
(380,268,l),
(379,305,l),
(243,280,ls)
);
},
{
closed = 1;
nodes = (
(312,436,o),
(342,393,o),
(342,295,cs),
(342,67,l),
(351,67,l),
(374,-12,l),
(391,-12,l),
(498,53,l),
(498,68,l),
(391,134,l),
(432,77,l),
(432,312,ls),
(432,423,o),
(376,492,o),
(288,492,cs),
(192,492,o),
(122,467,o),
(58,411,c),
(108,320,l),
(124,320,l),
(221,451,l),
(148,451,l),
(150,391,l),
(175,421,o),
(206,436,o),
(243,436,c)
);
}
);
width = 542;
},
{
associatedMasterId = m01;
layerId = "6D1DC71A-D09B-4822-BB40-A1FCD701421F";
name = "22 Aug 23 at 20:20";
shapes = (
{
closed = 1;
nodes = (
(113,251,o),
(49,195,o),
(49,103,cs),
(49,39,o),
(104,-12,o),
(174,-12,cs),
(237,-12,o),
(298,3,o),
(360,67,c),
(375,67,l),
(375,135,l),
(341,93,o),
(272,60,o),
(219,60,cs),
(169,60,o),
(138,87,o),
(138,129,cs),
(138,174,o),
(172,203,o),
(249,222,cs),
(397,258,l),
(397,300,l),
(241,273,ls)
);
},
{
closed = 1;
nodes = (
(327,432,o),
(360,390,o),
(360,295,cs),
(360,67,l),
(369,67,l),
(392,-12,l),
(409,-12,l),
(516,53,l),
(516,68,l),
(409,134,l),
(450,77,l),
(450,312,ls),
(450,427,o),
(385,492,o),
(270,492,cs),
(186,492,o),
(121,467,o),
(56,411,c),
(105,324,l),
(121,324,l),
(213,451,l),
(148,451,l),
(148,387,l),
(173,417,o),
(207,432,o),
(251,432,c)
);
}
);
width = 538;
},
{
associatedMasterId = m01;
layerId = "F7FBCB65-7640-403F-9BE9-2B371E680F77";
name = "24 Aug 23 at 10:41";
shapes = (
{
closed = 1;
nodes = (
(113,254,o),
(49,197,o),
(49,103,cs),
(49,39,o),
(104,-12,o),
(174,-12,cs),
(237,-12,o),
(298,3,o),
(360,67,c),
(375,67,l),
(375,132,l),
(341,90,o),
(276,60,o),
(219,60,cs),
(169,60,o),
(138,87,o),
(138,129,cs),
(138,174,o),
(172,203,o),
(249,222,cs),
(397,258,l),
(397,303,l),
(241,276,ls)
);
},
{
closed = 1;
nodes = (
(327,432,o),
(360,390,o),
(360,295,cs),
(360,67,l),
(369,67,l),
(392,-12,l),
(409,-12,l),
(516,53,l),
(516,68,l),
(409,134,l),
(450,77,l),
(450,312,ls),
(450,427,o),
(385,492,o),
(270,492,cs),
(184,492,o),
(121,467,o),
(62,409,c),
(104,323,l),
(120,323,l),
(219,451,l),
(148,451,l),
(148,387,l),
(173,417,o),
(207,432,o),
(251,432,c)
);
}
);
width = 538;
},
{
associatedMasterId = m01;
layerId = "228C09B8-9A48-45A5-8DE4-3537E4B9219E";
name = "31 Aug 23 at 11:02";
shapes = (
{
closed = 1;
nodes = (
(410,-12,l),
(516,48,l),
(516,63,l),
(409,131,l),
(450,74,l),
(450,312,ls),
(450,427,o),
(385,492,o),
(270,492,cs),
(184,492,o),
(121,467,o),
(62,409,c),
(104,323,l),
(120,323,l),
(219,451,l),
(148,451,l),
(148,387,l),
(173,417,o),
(207,432,o),
(251,432,c),
(327,432,o),
(360,390,o),
(360,295,cs),
(360,67,l),
(370,67,l),
(393,-12,l)
);
},
{
closed = 1;
nodes = (
(254,-12,o),
(306,12,o),
(360,67,c),
(375,67,l),
(375,132,l),
(341,90,o),
(276,60,o),
(219,60,cs),
(169,60,o),
(138,87,o),
(138,129,cs),
(138,174,o),
(172,203,o),
(249,222,cs),
(397,258,l),
(397,303,l),
(241,276,ls),
(113,254,o),
(49,199,o),
(49,110,cs),
(49,35,o),
(103,-12,o),
(189,-12,cs)
);
}
);
width = 538;
},
{
anchors = (
{
name = bottom;
pos = (308,0);
},
{
name = ogonek;
pos = (439,-13);
},
{
name = top;
pos = (306,500);
}
);
layerId = m002;
name = Regular;
shapes = (
{
closed = 1;
nodes = (
(439,-13,l),
(594,53,l),
(594,77,l),
(492,183,l),
(535,105,l),
(535,330,ls),
(535,451,o),
(447,518,o),
(290,518,cs),
(200,518,o),
(92,496,o),
(45,469,c),
(106,317,l),
(135,317,l),
(271,494,l),
(168,494,l),
(168,394,l),
(186,427,o),
(220,447,o),
(256,447,cs),
(317,447,o),
(355,402,o),
(355,330,cs),
(355,61,l),
(368,61,l),
(412,-13,l)
);
},
{
closed = 1;
nodes = (
(261,-16,o),
(323,12,o),
(360,61,c),
(370,61,l),
(370,113,l),
(349,98,o),
(322,90,o),
(293,90,cs),
(251,90,o),
(227,115,o),
(227,161,cs),
(227,204,o),
(253,230,o),
(311,244,cs),
(375,260,l),
(375,317,l),
(262,295,ls),
(113,266,o),
(39,208,o),
(39,122,cs),
(39,41,o),
(101,-16,o),
(189,-16,cs)
);
}
);
width = 604;
},
{
anchors = (
{
name = bottom;
pos = (367,0);
},
{
name = ogonek;
pos = (589,10);
},
{
name = top;
pos = (367,480);
}
);
associatedMasterId = m002;
layerId = "7234665E-9869-4313-8413-0B90FA1F4B61";
name = "18 Sep 23 at 16:31";
shapes = (
{
closed = 1;
nodes = (
(449,-12,l),
(624,53,l),
(624,77,l),
(512,173,l),
(555,110,l),
(555,311,ls),
(555,437,o),
(461,516,o),
(312,516,cs),
(226,516,o),
(139,487,o),
(71,434,c),
(135,321,l),
(159,321,l),
(285,464,l),
(198,464,l),
(198,412,l),
(217,435,o),
(254,452,o),
(287,452,cs),
(341,452,o),
(375,404,o),
(375,328,cs),
(375,61,l),
(388,61,l),
(416,-12,l)
);
},
{
closed = 1;
nodes = (
(278,-16,o),
(343,12,o),
(380,61,c),
(390,61,l),
(390,118,l),
(367,103,o),
(355,98,o),
(313,98,cs),
(266,98,o),
(237,122,o),
(237,161,cs),
(237,201,o),
(268,228,o),
(331,244,cs),
(395,260,l),
(395,317,l),
(265,292,ls),
(121,264,o),
(49,208,o),
(49,122,cs),
(49,41,o),
(111,-16,o),
(199,-16,cs)
);
}
);
width = 646;
},
{
anchors = (
{
name = bottom;
pos = (347,0);
},
{
name = ogonek;
pos = (569,10);
},
{
name = top;
pos = (296,500);
}
);
associatedMasterId = m002;
layerId = "C44F931B-36D8-4CBB-A73B-8CA0179E066F";
name = "7 Oct 23 at 08:30";
shapes = (
{
closed = 1;
nodes = (
(439,-12,l),
(594,63,l),
(594,87,l),
(492,173,l),
(535,110,l),
(535,291,ls),
(535,435,o),
(448,516,o),
(292,516,cs),
(206,516,o),
(119,487,o),
(51,434,c),
(115,321,l),
(139,321,l),
(253,464,l),
(178,464,l),
(178,420,l),
(201,441,o),
(226,452,o),
(256,452,cs),
(317,452,o),
(355,404,o),
(355,328,cs),
(355,61,l),
(368,61,l),
(406,-12,l)
);
},
{
closed = 1;
nodes = (
(258,-16,o),
(323,12,o),
(360,61,c),
(370,61,l),
(370,113,l),
(349,98,o),
(322,90,o),
(293,90,cs),
(246,90,o),
(227,117,o),
(227,161,cs),
(227,201,o),
(248,228,o),
(311,244,cs),
(375,260,l),
(375,317,l),
(262,295,ls),
(119,267,o),
(39,205,o),
(39,122,cs),
(39,41,o),
(97,-16,o),
(179,-16,cs)
);
}
);
width = 604;
},
{
anchors = (
{
name = bottom;
pos = (347,0);
},
{
name = ogonek;
pos = (569,10);
},
{
name = top;
pos = (296,500);
}
);
associatedMasterId = m002;
layerId = "596DC027-F221-400C-9D70-4491C04D59B9";
name = "7 Oct 23 at 22:21";
shapes = (
{
closed = 1;
nodes = (
(439,-16,l),
(594,63,l),
(594,87,l),
(492,173,l),
(535,110,l),
(535,328,ls),
(535,443,o),
(449,516,o),
(312,516,cs),
(212,516,o),
(118,487,o),
(51,434,c),
(115,321,l),
(139,321,l),
(256,464,l),
(178,464,l),
(178,420,l),
(200,440,o),
(226,450,o),
(256,450,cs),
(317,450,o),
(355,403,o),
(355,328,cs),
(355,61,l),
(368,61,l),
(412,-16,l)
);
},
{
closed = 1;
nodes = (
(261,-16,o),
(323,12,o),
(360,61,c),
(370,61,l),
(370,113,l),
(349,98,o),
(322,90,o),
(293,90,cs),
(246,90,o),
(227,117,o),
(227,161,cs),
(227,201,o),
(248,228,o),
(311,244,cs),
(375,260,l),
(375,317,l),
(262,295,ls),
(119,267,o),
(39,205,o),
(39,122,cs),
(39,41,o),
(101,-16,o),
(189,-16,cs)
);
}
);
width = 604;
},
{
anchors = (
{
name = bottom;
pos = (277,0);
},
{
name = ogonek;
pos = (499,10);
},
{
name = top;
pos = (277,480);
}
);
associatedMasterId = m01;
layerId = "79057E69-75CC-43B0-9172-4D3AC06FDD47";
name = "11 Oct 23 at 11:10";
shapes = (
{
closed = 1;
nodes = (
(426,-12,l),
(532,48,l),
(532,63,l),
(425,131,l),
(466,74,l),
(466,312,ls),
(466,427,o),
(396,492,o),
(271,492,cs),
(188,492,o),
(129,469,o),
(61,408,c),
(113,322,l),
(129,322,l),
(216,451,l),
(143,451,l),
(143,406,l),
(184,427,o),
(212,434,o),
(253,434,c),
(332,434,o),
(376,384,o),
(376,295,cs),
(376,67,l),
(386,67,l),
(409,-12,l)
);
},
{
closed = 1;
nodes = (
(267,-12,o),
(322,12,o),
(376,67,c),
(391,67,l),
(391,129,l),
(348,82,o),
(292,58,o),
(224,58,cs),
(171,58,o),
(138,85,o),
(138,129,cs),
(138,186,o),
(178,213,o),
(297,242,cs),
(413,270,l),
(413,310,l),
(253,285,ls),
(117,264,o),
(49,208,o),
(49,117,cs),
(49,41,o),
(109,-12,o),
(194,-12,cs)
);
}
);
width = 554;
},
{
anchors = (
{
name = bottom;
pos = (347,0);
},
{
name = ogonek;
pos = (569,10);
},
{
name = top;
pos = (296,500);
}
);
associatedMasterId = m002;
layerId = "D8E07ABB-0635-4AC1-BFFD-177F15C594DC";
name = "15 Oct 23 at 15:05";
shapes = (
{
closed = 1;
nodes = (
(439,-16,l),
(594,53,l),
(594,77,l),
(492,163,l),
(535,100,l),
(535,328,ls),
(535,443,o),
(449,516,o),
(312,516,cs),
(212,516,o),
(118,487,o),
(51,434,c),
(115,321,l),
(139,321,l),
(256,464,l),
(178,464,l),
(178,420,l),
(200,440,o),
(226,450,o),
(256,450,cs),
(317,450,o),
(355,403,o),
(355,328,cs),
(355,61,l),
(368,61,l),
(412,-16,l)
);
},
{
closed = 1;
nodes = (
(261,-16,o),
(323,12,o),
(360,61,c),
(370,61,l),
(370,113,l),
(349,98,o),
(322,90,o),
(293,90,cs),
(246,90,o),
(227,117,o),
(227,161,cs),
(227,201,o),
(248,228,o),
(311,244,cs),
(375,260,l),
(375,317,l),
(262,295,ls),
(119,267,o),
(39,205,o),
(39,122,cs),
(39,41,o),
(101,-16,o),
(189,-16,cs)
);
}
);
width = 604;
},
{
anchors = (
{
name = bottom;
pos = (347,0);
},
{
name = ogonek;
pos = (569,10);
},
{
name = top;
pos = (296,500);
}
);
associatedMasterId = m002;
layerId = "6AA1E3C4-6CF8-48C2-880E-EC95836D5415";
name = "23 Oct 23 at 10:55";
shapes = (
{
closed = 1;
nodes = (
(439,-13,l),
(594,53,l),
(594,77,l),
(492,163,l),
(535,100,l),
(535,330,ls),
(535,445,o),
(449,518,o),
(312,518,cs),
(212,518,o),
(118,489,o),
(51,436,c),
(110,313,l),
(139,313,l),
(256,466,l),
(178,466,l),
(178,422,l),
(200,442,o),
(226,452,o),
(256,452,cs),
(317,452,o),
(355,405,o),
(355,330,cs),
(355,61,l),
(368,61,l),
(412,-13,l)
);
},
{
closed = 1;
nodes = (
(261,-16,o),
(323,12,o),
(360,61,c),
(370,61,l),
(370,113,l),
(349,98,o),
(322,90,o),
(293,90,cs),
(246,90,o),
(227,117,o),
(227,161,cs),
(227,201,o),
(248,228,o),
(311,244,cs),
(375,260,l),
(375,317,l),
(262,295,ls),
(119,267,o),
(39,205,o),
(39,122,cs),
(39,41,o),
(101,-16,o),
(189,-16,cs)
);
}
);
width = 604;
},
{
anchors = (
{
name = bottom;
pos = (347,0);
},
{
name = ogonek;
pos = (569,10);
},
{
name = top;
pos = (296,500);
}
);
associatedMasterId = m002;
layerId = "8B947285-F527-41F7-A929-9FB81D0C6A8A";
name = "1 Nov 23 at 22:10";
shapes = (
{
closed = 1;
nodes = (
(439,-13,l),
(594,53,l),
(594,77,l),
(492,163,l),
(535,100,l),
(535,330,ls),
(535,445,o),
(449,518,o),
(312,518,cs),
(212,518,o),
(118,489,o),
(51,436,c),
(110,313,l),
(139,313,l),
(246,466,l),
(178,466,l),
(178,422,l),
(200,442,o),
(226,452,o),
(256,452,cs),
(317,452,o),
(355,405,o),
(355,330,cs),
(355,61,l),
(368,61,l),
(412,-13,l)
);
},
{
closed = 1;
nodes = (
(261,-16,o),
(323,12,o),
(360,61,c),
(370,61,l),
(370,113,l),
(349,98,o),
(322,90,o),
(293,90,cs),
(246,90,o),
(227,117,o),
(227,161,cs),
(227,201,o),
(248,228,o),
(311,244,cs),
(375,260,l),
(375,317,l),
(262,295,ls),
(119,267,o),
(39,205,o),
(39,122,cs),
(39,41,o),
(101,-16,o),
(189,-16,cs)
);
}
);
width = 604;
},
{
anchors = (
{
name = bottom;
pos = (280,0);
},
{
name = ogonek;
pos = (502,10);
},
{
name = top;
pos = (280,480);
}
);
associatedMasterId = m01;
layerId = "D9C987E3-CBA0-4E2F-95E0-DC2C99ECE183";
name = "1 Nov 23 at 22:11";
shapes = (
{
closed = 1;
nodes = (
(429,-12,l),
(535,48,l),
(535,63,l),
(428,131,l),
(469,74,l),
(469,322,ls),
(469,436,o),
(401,492,o),
(264,492,cs),
(190,492,o),
(129,466,o),
(64,408,c),
(116,319,l),
(132,319,l),
(219,451,l),
(146,451,l),
(146,406,l),
(187,427,o),
(215,434,o),
(256,434,c),
(338,434,o),
(379,388,o),
(379,295,cs),
(379,67,l),
(389,67,l),
(412,-12,l)
);
},
{
closed = 1;
nodes = (
(270,-12,o),
(325,12,o),
(379,67,c),
(394,67,l),
(394,129,l),
(351,82,o),
(295,58,o),
(227,58,cs),
(174,58,o),
(141,85,o),
(141,129,cs),
(141,186,o),
(181,213,o),
(300,242,cs),
(416,270,l),
(416,310,l),
(256,285,ls),
(118,263,o),
(49,208,o),
(49,117,cs),
(49,41,o),
(110,-12,o),
(197,-12,cs)
);
}
);
width = 557;
},
{
anchors = (
{
name = bottom;
pos = (280,0);
},
{
name = ogonek;
pos = (502,10);
},
{
name = top;
pos = (280,480);
}
);
associatedMasterId = m01;
layerId = "8D400C0C-E39A-4178-A563-4583834A002D";
name = "13 Nov 23 at 13:43";
shapes = (
{
closed = 1;
nodes = (
(429,-12,l),
(535,48,l),
(535,63,l),
(428,131,l),
(469,74,l),
(469,322,ls),
(469,436,o),
(401,492,o),
(264,492,cs),
(193,492,o),
(126,465,o),
(63,410,c),
(116,319,l),
(132,319,l),
(219,451,l),
(146,451,l),
(146,406,l),
(187,427,o),
(215,434,o),
(256,434,c),
(338,434,o),
(379,388,o),
(379,295,cs),
(379,67,l),
(389,67,l),
(412,-12,l)
);
},
{
closed = 1;
nodes = (
(270,-12,o),
(325,12,o),
(379,67,c),
(394,67,l),
(394,129,l),
(351,82,o),
(295,58,o),
(227,58,cs),
(174,58,o),
(141,85,o),
(141,129,cs),
(141,186,o),
(181,213,o),
(300,242,cs),
(416,270,l),
(416,310,l),
(256,285,ls),
(118,263,o),
(49,208,o),
(49,117,cs),
(49,41,o),
(110,-12,o),
(197,-12,cs)
);
}
);
width = 557;
},
{
anchors = (
{
name = bottom;
pos = (347,0);
},
{
name = ogonek;
pos = (569,10);
},
{
name = top;
pos = (296,500);
}
);
associatedMasterId = m002;
layerId = "56EE6690-17A4-4C5E-A81A-DA43EC1177A5";
name = "13 Nov 23 at 13:51";
shapes = (
{
closed = 1;
nodes = (
(439,-13,l),
(594,53,l),
(594,77,l),
(492,163,l),
(535,100,l),
(535,330,ls),
(535,451,o),
(451,518,o),
(302,518,cs),
(211,518,o),
(115,486,o),
(51,436,c),
(110,313,l),
(139,313,l),
(246,466,l),
(178,466,l),
(178,422,l),
(200,442,o),
(226,452,o),
(256,452,cs),
(317,452,o),
(355,405,o),
(355,330,cs),
(355,61,l),
(368,61,l),
(412,-13,l)
);
},
{
closed = 1;
nodes = (
(261,-16,o),
(323,12,o),
(360,61,c),
(370,61,l),
(370,113,l),
(349,98,o),
(322,90,o),
(293,90,cs),
(246,90,o),
(227,117,o),
(227,161,cs),
(227,201,o),
(248,228,o),
(311,244,cs),
(375,260,l),
(375,317,l),
(262,295,ls),
(119,267,o),
(39,205,o),
(39,122,cs),
(39,41,o),
(101,-16,o),
(189,-16,cs)
);
}
);
width = 604;
},
{
anchors = (
{
name = bottom;
pos = (280,0);
},
{
name = ogonek;
pos = (502,10);
},
{
name = top;
pos = (280,480);
}
);
associatedMasterId = m01;
layerId = "46DC2506-DE66-43F1-AAD3-BA0205910212";
name = "15 Nov 23 at 14:54";
shapes = (
{
closed = 1;
nodes = (
(429,-12,l),
(535,48,l),
(535,63,l),
(428,138,l),
(469,81,l),
(469,322,ls),
(469,436,o),
(401,492,o),
(264,492,cs),
(192,492,o),
(125,468,o),
(63,419,c),
(120,319,l),
(136,319,l),
(214,451,l),
(146,451,l),
(146,393,l),
(182,423,o),
(213,434,o),
(256,434,c),
(338,434,o),
(379,388,o),
(379,295,cs),
(379,67,l),
(389,67,l),
(412,-12,l)
);
},
{
closed = 1;
nodes = (
(270,-12,o),
(325,12,o),
(379,67,c),
(394,67,l),
(394,129,l),
(351,82,o),
(295,58,o),
(227,58,cs),
(174,58,o),
(141,85,o),
(141,129,cs),
(141,186,o),
(181,213,o),
(300,242,cs),
(416,270,l),
(416,310,l),
(256,285,ls),
(118,263,o),
(49,208,o),
(49,117,cs),
(49,41,o),
(110,-12,o),
(197,-12,cs)
);
}
);
width = 557;
},
{
anchors = (
{
name = bottom;
pos = (280,0);
},
{
name = ogonek;
pos = (502,10);
},
{
name = top;
pos = (280,480);
}
);
associatedMasterId = m01;
layerId = "E0CCFC77-F1E6-4B40-873E-6A3CAA1D185B";
name = "17 Nov 23 at 10:49";
shapes = (
{
closed = 1;
nodes = (
(429,-12,l),
(535,48,l),
(535,63,l),
(428,138,l),
(469,81,l),
(469,322,ls),
(469,436,o),
(401,492,o),
(264,492,cs),
(196,492,o),
(129,468,o),
(63,419,c),
(116,318,l),
(132,318,l),
(219,451,l),
(146,451,l),
(146,395,l),
(182,425,o),
(213,436,o),
(256,436,c),
(338,436,o),
(379,390,o),
(379,297,cs),
(379,67,l),
(389,67,l),
(412,-12,l)
);
},
{
closed = 1;
nodes = (
(270,-12,o),
(325,12,o),
(379,67,c),
(394,67,l),
(394,129,l),
(351,82,o),
(295,58,o),
(227,58,cs),
(174,58,o),
(141,85,o),
(141,129,cs),
(141,186,o),
(181,213,o),
(300,242,cs),
(416,270,l),
(416,310,l),
(256,285,ls),
(118,263,o),
(49,208,o),
(49,117,cs),
(49,41,o),
(110,-12,o),
(197,-12,cs)
);
}
);
width = 557;
},
{
anchors = (
{
name = bottom;
pos = (347,0);
},
{
name = ogonek;
pos = (569,10);
},
{
name = top;
pos = (296,500);
}
);
associatedMasterId = m002;
layerId = "F3ACE646-70AA-41DB-AA49-365977BB45A0";
name = "17 Nov 23 at 10:53";
shapes = (
{
closed = 1;
nodes = (
(439,-13,l),
(594,53,l),
(594,77,l),
(492,178,l),
(535,100,l),
(535,330,ls),
(535,451,o),
(451,518,o),
(302,518,cs),
(209,518,o),
(111,493,o),
(47,453,c),
(108,303,l),
(137,303,l),
(267,478,l),
(168,478,l),
(168,421,l),
(185,439,o),
(228,452,o),
(256,452,cs),
(317,452,o),
(355,405,o),
(355,330,cs),
(355,61,l),
(368,61,l),
(412,-13,l)
);
},
{
closed = 1;
nodes = (
(261,-16,o),
(323,12,o),
(360,61,c),
(370,61,l),
(370,113,l),
(349,98,o),
(322,90,o),
(293,90,cs),
(246,90,o),
(227,117,o),
(227,161,cs),
(227,201,o),
(248,228,o),
(311,244,cs),
(375,260,l),
(375,317,l),
(262,295,ls),
(119,267,o),
(39,205,o),
(39,122,cs),
(39,41,o),
(101,-16,o),
(189,-16,cs)
);
}
);
width = 604;
}
);
metricLeft = "=o+5";
metricRight = "=n";
unicode = 97;
userData = {
KernOnName = a;
};
},
{
color = 4;
glyphname = ae;
kernLeft = KO_a;
kernRight = KO_ae;
lastChange = "2024-01-09 04:09:00 +0000";
layers = (
{
anchors = (
{
name = bottom;
pos = (433,0);
},
{
name = top;
pos = (445,480);
}
);
layerId = m01;
shapes = (
{
closed = 1;
nodes = (
(469,265,l),
(469,322,ls),
(469,426,o),
(387,492,o),
(257,492,cs),
(186,492,o),
(116,474,o),
(63,442,c),
(114,336,l),
(130,336,l),
(231,469,l),
(152,469,l),
(146,389,l),
(171,418,o),
(213,436,o),
(256,436,cs),
(338,436,o),
(379,390,o),
(379,297,cs),
(379,265,l)
);
},
{
closed = 1;
nodes = (
(278,-12,o),
(357,22,o),
(416,82,c),
(431,82,l),
(428,146,l),
(379,92,o),
(301,58,o),
(227,58,cs),
(174,58,o),
(141,85,o),
(141,129,cs),
(141,182,o),
(185,208,o),
(300,225,cs),
(416,242,l),
(416,287,l),
(256,268,ls),
(123,252,o),
(49,198,o),
(49,117,cs),
(49,41,o),
(110,-12,o),
(197,-12,cs)
);
},
{
closed = 1;
nodes = (
(697,-12,o),
(768,22,o),
(811,82,c),
(789,106,l),
(752,71,o),
(704,53,o),
(645,53,cs),
(534,53,o),
(472,124,o),
(472,250,cs),
(472,360,o),
(527,438,o),
(606,438,cs),
(673,438,o),
(715,394,o),
(715,324,c),
(438,287,l),
(438,244,l),
(821,274,l),
(821,408,o),
(746,492,o),
(627,492,cs),
(481,492,o),
(379,381,o),
(379,222,cs),
(379,85,o),
(476,-12,o),
(614,-12,cs)
);
}
);
width = 865;
},
{
anchors = (
{
name = bottom;
pos = (454,0);
},
{
name = top;
pos = (469,500);
}
);
layerId = m002;
shapes = (
{
closed = 1;
nodes = (
(535,279,l),
(535,330,ls),
(535,440,o),
(434,518,o),
(290,518,cs),
(200,518,o),
(92,496,o),
(45,469,c),
(106,317,l),
(135,317,l),
(271,494,l),
(168,494,l),
(168,394,l),
(186,427,o),
(220,447,o),
(256,447,cs),
(317,447,o),
(355,402,o),
(355,330,cs),
(355,279,l)
);
},
{
closed = 1;
nodes = (
(294,-16,o),
(360,12,o),
(409,77,c),
(419,77,l),
(418,144,l),
(388,108,o),
(346,90,o),
(293,90,cs),
(251,90,o),
(227,112,o),
(227,151,cs),
(227,194,o),
(255,228,o),
(311,235,cs),
(375,243,l),
(375,303,l),
(262,290,ls),
(125,274,o),
(39,209,o),
(39,121,cs),
(39,41,o),
(101,-16,o),
(189,-16,cs)
);
},
{
closed = 1;
nodes = (
(732,-16,o),
(821,38,o),
(858,124,c),
(824,148,l),
(790,113,o),
(747,96,o),
(692,96,cs),
(604,96,o),
(548,163,o),
(548,269,cs),
(548,377,o),
(578,444,o),
(627,444,cs),
(674,444,o),
(703,402,o),
(703,335,c),
(491,305,l),
(491,251,l),
(873,278,l),
(873,418,o),
(780,516,o),
(647,516,cs),
(487,516,o),
(361,391,o),
(361,231,cs),
(361,86,o),
(470,-16,o),
(626,-16,cs)
);
}
);
width = 907;
}
);
metricLeft = "=a";
metricRight = "=e";
unicode = 230;
},
{
color = 4;
glyphname = b;
kernLeft = KO_b;
kernRight = KO_p;
lastChange = "2024-02-04 05:23:04 +0000";
layers = (
{
layerId = m01;
shapes = (
{
closed = 1;
nodes = (
(442,-12,o),
(551,98,o),
(551,254,cs),
(551,400,o),
(472,492,o),
(345,492,cs),
(283,492,o),
(220,459,o),
(180,406,c),
(165,406,l),
(165,340,l),
(211,397,o),
(258,422,o),
(320,422,cs),
(408,422,o),
(457,355,o),
(457,236,cs),
(457,122,o),
(391,42,o),
(298,42,cs),
(229,42,o),
(174,71,o),
(145,123,c),
(145,29,l),
(182,2,o),
(229,-12,o),
(288,-12,cs)
);
},
{
closed = 1;
nodes = (
(104,-12,l),
(180,52,l),
(180,765,l),
(157,765,l),
(17,709,l),
(17,694,l),
(133,612,l),
(90,675,l),
(90,-12,l)
);
}
);
width = 595;
},
{
layerId = m002;
shapes = (
{
closed = 1;
nodes = (
(515,-16,o),
(636,106,o),
(636,279,cs),
(636,418,o),
(549,516,o),
(425,516,cs),
(360,516,o),
(294,482,o),
(255,429,c),
(245,429,l),
(245,372,l),
(268,392,o),
(297,402,o),
(332,402,cs),
(403,402,o),
(448,340,o),
(448,242,cs),
(448,112,o),
(406,48,o),
(322,48,cs),
(271,48,o),
(236,68,o),
(193,120,c),
(193,28,l),
(232,-3,o),
(278,-16,o),
(343,-16,cs)
);
},
{
closed = 1;
nodes = (
(102,-16,l),
(260,49,l),
(260,765,l),
(227,765,l),
(11,690,l),
(11,666,l),
(123,546,l),
(80,629,l),
(80,-16,l)
);
}
);
width = 670;
},
{
associatedMasterId = m01;
layerId = "769E84D7-E1D7-4EB4-B11D-CC54C928B74A";
name = "17 Nov 23 at 11:14";
shapes = (
{
closed = 1;
nodes = (
(442,-12,o),
(551,98,o),
(551,254,cs),
(551,400,o),
(472,492,o),
(345,492,cs),
(283,492,o),
(220,459,o),
(180,406,c),
(165,406,l),
(165,340,l),
(211,397,o),
(258,422,o),
(320,422,cs),
(408,422,o),
(457,355,o),
(457,236,cs),
(457,122,o),
(391,42,o),
(298,42,cs),
(229,42,o),
(174,71,o),
(145,123,c),
(145,29,l),
(182,2,o),
(229,-12,o),
(288,-12,cs)
);
},
{
closed = 1;
nodes = (
(104,-12,l),
(180,52,l),
(180,765,l),
(157,765,l),
(17,709,l),
(17,694,l),
(133,612,l),
(90,675,l),
(90,-12,l)
);
}
);
width = 595;
}
);
metricLeft = "=n*0.5";
metricRight = "=o";
unicode = 98;
userData = {
KernOnName = b;
};
},
{
color = 4;
glyphname = c;
kernLeft = KO_e;
kernRight = KO_c;
lastChange = "2024-02-04 05:23:04 +0000";
layers = (
{
anchors = (
{
name = bottom;
pos = (280,0);
},
{
name = top;
pos = (289,480);
}
);
layerId = m01;
shapes = (
{
closed = 1;
nodes = (
(363,-12,o),
(434,22,o),
(477,82,c),
(455,106,l),
(418,71,o),
(370,53,o),
(313,53,cs),
(201,53,o),
(138,124,o),
(138,250,cs),
(138,365,o),
(196,438,o),
(289,438,cs),
(331,438,o),
(364,423,o),
(389,393,c),
(389,468,l),
(310,468,l),
(414,335,l),
(430,335,l),
(476,442,l),
(424,475,o),
(368,492,o),
(306,492,cs),
(152,492,o),
(44,381,o),
(44,222,cs),
(44,85,o),
(141,-12,o),
(280,-12,cs)
);
}
);
width = 503;
},
{
associatedMasterId = m01;
layerId = "48DD4368-4CB3-4F3B-876B-7DD7DF9B2E0C";
name = "20 Aug 23 at 17:29";
shapes = (
{
closed = 1;
nodes = (
(357,-11,o),
(422,19,o),
(461,72,c),
(437,99,l),
(402,64,o),
(355,46,o),
(298,46,cs),
(196,46,o),
(125,135,o),
(125,261,cs),
(125,367,o),
(185,441,o),
(270,441,cs),
(304,441,o),
(327,433,o),
(344,416,c),
(344,467,l),
(287,467,l),
(397,343,l),
(414,343,l),
(463,436,l),
(417,474,o),
(357,493,o),
(283,493,cs),
(140,493,o),
(40,380,o),
(40,220,cs),
(40,91,o),
(146,-11,o),
(281,-11,cs)
);
}
);
width = 503;
},
{
associatedMasterId = m01;
layerId = "66DA4924-4D19-4BA9-B235-7A6CBCA553F1";
name = "22 Aug 23 at 17:54";
shapes = (
{
closed = 1;
nodes = (
(360,-11,o),
(428,27,o),
(473,96,c),
(443,118,l),
(403,70,o),
(356,46,o),
(299,46,cs),
(198,46,o),
(127,135,o),
(127,261,cs),
(127,367,o),
(186,441,o),
(271,441,cs),
(305,441,o),
(328,433,o),
(345,416,c),
(345,467,l),
(288,467,l),
(398,343,l),
(415,343,l),
(464,436,l),
(418,474,o),
(358,493,o),
(284,493,cs),
(141,493,o),
(40,380,o),
(40,220,cs),
(40,91,o),
(146,-11,o),
(282,-11,cs)
);
},
{
closed = 1;
nodes = (
(-119,-12,o),
(-46,23,o),
(-5,88,c),
(-28,112,l),
(-75,68,o),
(-121,49,o),
(-179,49,cs),
(-285,49,o),
(-353,130,o),
(-353,259,cs),
(-353,376,o),
(-305,442,o),
(-220,442,c),
(-192,442,o),
(-168,436,o),
(-141,422,c),
(-141,462,l),
(-203,462,l),
(-85,330,l),
(-70,330,l),
(-15,436,l),
(-67,473,o),
(-127,492,o),
(-195,492,cs),
(-338,492,o),
(-450,374,o),
(-450,223,cs),
(-450,85,o),
(-350,-12,o),
(-208,-12,cs)
);
}
);
width = 513;
},
{
associatedMasterId = m01;
layerId = "62003C0F-C925-4C37-AFDE-701EAD7A4754";
name = "24 Aug 23 at 12:50";
shapes = (
{
closed = 1;
nodes = (
(330,438,o),
(365,423,o),
(390,393,c),
(390,469,l),
(312,469,l),
(415,334,l),
(431,334,l),
(482,429,l),
(435,471,o),
(375,492,o),
(302,492,cs),
(148,492,o),
(44,381,o),
(44,222,cs),
(44,85,o),
(138,-12,o),
(278,-12,cs),
(368,-12,o),
(436,21,o),
(482,88,c),
(459,112,l),
(419,72,o),
(360,50,o),
(295,50,cs),
(205,50,o),
(135,138,o),
(135,250,cs),
(135,365,o),
(193,438,o),
(285,438,cs)
);
}
);
width = 526;
},
{
associatedMasterId = m002;
layerId = "21CF8BFD-2E53-4815-AF12-D667EF8D2AC7";
name = "7 Oct 23 at 10:31";
shapes = (
{
closed = 1;
nodes = (
(413,-16,o),
(501,38,o),
(539,124,c),
(505,148,l),
(470,112,o),
(431,96,o),
(377,96,cs),
(282,96,o),
(222,163,o),
(222,269,cs),
(222,384,o),
(265,449,o),
(343,449,cs),
(372,449,o),
(395,436,o),
(413,411,c),
(413,476,l),
(319,476,l),
(454,322,l),
(478,322,l),
(542,442,l),
(486,489,o),
(412,516,o),
(336,516,cs),
(159,516,o),
(34,398,o),
(34,231,cs),
(34,79,o),
(141,-16,o),
(311,-16,cs)
);
}
);
width = 566;
},
{
associatedMasterId = m002;
guides = (
{
angle = 90;
pos = (529,124);
}
);
layerId = "2BC3C372-EA45-4DF1-B8CB-EDC7429411AC";
name = "11 Oct 23 at 11:43";
shapes = (
{
closed = 1;
nodes = (
(406,-16,o),
(492,38,o),
(529,124,c),
(495,148,l),
(460,112,o),
(422,96,o),
(372,96,cs),
(279,96,o),
(221,163,o),
(221,269,cs),
(221,374,o),
(269,447,o),
(338,447,cs),
(366,447,o),
(391,437,o),
(408,419,c),
(408,476,l),
(315,476,l),
(441,325,l),
(465,325,l),
(529,445,l),
(478,491,o),
(407,516,o),
(331,516,cs),
(157,516,o),
(34,398,o),
(34,231,cs),
(34,86,o),
(146,-16,o),
(306,-16,cs)
);
}
);
width = 553;
},
{
associatedMasterId = m01;
layerId = "6D07E7D7-A69B-42E9-B0E0-26B8B63744B6";
name = "11 Oct 23 at 11:46";
shapes = (
{
closed = 1;
nodes = (
(358,-12,o),
(429,22,o),
(472,82,c),
(450,106,l),
(413,71,o),
(365,53,o),
(306,53,cs),
(196,53,o),
(135,124,o),
(135,250,cs),
(135,365,o),
(192,438,o),
(284,438,cs),
(326,438,o),
(359,423,o),
(384,393,c),
(384,468,l),
(305,468,l),
(409,338,l),
(425,338,l),
(471,442,l),
(424,475,o),
(368,492,o),
(301,492,cs),
(150,492,o),
(44,381,o),
(44,222,cs),
(44,85,o),
(139,-12,o),
(275,-12,cs)
);
}
);
width = 506;
},
{
associatedMasterId = m002;
guides = (
{
angle = 90;
pos = (522,124);
}
);
layerId = "6E956DC3-BE9C-4884-885B-8146D40D10EB";
name = "15 Oct 23 at 15:05";
shapes = (
{
closed = 1;
nodes = (
(399,-16,o),
(485,38,o),
(522,124,c),
(488,148,l),
(453,112,o),
(415,96,o),
(365,96,cs),
(277,96,o),
(221,163,o),
(221,269,cs),
(221,374,o),
(266,447,o),
(331,447,cs),
(359,447,o),
(384,437,o),
(401,419,c),
(401,476,l),
(308,476,l),
(434,325,l),
(458,325,l),
(522,445,l),
(472,491,o),
(401,516,o),
(324,516,cs),
(154,516,o),
(34,398,o),
(34,231,cs),
(34,86,o),
(143,-16,o),
(299,-16,cs)
);
}
);
width = 546;
},
{
associatedMasterId = m002;
guides = (
{
angle = 90;
pos = (522,124);
}
);
layerId = "3ECC08F0-89AC-4009-8A74-27303E25E081";
name = "23 Oct 23 at 10:55";
shapes = (
{
closed = 1;
nodes = (
(399,-16,o),
(485,38,o),
(522,124,c),
(488,148,l),
(453,112,o),
(415,96,o),
(365,96,cs),
(277,96,o),
(221,163,o),
(221,269,cs),
(221,368,o),
(270,445,o),
(333,445,cs),
(361,445,o),
(384,437,o),
(401,419,c),
(401,476,l),
(308,476,l),
(429,325,l),
(458,325,l),
(522,445,l),
(472,491,o),
(401,516,o),
(314,516,cs),
(157,516,o),
(34,391,o),
(34,231,cs),
(34,86,o),
(143,-16,o),
(299,-16,cs)
);
}
);
width = 546;
},
{
associatedMasterId = m002;
guides = (
{
angle = 90;
pos = (522,124);
}
);
layerId = "8AC59C94-562A-482B-AFF3-BDE85EE0038C";
name = "23 Oct 23 at 10:55";
shapes = (
{
closed = 1;
nodes = (
(399,-16,o),
(485,38,o),
(522,124,c),
(488,148,l),
(453,112,o),
(415,96,o),
(365,96,cs),
(277,96,o),
(221,163,o),
(221,269,cs),
(221,368,o),
(270,445,o),
(333,445,cs),
(361,445,o),
(384,437,o),
(401,419,c),
(401,476,l),
(308,476,l),
(429,325,l),
(458,325,l),
(522,445,l),
(472,491,o),
(401,516,o),
(314,516,cs),
(157,516,o),
(34,391,o),
(34,231,cs),
(34,86,o),
(143,-16,o),
(299,-16,cs)
);
}
);
width = 546;
},
{
anchors = (
{
name = bottom;
pos = (299,0);
},
{
name = top;
pos = (304,500);
}
);
guides = (
{
angle = 90;
pos = (522,124);
}
);
layerId = m002;
name = "Extra Bold";
shapes = (
{
closed = 1;
nodes = (
(399,-16,o),
(485,38,o),
(522,124,c),
(488,148,l),
(453,112,o),
(415,96,o),
(365,96,cs),
(277,96,o),
(221,163,o),
(221,269,cs),
(221,368,o),
(270,445,o),
(333,445,cs),
(361,445,o),
(384,437,o),
(401,419,c),
(401,476,l),
(310,476,l),
(429,313,l),
(458,313,l),
(522,467,l),
(474,497,o),
(400,516,o),
(329,516,cs),
(156,516,o),
(34,398,o),
(34,231,cs),
(34,86,o),
(143,-16,o),
(299,-16,cs)
);
}
);
width = 542;
},
{
associatedMasterId = m01;
layerId = "69323E87-FB59-4DAC-BCBF-E6108F2BA7A2";
name = "15 Nov 23 at 14:51";
shapes = (
{
closed = 1;
nodes = (
(362,-12,o),
(433,22,o),
(476,82,c),
(454,106,l),
(417,71,o),
(369,53,o),
(310,53,cs),
(199,53,o),
(137,124,o),
(137,250,cs),
(137,365,o),
(195,438,o),
(288,438,cs),
(330,438,o),
(363,423,o),
(388,393,c),
(388,468,l),
(309,468,l),
(413,335,l),
(429,335,l),
(475,442,l),
(428,475,o),
(372,492,o),
(305,492,cs),
(152,492,o),
(44,381,o),
(44,222,cs),
(44,85,o),
(141,-12,o),
(279,-12,cs)
);
}
);
width = 502;
},
{
associatedMasterId = m002;
guides = (
{
angle = 90;
pos = (522,124);
}
);
layerId = "440CC7F1-E1FF-4241-9EA4-A912F96CD9E6";
name = "15 Nov 23 at 15:10";
shapes = (
{
closed = 1;
nodes = (
(399,-16,o),
(485,38,o),
(522,124,c),
(488,148,l),
(453,112,o),
(415,96,o),
(365,96,cs),
(277,96,o),
(221,163,o),
(221,269,cs),
(221,368,o),
(270,445,o),
(333,445,cs),
(361,445,o),
(384,437,o),
(401,419,c),
(401,476,l),
(310,476,l),
(429,313,l),
(458,313,l),
(522,467,l),
(478,497,o),
(404,516,o),
(329,516,cs),
(156,516,o),
(34,398,o),
(34,231,cs),
(34,86,o),
(143,-16,o),
(299,-16,cs)
);
}
);
width = 542;
},
{
anchors = (
{
name = bottom;
pos = (279,0);
},
{
name = top;
pos = (288,480);
}
);
associatedMasterId = m01;
layerId = "E9B09A24-5BA7-44AB-A860-0C5217C605E6";
name = "23 Nov 23 at 13:58";
shapes = (
{
closed = 1;
nodes = (
(362,-12,o),
(433,22,o),
(476,82,c),
(454,106,l),
(417,71,o),
(369,53,o),
(312,53,cs),
(200,53,o),
(137,124,o),
(137,250,cs),
(137,365,o),
(195,438,o),
(288,438,cs),
(330,438,o),
(363,423,o),
(388,393,c),
(388,468,l),
(309,468,l),
(413,335,l),
(429,335,l),
(475,442,l),
(423,475,o),
(367,492,o),
(305,492,cs),
(152,492,o),
(44,381,o),
(44,222,cs),
(44,85,o),
(141,-12,o),
(279,-12,cs)
);
}
);
width = 502;
}
);
metricLeft = "=o";
metricRight = "=o*0.6";
unicode = 99;
userData = {
KernOnName = c;
};
},
{
color = 4;
glyphname = d;
kernLeft = KO_d;
kernRight = KO_d;
lastChange = "2024-02-04 05:23:04 +0000";
layers = (
{
anchors = (
{
name = bottom;
pos = (297,0);
},
{
name = center;
pos = (458,561);
},
{
name = top;
pos = (297,765);
},
{
name = topright;
pos = (525,761);
}
);
layerId = m01;
shapes = (
{
closed = 1;
nodes = (
(464,-12,l),
(571,48,l),
(571,63,l),
(464,138,l),
(505,81,l),
(505,765,l),
(482,765,l),
(342,709,l),
(342,694,l),
(458,612,l),
(415,675,l),
(415,74,l),
(424,74,l),
(447,-12,l)
);
},
{
closed = 1;
nodes = (
(312,-12,o),
(375,21,o),
(415,74,c),
(430,74,l),
(430,140,l),
(384,83,o),
(337,58,o),
(275,58,cs),
(187,58,o),
(138,125,o),
(138,244,cs),
(138,358,o),
(204,438,o),
(297,438,cs),
(366,438,o),
(421,409,o),
(450,357,c),
(450,451,l),
(413,478,o),
(366,492,o),
(307,492,cs),
(153,492,o),
(44,382,o),
(44,226,cs),
(44,80,o),
(123,-12,o),
(250,-12,cs)
);
}
);
width = 593;
},
{
associatedMasterId = m01;
layerId = "547A92CD-2591-4B12-B5AC-937F7C0D6594";
name = "22 Aug 23 at 15:05";
shapes = (
{
closed = 1;
nodes = (
(297,-12,o),
(357,18,o),
(403,71,c),
(418,71,l),
(418,132,l),
(372,81,o),
(327,59,o),
(270,59,cs),
(178,59,o),
(127,128,o),
(127,252,cs),
(127,362,o),
(191,440,o),
(284,440,cs),
(349,440,o),
(392,414,o),
(426,363,c),
(455,433,l),
(396,477,o),
(362,492,o),
(301,492,cs),
(148,492,o),
(40,378,o),
(40,215,cs),
(40,88,o),
(127,-12,o),
(237,-12,cs)
);
},
{
closed = 1;
nodes = (
(452,-12,l),
(555,53,l),
(555,68,l),
(448,134,l),
(489,77,l),
(489,765,l),
(464,765,l),
(328,703,l),
(328,688,l),
(444,607,l),
(403,684,l),
(403,617,l),
(408,467,l),
(403,467,l),
(403,71,l),
(412,71,l),
(435,-12,l)
);
}
);
width = 583;
},
{
associatedMasterId = m01;
layerId = "BCFCC2FA-9566-40C1-B8E2-BCB7DA665336";
name = "24 Aug 23 at 10:04";
shapes = (
{
closed = 1;
nodes = (
(411,684,l),
(411,77,l),
(420,77,l),
(443,-12,l),
(460,-12,l),
(567,53,l),
(567,68,l),
(460,134,l),
(501,77,l),
(501,765,l),
(478,765,l),
(338,703,l),
(338,688,l),
(454,607,l)
);
},
{
closed = 1;
nodes = (
(446,451,l),
(405,480,o),
(363,492,o),
(308,492,cs),
(153,492,o),
(44,381,o),
(44,222,cs),
(44,91,o),
(129,-12,o),
(238,-12,cs),
(301,-12,o),
(349,13,o),
(411,77,c),
(426,77,l),
(426,145,l),
(377,84,o),
(334,60,o),
(273,60,cs),
(184,60,o),
(135,127,o),
(135,248,cs),
(135,360,o),
(207,438,o),
(310,438,cs),
(364,438,o),
(409,418,o),
(446,377,c)
);
}
);
width = 589;
},
{
associatedMasterId = m01;
layerId = "C926DF3F-84E2-4FB7-883D-7F883EFF390B";
name = "24 Aug 23 at 10:33";
shapes = (
{
closed = 1;
nodes = (
(411,77,l),
(420,77,l),
(443,-12,l),
(460,-12,l),
(567,48,l),
(567,63,l),
(460,131,l),
(501,74,l),
(501,765,l),
(478,765,l),
(338,709,l),
(338,694,l),
(454,619,l),
(411,682,l)
);
},
{
closed = 1;
nodes = (
(151,492,o),
(44,381,o),
(44,222,cs),
(44,78,o),
(122,-12,o),
(246,-12,cs),
(306,-12,o),
(370,22,o),
(411,77,c),
(426,77,l),
(426,145,l),
(378,86,o),
(331,60,o),
(271,60,cs),
(184,60,o),
(135,127,o),
(135,248,cs),
(135,360,o),
(200,438,o),
(293,438,cs),
(360,438,o),
(415,414,o),
(446,372,c),
(446,451,l),
(406,480,o),
(362,492,o),
(303,492,cs)
);
}
);
width = 589;
},
{
associatedMasterId = m01;
layerId = "D6326E18-F7EA-4DB2-9BC2-B27509B20331";
name = "26 Aug 23 at 15:27";
shapes = (
{
closed = 1;
nodes = (
(412,77,l),
(421,77,l),
(444,-12,l),
(461,-12,l),
(568,48,l),
(568,63,l),
(461,131,l),
(502,74,l),
(502,765,l),
(479,765,l),
(339,709,l),
(339,694,l),
(455,619,l),
(412,682,l)
);
},
{
closed = 1;
nodes = (
(151,492,o),
(44,381,o),
(44,222,cs),
(44,78,o),
(122,-12,o),
(247,-12,cs),
(307,-12,o),
(371,22,o),
(412,77,c),
(427,77,l),
(427,145,l),
(378,84,o),
(331,58,o),
(272,58,cs),
(184,58,o),
(135,126,o),
(135,248,cs),
(135,360,o),
(201,438,o),
(294,438,cs),
(361,438,o),
(416,414,o),
(447,372,c),
(447,451,l),
(407,480,o),
(363,492,o),
(304,492,cs)
);
}
);
width = 590;
},
{
associatedMasterId = m01;
layerId = "C2DBE5EA-7699-4449-A642-325D06833CF4";
name = "31 Aug 23 at 10:58";
shapes = (
{
closed = 1;
nodes = (
(412,70,l),
(421,70,l),
(444,-12,l),
(461,-12,l),
(568,48,l),
(568,63,l),
(461,131,l),
(502,74,l),
(502,765,l),
(479,765,l),
(339,709,l),
(339,694,l),
(455,619,l),
(412,682,l)
);
},
{
closed = 1;
nodes = (
(151,492,o),
(44,381,o),
(44,222,cs),
(44,78,o),
(122,-12,o),
(247,-12,cs),
(310,-12,o),
(374,20,o),
(412,70,c),
(427,70,l),
(427,140,l),
(381,83,o),
(334,58,o),
(272,58,cs),
(184,58,o),
(135,126,o),
(135,248,cs),
(135,360,o),
(201,438,o),
(294,438,cs),
(361,438,o),
(416,414,o),
(447,372,c),
(447,451,l),
(407,480,o),
(363,492,o),
(304,492,cs)
);
}
);
width = 590;
},
{
anchors = (
{
name = bottom;
pos = (330,0);
},
{
name = center;
pos = (507,573);
},
{
name = top;
pos = (330,765);
},
{
name = topright;
pos = (620,761);
}
);
layerId = m002;
shapes = (
{
closed = 1;
nodes = (
(494,-13,l),
(649,53,l),
(649,77,l),
(547,183,l),
(590,105,l),
(590,765,l),
(557,765,l),
(341,690,l),
(341,666,l),
(453,546,l),
(410,629,l),
(410,71,l),
(423,71,l),
(467,-13,l)
);
},
{
closed = 1;
nodes = (
(310,-16,o),
(376,18,o),
(415,71,c),
(425,71,l),
(425,128,l),
(402,108,o),
(373,98,o),
(338,98,cs),
(267,98,o),
(222,160,o),
(222,258,cs),
(222,388,o),
(264,452,o),
(348,452,cs),
(399,452,o),
(434,432,o),
(477,380,c),
(477,472,l),
(438,503,o),
(392,516,o),
(327,516,cs),
(155,516,o),
(34,394,o),
(34,221,cs),
(34,82,o),
(121,-16,o),
(245,-16,cs)
);
}
);
width = 659;
},
{
associatedMasterId = m002;
layerId = "E01E8170-A970-4FFD-AAC9-E45F7DFAB695";
name = "7 Oct 23 at 08:35";
shapes = (
{
closed = 1;
nodes = (
(494,-16,l),
(649,63,l),
(649,87,l),
(547,173,l),
(590,110,l),
(590,765,l),
(557,765,l),
(341,690,l),
(341,666,l),
(453,576,l),
(410,639,l),
(410,71,l),
(423,71,l),
(467,-16,l)
);
},
{
closed = 1;
nodes = (
(310,-16,o),
(376,18,o),
(415,71,c),
(425,71,l),
(425,128,l),
(402,108,o),
(373,98,o),
(338,98,cs),
(267,98,o),
(222,160,o),
(222,258,cs),
(222,388,o),
(264,452,o),
(348,452,cs),
(399,452,o),
(434,432,o),
(477,380,c),
(477,472,l),
(438,503,o),
(392,516,o),
(327,516,cs),
(163,516,o),
(34,386,o),
(34,221,cs),
(34,88,o),
(127,-16,o),
(245,-16,cs)
);
}
);
width = 659;
},
{
associatedMasterId = m002;
layerId = "FEF0DD98-7070-4BCF-B686-1E8A0B6605D4";
name = "10 Oct 23 at 17:37";
shapes = (
{
closed = 1;
nodes = (
(494,-16,l),
(649,53,l),
(649,77,l),
(547,163,l),
(590,100,l),
(590,765,l),
(557,765,l),
(341,690,l),
(341,666,l),
(453,576,l),
(410,639,l),
(410,71,l),
(423,71,l),
(467,-16,l)
);
},
{
closed = 1;
nodes = (
(310,-16,o),
(376,18,o),
(415,71,c),
(425,71,l),
(425,128,l),
(402,108,o),
(373,98,o),
(338,98,cs),
(267,98,o),
(222,160,o),
(222,258,cs),
(222,388,o),
(264,452,o),
(348,452,cs),
(399,452,o),
(434,432,o),
(477,380,c),
(477,472,l),
(438,503,o),
(392,516,o),
(327,516,cs),
(155,516,o),
(34,394,o),
(34,221,cs),
(34,88,o),
(127,-16,o),
(245,-16,cs)
);
}
);
width = 659;
},
{
associatedMasterId = m01;
layerId = "831A53C2-7DC6-452D-9393-14A90B9118CA";
name = "20 Oct 23 at 17:09";
shapes = (
{
closed = 1;
nodes = (
(461,-12,l),
(568,48,l),
(568,63,l),
(461,131,l),
(502,74,l),
(502,765,l),
(479,765,l),
(339,709,l),
(339,694,l),
(455,619,l),
(412,682,l),
(412,74,l),
(421,74,l),
(444,-12,l)
);
},
{
closed = 1;
nodes = (
(309,-12,o),
(372,21,o),
(412,74,c),
(427,74,l),
(427,140,l),
(381,83,o),
(334,58,o),
(272,58,cs),
(184,58,o),
(135,125,o),
(135,244,cs),
(135,358,o),
(201,438,o),
(294,438,cs),
(363,438,o),
(418,409,o),
(447,357,c),
(447,451,l),
(410,478,o),
(363,492,o),
(304,492,cs),
(151,492,o),
(44,381,o),
(44,222,cs),
(44,78,o),
(122,-12,o),
(247,-12,cs)
);
}
);
width = 590;
}
);
metricLeft = "=o";
metricRight = "=n";
unicode = 100;
userData = {
KernOnName = d;
};
},
{
color = 4;
glyphname = eth;
kernLeft = KO_odieresis;
lastChange = "2024-01-09 04:09:07 +0000";
layers = (
{
background = {
shapes = (
{
closed = 1;
nodes = (
(442,-12,o),
(548,94,o),
(548,245,cs),
(548,390,o),
(446,492,o),
(301,492,cs),
(150,492,o),
(44,386,o),
(44,235,cs),
(44,90,o),
(146,-12,o),
(291,-12,cs)
);
},
{
closed = 1;
nodes = (
(206,42,o),
(139,127,o),
(139,248,cs),
(139,360,o),
(202,438,o),
(291,438,cs),
(386,438,o),
(453,353,o),
(453,232,cs),
(453,120,o),
(390,42,o),
(301,42,cs)
);
}
);
};
layerId = m01;
shapes = (
{
closed = 1;
nodes = (
(449,-12,o),
(548,99,o),
(548,275,cs),
(548,507,o),
(410,684,o),
(164,768,c),
(160,768,l),
(145,730,l),
(145,722,l),
(343,644,o),
(453,512,o),
(453,353,cs),
(453,262,l),
(453,121,o),
(398,42,o),
(301,42,cs),
(206,42,o),
(139,127,o),
(139,248,cs),
(139,360,o),
(202,438,o),
(291,438,cs),
(395,438,o),
(453,375,o),
(453,262,c),
(491,262,l),
(491,438,l),
(444,438,l),
(404,476,o),
(361,492,o),
(301,492,cs),
(150,492,o),
(44,386,o),
(44,235,cs),
(44,90,o),
(146,-12,o),
(291,-12,cs)
);
},
{
closed = 1;
nodes = (
(459,690,l),
(459,739,l),
(169,585,l),
(169,536,l)
);
}
);
width = 592;
},
{
background = {
shapes = (
{
closed = 1;
nodes = (
(502,-16,o),
(625,98,o),
(625,259,cs),
(625,417,o),
(512,516,o),
(332,516,cs),
(157,516,o),
(34,402,o),
(34,241,cs),
(34,83,o),
(147,-16,o),
(327,-16,cs)
);
},
{
closed = 1;
nodes = (
(263,54,o),
(223,132,o),
(223,290,cs),
(223,386,o),
(259,446,o),
(316,446,cs),
(396,446,o),
(436,368,o),
(436,210,cs),
(436,114,o),
(400,54,o),
(343,54,cs)
);
}
);
};
layerId = m002;
shapes = (
{
closed = 1;
nodes = (
(509,-16,o),
(623,106,o),
(623,301,cs),
(623,531,o),
(457,698,o),
(161,767,c),
(156,767,l),
(136,711,l),
(136,700,l),
(345,640,o),
(436,546,o),
(436,392,cs),
(436,227,ls),
(436,121,o),
(400,54,o),
(343,54,cs),
(263,54,o),
(223,132,o),
(223,290,cs),
(223,386,o),
(259,446,o),
(316,446,cs),
(393,446,o),
(436,367,o),
(436,227,c),
(530,227,l),
(530,440,l),
(482,440,l),
(449,489,o),
(395,516,o),
(332,516,cs),
(157,516,o),
(34,402,o),
(34,241,cs),
(34,83,o),
(147,-16,o),
(327,-16,cs)
);
},
{
closed = 1;
nodes = (
(513,700,l),
(513,767,l),
(161,598,l),
(161,531,l)
);
}
);
width = 657;
}
);
metricLeft = "=o";
metricRight = "=o";
unicode = 240;
},
